<svg xmlns="http://www.w3.org/2000/svg" aria-hidden="true" viewBox="0 0 24 24">
  <path fill="#013301" d="m5.5417 2.25h12.917a3.5383 3.5383 0 0 1 3.5417 3.5417v12.417a3.5383 3.5383 0 0 1-3.5417 3.5417h-12.917a3.5383 3.5383 0 0 1-3.5417-3.5417v-12.417a3.5383 3.5383 0 0 1 3.5417-3.5417z"/>
  <path fill="#3f6" d="m4.9167 15.9v-8.5333a0.10083 0.10083 0 0 1 0.091667-0.10833h0.00833c0.13333-0.00833 0.33333-0.016667 0.59167-0.016667 0.25833 0 0.56667-0.00833 0.90833-0.016667 0.34167-0.00833 0.71667-0.00833 1.1167-0.00833 1.075 0 1.9667 0.18333 2.6667 0.55a3.7558 3.7558 0 0 1 1.5917 1.5083 4.5333 4.5333 0 0 1 0.53333 2.2083 4.96 4.96 0 0 1-0.275 1.7083 4.06 4.06 0 0 1-0.75 1.2833 4.4858 4.4858 0 0 1-1.0833 0.89167 4.7292 4.7292 0 0 1-1.2917 0.525 5.7192 5.7192 0 0 1-1.3583 0.16667h-1c-0.35 0-0.68333 0-0.98333-0.0083-0.3-0.0083-0.53333-0.0083-0.68333-0.01667-0.058333 0-0.083333-0.05-0.083333-0.13333zm1.85-7.0333v5.5583a2.5933 2.5933 0 0 1 0.26667 0.0083c0.083333 0.0083 0.16667 0.0083 0.25 0.01667 0.083333 0.0083 0.18333 0.0083 0.29167 0.0083a3.4033 3.4033 0 0 0 1.1917-0.1916 2.3867 2.3867 0 0 0 0.91667-0.56667 2.5158 2.5158 0 0 0 0.59167-0.925 3.5483 3.5483 0 0 0 0.20833-1.25 3.1425 3.1425 0 0 0-0.2-1.175 2.13 2.13 0 0 0-0.58333-0.84167 2.3225 2.3225 0 0 0-0.90833-0.5 3.8883 3.8883 0 0 0-1.1583-0.15833c-0.175 0-0.325 0-0.45 0.00833a3.5775 3.5775 0 0 0-0.41667 0.00833z"/>
  <path fill="#3f6" d="m13.233 15.908v-4.9917c0-0.15 0-0.325-0.0083-0.50833-0.0083-0.18333-0.0083-0.36667-0.01667-0.53333-0.0083-0.16667-0.01667-0.3-0.025-0.4a0.083333 0.083333 0 0 1 0.016637-0.083333 0.14083 0.14083 0 0 1 0.08333-0.025h1.3833a0.34583 0.34583 0 0 1 0.13333 0.025 0.12917 0.12917 0 0 1 0.06667 0.091667c0.01667 0.05 0.04167 0.11667 0.05833 0.18333a1.3283 1.3283 0 0 1 0.05 0.25 2.7683 2.7683 0 0 1 0.88333-0.51667 3.1975 3.1975 0 0 1 1.0083-0.16667 2.4858 2.4858 0 0 1 0.78333 0.125 2 2 0 0 1 1.2667 1.2333c0.13333 0.34167 0.2 0.79167 0.2 1.3333v3.9833c0 0.08333-0.03333 0.11667-0.10833 0.11667h-1.625a0.115 0.115 0 0 1-0.13333-0.1v-3.8417a1.7367 1.7367 0 0 0-0.11666-0.68333 0.91667 0.91667 0 0 0-0.90833-0.56667 1.6425 1.6425 0 0 0-0.63333 0.11667 1.75 1.75 0 0 0-0.5 0.31667v4.6417c0 0.08333-0.03333 0.11667-0.10833 0.11667h-1.6333a0.10333 0.10333 0 0 1-0.11667-0.09167z"/>
</svg>
