<svg xmlns="http://www.w3.org/2000/svg" viewBox="0 0 24 24" aria-hidden="true">
  <path fill="#49021f" d="M 5.5416677,2.2500016 H 18.458332 a 3.5383328,3.5383328 0 0 1 3.541666,3.5416661 V 18.208332 a 3.5383328,3.5383328 0 0 1 -3.541666,3.541666 H 5.5416677 A 3.5383328,3.5383328 0 0 1 2.0000016,18.208332 V 5.7916677 A 3.5383328,3.5383328 0 0 1 5.5416677,2.2500016 Z"/>
  <path fill="#f36" d="m 9.2666671,7.3500008 v 8.5499982 c 0,0.09167 -0.041667,0.133334 -0.1166666,0.133334 H 7.5166674 c -0.075,0 -0.1083333,-0.04167 -0.1083333,-0.133334 V 7.3500008 c 0,-0.075 0.041667,-0.1083333 0.1166666,-0.1083333 h 1.6249998 a 0.09416665,0.09416665 0 0 1 0.1083333,0.083333 0.03083333,0.03083333 0 0 1 0.00833,0.025 z"/>
  <path fill="#f36" d="m 14.066666,16.166666 a 4.1433327,4.1433327 0 0 1 -1.791666,-0.375 2.9049995,2.9049995 0 0 1 -1.258333,-1.133333 c -0.308333,-0.508333 -0.458333,-1.141667 -0.458333,-1.9 A 3.4224995,3.4224995 0 0 1 11.016667,11 a 3.4608328,3.4608328 0 0 1 1.325,-1.2916663 C 12.925,9.3833338 13.625,9.2250005 14.45,9.2250005 a 1.4883331,1.4883331 0 0 1 0.175,0.00833 c 0.075,0.00833 0.158333,0.00833 0.258333,0.016667 V 6.6166676 c 0,-0.058333 0.025,-0.091667 0.08333,-0.091667 h 1.691667 a 0.07499999,0.07499999 0 0 1 0.08333,0.058333 v 7.9499984 c 0,0.15 0.0083,0.316667 0.01667,0.5 0.0083,0.183333 0.025,0.341667 0.03333,0.483333 a 0.13499998,0.13499998 0 0 1 -0.08333,0.133333 6.3641656,6.3641656 0 0 1 -1.358334,0.4 7.2783322,7.2783322 0 0 1 -1.283333,0.116667 z M 14.883333,14.5 v -3.666666 a 2.1316663,2.1316663 0 0 0 -0.225,-0.04167 C 14.566666,10.783334 14.475,10.775 14.383333,10.775 a 2.0541663,2.0541663 0 0 0 -0.941667,0.216667 1.868333,1.868333 0 0 0 -0.708333,0.616666 c -0.183333,0.266667 -0.275,0.625 -0.275,1.058334 A 2.3224996,2.3224996 0 0 0 12.6,13.525 a 1.6283331,1.6283331 0 0 0 0.375,0.591666 1.4399998,1.4399998 0 0 0 0.566666,0.333334 2.1816663,2.1816663 0 0 0 0.691667,0.108333 c 0.125,0 0.241667,-0.0083 0.35,-0.01667 a 0.70999989,0.70999989 0 0 0 0.3,-0.04167 z"/>
</svg>
