<svg xmlns="http://www.w3.org/2000/svg" aria-hidden="true" viewBox="0 0 24 24">
  <path fill="#000b1d" d="m5.5417 2.25h12.917a3.5383 3.5383 0 0 1 3.5417 3.5417v12.417a3.5383 3.5383 0 0 1-3.5417 3.5417h-12.917a3.5383 3.5383 0 0 1-3.5417-3.5417v-12.417a3.5383 3.5383 0 0 1 3.5417-3.5417z"/>
  <path fill="#fff" d="m5.5333 15.908v-8.5167c0-0.083333 0.025-0.125 0.083333-0.13333 0.15-0.00833 0.38333-0.016667 0.7-0.016667s0.65-0.00833 1.0167-0.016667c0.36667-0.00833 0.7-0.00833 1.0083-0.00833 0.73333 0 1.3167 0.083333 1.75 0.24167a2.6233 2.6233 0 0 1 1 0.60833 1.8983 1.8983 0 0 1 0.46667 0.775 2.465 2.465 0 0 1 0.11667 0.74167 2.095 2.095 0 0 1-0.13333 0.78333 1.825 1.825 0 0 1-0.325 0.56667 1.51 1.51 0 0 1-0.35833 0.33333 2.8883 2.8883 0 0 1 0.53333 0.36667 2.0633 2.0633 0 0 1 0.5 0.66667 2.3267 2.3267 0 0 1 0.21667 1.0333 2.375 2.375 0 0 1-0.45 1.425 2.8675 2.8675 0 0 1-1.2917 0.95833c-0.55833 0.225-1.225 0.34167-2.0083 0.34167h-0.88333c-0.28333 0-0.54167 0-0.775-0.0083-0.23333-0.0083-0.44167-0.0083-0.61667-0.01667-0.175-0.0083-0.325-0.0083-0.45-0.0083-0.066667 0-0.1-0.04167-0.1-0.11667zm1.8083-7.0917v1.8667h0.90833c0.24167 0 0.475 0.0083 0.70833 0.01667a2.5433 2.5433 0 0 1 0.5 0.049996 1.3433 1.3433 0 0 0 0.29167-0.35833 1.185 1.185 0 0 0 0.11667-0.53333 0.95 0.95 0 0 0-0.175-0.59167 1.0833 1.0833 0 0 0-0.5-0.34167 2.635 2.635 0 0 0-0.84167-0.11667h-0.39167c-0.11667 0-0.225 0-0.31667 0.00833-0.091667-0.00833-0.19167 0-0.3 0zm0 3.4417v2.2167c0.15 0.0083 0.3 0.01667 0.45833 0.01667s0.33333 0.0083 0.55 0.0083a3.5108 3.5108 0 0 0 0.975-0.11667 1.2658 1.2658 0 0 0 0.63333-0.375 0.95917 0.95917 0 0 0 0.21667-0.6333 1.1367 1.1367 0 0 0-0.175-0.63333c-0.11667-0.175-0.33333-0.30833-0.64167-0.39167a2.8267 2.8267 0 0 0-0.36667-0.06667 4.8567 4.8567 0 0 0-0.49167-0.025z"/>
  <path fill="#fff" d="m17.5 13.192h-2.6417a1.695 1.695 0 0 0 0.25833 0.70833 1.3217 1.3217 0 0 0 0.60833 0.5 2.5717 2.5717 0 0 0 1.0667 0.19167 5 5 0 0 0 0.86667-0.075 3.6825 3.6825 0 0 0 0.78333-0.23333c0.04167-0.03333 0.06667-0.01667 0.06667 0.06667v1.275a0.41667 0.41667 0 0 1-0.01667 0.1 0.195 0.195 0 0 1-0.05833 0.05833 3.8567 3.8567 0 0 1-0.875 0.29167 5.6292 5.6292 0 0 1-1.1833 0.1c-0.63333 0-1.1667-0.1-1.6-0.29167a2.8058 2.8058 0 0 1-1.05-0.79167 3.0583 3.0583 0 0 1-0.575-1.0917 4.3175 4.3175 0 0 1 0.03333-2.5417 3.4008 3.4008 0 0 1 0.625-1.1417 3.02 3.02 0 0 1 1.0083-0.79167 3.2117 3.2117 0 0 1 1.3917-0.29167 3.01 3.01 0 0 1 1.2917 0.25833 2.2942 2.2942 0 0 1 0.875 0.69167 3.0508 3.0508 0 0 1 0.5 0.95 3.2775 3.2775 0 0 1 0.15833 1.0167c0 0.2-0.0083 0.375-0.01667 0.53333-0.0083 0.15833-0.025 0.275-0.03333 0.35a0.12417 0.12417 0 0 1-0.11667 0.10833c-0.05 0-0.14167 0.0083-0.275 0.01667a3.9442 3.9442 0 0 1-0.48333 0.025c-0.19167 0-0.39167 0.0083-0.60833 0.0083zm-2.6417-1.3083h1.7583c0.21667 0 0.375 0 0.475-0.0083a1.3675 1.3675 0 0 0 0.19167-0.01667v-0.083363a0.95667 0.95667 0 0 0-0.05-0.30833 1.1033 1.1033 0 0 0-1.0833-0.76667 1.1733 1.1733 0 0 0-1.1083 0.63333 1.6483 1.6483 0 0 0-0.18333 0.55z"/>
</svg>
