<svg xmlns="http://www.w3.org/2000/svg" viewBox="0 0 24 24" width="24" height="24">
  <path fill="#001e36" d="M 5.5416665,2.25 H 18.458333 c 1.958333,0 3.541666,1.5833333 3.541666,3.5416665 V 18.208333 c 0,1.958333 -1.583333,3.541666 -3.541666,3.541666 H 5.5416665 C 3.5833333,21.749999 2,20.166666 2,18.208333 V 5.7916665 C 2,3.8333333 3.5833333,2.25 5.5416665,2.25 Z" />
  <path fill="#001e36" d="M 8.0999998,14.908333 V 8.8416664 c 0,-0.041667 0.016667,-0.066667 0.058333,-0.066667 0.1,0 0.1916666,0 0.3333333,-0.00833 0.1416667,0 0.2916667,-0.00833 0.45,-0.00833 0.1583333,0 0.3333333,-0.00833 0.5166666,-0.00833 0.1833334,0 0.3583334,-0.00833 0.5333333,-0.00833 0.416667,-0.00833 0.825,0.05 1.216667,0.1833333 0.3,0.1 0.566667,0.2666667 0.791667,0.4833333 0.191666,0.1916667 0.341666,0.4166667 0.433333,0.666667 0.09167,0.241666 0.133333,0.5 0.133333,0.766666 0,0.508334 -0.116666,0.925 -0.35,1.258334 -0.233333,0.333333 -0.566666,0.583333 -0.95,0.716666 -0.425,0.141667 -0.875,0.216667 -1.3333333,0.2 -0.1416666,0 -0.2416666,0 -0.2916666,-0.0083 C 9.583333,13.008333 9.4999997,13 9.383333,13 v 1.891666 c 0.00833,0.04167 -0.025,0.08333 -0.066667,0.08333 -0.00833,0 -0.016667,0 -0.025,0 h -1.125 c -0.041667,0.01667 -0.066667,-0.0083 -0.066667,-0.06667 z M 9.383333,9.9166664 V 11.9 c 0.083333,0.0083 0.1583334,0.0083 0.225,0.0083 h 0.3166667 c 0.2333333,0 0.4583333,-0.03333 0.6833333,-0.108333 C 10.8,11.741637 10.966666,11.6333 11.091666,11.4833 c 0.125,-0.141667 0.183334,-0.35 0.183334,-0.608333 0.0083,-0.183334 -0.04167,-0.366667 -0.141667,-0.525 -0.1,-0.15 -0.241667,-0.266667 -0.416667,-0.333334 C 10.491666,9.9333 10.258333,9.8916334 10.025,9.8999667 c -0.1500003,0 -0.2833336,0 -0.4000003,0.00833 -0.1166667,-0.00833 -0.1916667,0 -0.2416667,0.00833 z" />
  <path fill="#001e36" d="m 16.241666,11.533333 c -0.175,-0.09167 -0.366667,-0.158333 -0.566667,-0.2 -0.216666,-0.05 -0.441666,-0.075 -0.658333,-0.075 -0.116667,0 -0.241667,0.0083 -0.358333,0.04167 -0.075,0.01667 -0.141667,0.05833 -0.183333,0.116666 -0.03333,0.05 -0.05,0.108334 -0.05,0.158334 0,0.05833 0.025,0.108333 0.05833,0.15 0.05833,0.06667 0.125,0.116666 0.2,0.158333 0.133333,0.075 0.275,0.141667 0.416666,0.191667 0.316667,0.108333 0.625,0.25 0.908334,0.433333 0.191666,0.125 0.35,0.291667 0.466666,0.491667 0.09167,0.191666 0.141667,0.4 0.141667,0.608333 0.0083,0.275 -0.075,0.55 -0.225,0.783333 -0.166667,0.233334 -0.391667,0.416667 -0.658333,0.525 -0.341667,0.133333 -0.7,0.2 -1.066667,0.191667 -0.266666,0 -0.541666,-0.025 -0.8,-0.075 -0.208333,-0.04167 -0.408333,-0.1 -0.6,-0.191667 C 13.225,14.816666 13.2,14.774999 13.2,14.725 V 13.7 c 0,-0.01667 0.0083,-0.04167 0.025,-0.05 0.01667,-0.0083 0.04167,-0.0083 0.05,0.0083 0.225,0.133333 0.475,0.233333 0.733333,0.291667 0.225,0.05833 0.458333,0.08333 0.691666,0.09167 0.166667,0.0083 0.333334,-0.01667 0.491667,-0.08333 0.1,-0.04167 0.158333,-0.141667 0.158333,-0.25 -0.0083,-0.1 -0.05833,-0.183333 -0.141666,-0.241667 -0.183334,-0.116666 -0.375,-0.208333 -0.583334,-0.275 -0.299999,-0.1 -0.583333,-0.25 -0.841666,-0.425 -0.183333,-0.133333 -0.341667,-0.3 -0.45,-0.5 -0.09167,-0.183333 -0.141667,-0.391666 -0.141667,-0.6 0,-0.25 0.06667,-0.5 0.2,-0.716666 0.15,-0.233334 0.366667,-0.425 0.616667,-0.541667 0.325,-0.15 0.683333,-0.225 1.041666,-0.208333 0.241667,0 0.491667,0.01667 0.733334,0.05 0.175,0.025 0.35,0.06667 0.508333,0.141666 0.025,0.0083 0.05,0.025 0.05833,0.05 0.0083,0.025 0.0083,0.05 0.0083,0.075 V 11.475 c 0,0.025 -0.0083,0.04167 -0.025,0.05833 -0.03333,0.01667 -0.06667,0.01667 -0.09167,0 z" />
  <path fill="#31a8ff60" d="m 12,20.066666 c -0.325,0 -0.633334,-0.125 -0.858334,-0.358333 l -6.8499994,-6.85 c -0.475,-0.475 -0.475,-1.241667 0,-1.716667 0,0 0,0 0,0 L 11.141666,4.2916666 c 0.475,-0.475 1.241667,-0.475 1.716667,0 0,0 0,0 0,0 l 6.85,6.8499994 c 0.475,0.475 0.475,1.241667 0,1.716667 0,0 0,0 0,0 l -6.85,6.85 C 12.633333,19.933333 12.325,20.066666 12,20.066666 Z m -0.625,-0.591667 c 0.341666,0.341667 0.9,0.341667 1.241666,0 l 6.85,-6.849999 c 0.341667,-0.341667 0.341667,-0.9 0,-1.241667 l -6.85,-6.8499998 c -0.341666,-0.3416666 -0.9,-0.3416666 -1.241666,0 L 4.5249999,11.383333 c -0.3416667,0.341667 -0.3416667,0.9 0,1.241667 z" />
</svg>
