<svg xmlns="http://www.w3.org/2000/svg" aria-hidden="true" viewBox="0 0 24 24">
  <path fill="#001e36" d="m5.5417 2.25h12.917a3.5383 3.5383 0 0 1 3.5417 3.5417v12.417a3.5383 3.5383 0 0 1-3.5417 3.5417h-12.917a3.5383 3.5383 0 0 1-3.5417-3.5417v-12.417a3.5383 3.5383 0 0 1 3.5417-3.5417z"/>
  <path fill="#31a8ff" d="m12.5 16.033h-5.2833c-0.091667 0-0.13333-0.05-0.13333-0.15v-8.5167a0.10333 0.10333 0 0 1 0.091667-0.11667h1.6667a0.078333 0.078333 0 0 1 0.091667 0.066667v7.025h3.85c0.08333 0 0.10833 0.04167 0.09167 0.11667l-0.24167 1.45a0.145 0.145 0 0 1-0.05 0.1 0.14083 0.14083 0 0 1-0.08333 0.025z"/>
  <path fill="#31a8ff" d="m13.833 9.3667h1.4583a0.1875 0.1875 0 0 1 0.175 0.13333 0.52583 0.52583 0 0 1 0.06667 0.19167c0.01667 0.083333 0.03333 0.175 0.04167 0.25833 0.0083 0.083334 0.01667 0.19167 0.01667 0.3a3.1017 3.1017 0 0 1 0.89167-0.71667 2.4875 2.4875 0 0 1 1.2417-0.3 0.10333 0.10333 0 0 1 0.11667 0.091667v1.6583c0 0.06667-0.04167 0.09167-0.13333 0.09167a3.3967 3.3967 0 0 0-1.575 0.28333 1.3975 1.3975 0 0 0-0.45 0.30833v4.25c0 0.08333-0.03333 0.11667-0.10833 0.11667h-1.625a0.115 0.115 0 0 1-0.13333-0.1v-4.65c0-0.2 0-0.40833-0.0083-0.625-0.008366-0.21667-0.008366-0.43334-0.0167-0.65q-0.0125-0.275-0.05-0.55a0.076667 0.076667 0 0 1 0.058334-0.091667c0.0083-0.00833 0.01667-0.00833 0.03333 0z"/>
</svg>
