<svg xmlns="http://www.w3.org/2000/svg" viewBox="0 0 24 24" aria-hidden="true">
  <path fill="#001e36" d="M 5.5416677,2.2500016 H 18.458332 a 3.5383328,3.5383328 0 0 1 3.541666,3.5416661 V 18.208332 a 3.5383328,3.5383328 0 0 1 -3.541666,3.541666 H 5.5416677 A 3.5383328,3.5383328 0 0 1 2.0000016,18.208332 V 5.7916677 A 3.5383328,3.5383328 0 0 1 5.5416677,2.2500016 Z"/>
  <path fill="#31a8ff" d="M 9.0166671,16.033333 H 4.2583346 c -0.083333,0 -0.1166667,-0.05 -0.1166667,-0.15 V 7.3666674 c 0,-0.083333 0.033333,-0.1166666 0.1083333,-0.1166666 H 5.725001 c 0.058333,0 0.083333,0.033333 0.083333,0.091667 v 6.9999982 h 3.4666661 c 0.075,0 0.1,0.04167 0.083333,0.116667 l -0.2166667,1.45 a 0.14249998,0.14249998 0 0 1 -0.05,0.1 0.13416665,0.13416665 0 0 1 -0.074999,0.025 z"/>
  <path fill="#31a8ff" d="M 10.208334,9.3666671 H 11.525 c 0.075,0 0.125,0.041667 0.158333,0.1333333 a 0.73166655,0.73166655 0 0 1 0.05833,0.1916667 c 0.01667,0.083333 0.025,0.1749999 0.03333,0.2583333 0.0083,0.083334 0.0083,0.1916666 0.0083,0.2999996 a 2.8599995,2.8599995 0 0 1 0.8,-0.7166662 2.100833,2.100833 0 0 1 1.116667,-0.3 c 0.075,0 0.108333,0.041667 0.108333,0.1166667 V 10.975 c 0,0.06667 -0.04167,0.09167 -0.116667,0.09167 A 2.6883329,2.6883329 0 0 0 12.275,11.35 1.4658331,1.4658331 0 0 0 11.866667,11.658333 v 4.25 c 0,0.08333 -0.03333,0.116666 -0.1,0.116666 h -1.45 C 10.233334,16.024999 10.2,15.983333 10.2,15.891666 V 11.275 c 0,-0.2 0,-0.408333 -0.0083,-0.625 C 10.1834,10.433334 10.1834,10.216667 10.17503,10 Q 10.1625,9.7250004 10.125,9.4500004 a 0.12416665,0.12416665 0 0 1 0.01667,-0.075 0.09416665,0.09416665 0 0 1 0.06667,-0.00833 z"/>
  <path fill="#31a8ff" d="m 19.716665,8.133334 a 2.1141663,2.1141663 0 0 0 -0.558333,-0.1416667 7.2683322,7.2683322 0 0 0 -0.85,-0.05 c -0.816666,0 -1.533333,0.1749999 -2.124999,0.5166665 A 3.5874994,3.5874994 0 0 0 14.8,9.916667 c -0.325,0.616667 -0.483334,1.35 -0.483334,2.166666 A 5.4866658,5.4866658 0 0 0 14.5,13.55 a 3.8624994,3.8624994 0 0 0 0.533333,1.141666 3.3408328,3.3408328 0 0 0 0.816666,0.825 3.2499995,3.2499995 0 0 0 1.058334,0.5 4.6074993,4.6074993 0 0 0 1.216666,0.166667 5.8633324,5.8633324 0 0 0 0.858333,-0.05833 2.6666662,2.6666662 0 0 0 0.675,-0.166666 0.22416663,0.22416663 0 0 0 0.125,-0.225 V 14.49167 a 0.14499998,0.14499998 0 0 0 -0.04167,-0.125 0.09999998,0.09999998 0 0 0 -0.133333,0.0083 2.7116662,2.7116662 0 0 1 -0.583333,0.141666 7.0349989,7.0349989 0 0 1 -0.725,0.03333 2.4483329,2.4483329 0 0 1 -0.65,-0.09167 2.4924996,2.4924996 0 0 1 -0.633333,-0.266667 1.8199997,1.8199997 0 0 1 -0.525,-0.483333 2.5349996,2.5349996 0 0 1 -0.366667,-0.716666 3.2041662,3.2041662 0 0 1 -0.133333,-0.975 3.0624995,3.0624995 0 0 1 0.275,-1.333333 2.0924997,2.0924997 0 0 1 0.783333,-0.8750003 2.3099996,2.3099996 0 0 1 1.216667,-0.3166666 4.144166,4.144166 0 0 1 0.783333,0.066667 1.9591664,1.9591664 0 0 1 0.6,0.1999999 0.12333331,0.12333331 0 0 0 0.108333,0 0.14333331,0.14333331 0 0 0 0.05,-0.1249999 V 8.333334 a 0.20416663,0.20416663 0 0 0 -0.09167,-0.2 z"/>
</svg>
