<svg xmlns="http://www.w3.org/2000/svg" viewBox="0 0 24 24" width="24" height="24">
  <path fill="#001e36" d="M 5.5416677,2.2500016 H 18.458332 a 3.5383328,3.5383328 0 0 1 3.541666,3.5416661 V 18.208332 a 3.5383328,3.5383328 0 0 1 -3.541666,3.541666 H 5.5416677 A 3.5383328,3.5383328 0 0 1 2.0000016,18.208332 V 5.7916677 A 3.5383328,3.5383328 0 0 1 5.5416677,2.2500016 Z" />
  <path fill="#31a8ff" d="M 8.7500005,8.2000006 A 2.7083329,2.7083329 0 0 0 7.7416673,7.5166674 4.166666,4.166666 0 0 0 6.2000009,7.2583341 c -0.2249999,0 -0.4499999,0 -0.6833332,0.00833 -0.2333333,0.00833 -0.4499999,0.00833 -0.6499999,0.016667 -0.2,0.00833 -0.3999999,0.00833 -0.5749999,0.016667 -0.175,0.00833 -0.3333333,0.00833 -0.4583333,0.00833 -0.05,0 -0.075,0.033333 -0.075,0.091667 v 8.5249979 c 0,0.075 0.025,0.108334 0.083333,0.108334 h 1.4749997 c 0.075,0 0.1083334,-0.04167 0.1083334,-0.116667 v -2.6 c 0.1416666,0 0.2499999,0 0.3249999,0.0083 0.075,0.0083 0.2,0.0083 0.3749999,0.0083 A 4.386666,4.386666 0 0 0 7.8166673,13.016667 2.5983329,2.5983329 0 0 0 9.0250005,12.008333 C 9.3250004,11.541667 9.4750004,10.95 9.4750004,10.241667 A 3.6741661,3.6741661 0 0 0 9.3083338,9.1583338 2.7624996,2.7624996 0 0 0 8.7500005,8.2000006 Z M 7.5916674,11.125 A 1.3058331,1.3058331 0 0 1 6.9750008,11.566667 2.5158329,2.5158329 0 0 1 6.1083343,11.7 h -0.4 C 5.6166673,11.7 5.525001,11.6917 5.4166677,11.68333 V 8.9166672 c 0.1,-0.00833 0.2083333,-0.016667 0.3083333,-0.016667 0.15,-0.00833 0.3166666,-0.00833 0.5166666,-0.00833 a 2.1666663,2.1666663 0 0 1 0.8833332,0.1666666 1.2049998,1.2049998 0 0 1 0.5249999,0.475 1.4341664,1.4341664 0 0 1 0.175,0.7416662 c 0,0.358334 -0.075,0.641667 -0.2333333,0.85 z" />
  <path fill="#31a8ff" d="m 13.358333,12.491667 a 5.0683325,5.0683325 0 0 0 -1.15,-0.608334 C 12.025,11.8 11.85,11.708333 11.675,11.608333 a 0.80999987,0.80999987 0 0 1 -0.25,-0.225 0.48083326,0.48083326 0 0 1 -0.075,-0.216666 0.4166666,0.4166666 0 0 1 0.05833,-0.225 0.42249993,0.42249993 0 0 1 0.233334,-0.166667 1.3933331,1.3933331 0 0 1 0.45,-0.05833 3.1958328,3.1958328 0 0 1 0.841666,0.108333 2.1924996,2.1924996 0 0 1 0.675,0.283334 0.07583332,0.07583332 0 0 0 0.08333,0 A 0.08333332,0.08333332 0 0 0 13.725,11.025 V 9.6750004 a 0.40583327,0.40583327 0 0 0 -0.0083,-0.1 0.13249998,0.13249998 0 0 0 -0.075,-0.075 1.6583331,1.6583331 0 0 0 -0.583333,-0.1916666 5.7958324,5.7958324 0 0 0 -0.933333,-0.075 c -0.533333,0 -0.975,0.1 -1.325,0.2916666 a 1.9274997,1.9274997 0 0 0 -0.783333,0.7666666 2.033333,2.033333 0 0 0 -0.25,1.008333 2.1266663,2.1266663 0 0 0 0.175,0.85 1.9324997,1.9324997 0 0 0 0.566667,0.7 4.0833327,4.0833327 0 0 0 1.066666,0.6 c 0.366667,0.15 0.616667,0.283333 0.733333,0.391666 a 0.45249993,0.45249993 0 0 1 0.183334,0.333334 0.3916666,0.3916666 0 0 1 -0.2,0.35 c -0.133334,0.08333 -0.341667,0.116666 -0.625,0.116666 a 3.961666,3.961666 0 0 1 -0.883333,-0.125 A 2.7149996,2.7149996 0 0 1 9.9250003,14.108333 0.06249999,0.06249999 0 0 0 9.8583337,14.1 0.08333332,0.08333332 0 0 0 9.8250003,14.175 v 1.449999 a 0.17166664,0.17166664 0 0 0 0.083333,0.158334 2.333333,2.333333 0 0 0 0.6916667,0.266666 4.6316659,4.6316659 0 0 0 1.016667,0.108334 c 0.541666,0 0.991666,-0.09167 1.358333,-0.266667 A 1.9166664,1.9166664 0 0 0 13.816666,15.15 a 2.0641663,2.0641663 0 0 0 0.291667,-1.108334 2.030833,2.030833 0 0 0 -0.175,-0.858333 1.7033331,1.7033331 0 0 0 -0.575,-0.691666 z" />
  <path fill="#31a8ff" d="m 20.224999,15.808333 -2.133333,-3.841666 1.991666,-3.6166664 a 0.11499998,0.11499998 0 0 0 0.01667,-0.1333333 0.11249998,0.11249998 0 0 0 -0.125,-0.066667 h -1.416667 a 0.17916664,0.17916664 0 0 0 -0.125,0.033333 0.19999997,0.19999997 0 0 0 -0.05833,0.1 c -0.141667,0.3166666 -0.3,0.5916665 -0.45,0.9083332 -0.15,0.3166666 -0.308333,0.6333332 -0.45,0.9416665 -0.133333,0.275 -0.266667,0.566666 -0.391666,0.858333 -0.125,-0.283333 -0.258334,-0.566667 -0.4,-0.841667 -0.166667,-0.316666 -0.325,-0.6333326 -0.483334,-0.9499992 -0.158333,-0.3166666 -0.3,-0.5999999 -0.433333,-0.9333332 A 0.21499997,0.21499997 0 0 0 15.558333,8.158334 h -1.525 a 0.13416665,0.13416665 0 0 0 -0.108333,0.05 0.11249998,0.11249998 0 0 0 0.0083,0.1333333 l 2.016666,3.7499997 -2.066666,3.724999 a 0.14499998,0.14499998 0 0 0 -0.025,0.116667 0.10333332,0.10333332 0 0 0 0.108333,0.1 h 1.475 a 0.19749997,0.19749997 0 0 0 0.2,-0.141667 c 0.158333,-0.316667 0.316667,-0.583333 0.466667,-0.9 0.15,-0.316666 0.3,-0.633333 0.458333,-0.95 0.133333,-0.283333 0.275,-0.575 0.4,-0.858333 0.141667,0.291667 0.283333,0.583333 0.433333,0.875 0.158333,0.316667 0.316667,0.633333 0.458333,0.941667 0.141667,0.308333 0.291667,0.574999 0.433334,0.883333 a 0.29666662,0.29666662 0 0 0 0.275,0.15 h 1.541666 a 0.11749998,0.11749998 0 0 0 0.116667,-0.09167 0.14916664,0.14916664 0 0 0 0,-0.133333 z" />
</svg>
