<svg xmlns="http://www.w3.org/2000/svg" aria-hidden="true" viewBox="0 0 24 24">
  <path fill="#001e36" d="m5.5417 2.25h12.917a3.5383 3.5383 0 0 1 3.5417 3.5417v12.417a3.5383 3.5383 0 0 1-3.5417 3.5417h-12.917a3.5383 3.5383 0 0 1-3.5417-3.5417v-12.417a3.5383 3.5383 0 0 1 3.5417-3.5417z"/>
  <path fill="#31a8ff" d="m6.5 15.925v-8.575c0-0.058333 0.025-0.091667 0.083333-0.091667 0.14167 0 0.275 0 0.46667-0.00833s0.40833-0.00833 0.63333-0.016667c0.225-0.00833 0.46667-0.00833 0.725-0.016667 0.25833-0.00833 0.50833-0.00833 0.75833-0.00833 0.68333 0 1.25 0.083333 1.7167 0.25833a2.9758 2.9758 0 0 1 1.1167 0.68333 2.6533 2.6533 0 0 1 0.60833 0.95 3.19 3.19 0 0 1 0.19167 1.0833q0 1.075-0.5 1.775a2.855 2.855 0 0 1-1.3417 1.0167c-0.56667 0.20833-1.1917 0.28333-1.875 0.28333-0.2 0-0.33333 0-0.41667-0.0083-0.083333-0.0083-0.2-0.0083-0.35833-0.0083v2.675a0.10333 0.10333 0 0 1-0.091667 0.11667h-1.6167c-0.066667 0-0.1-0.03333-0.1-0.10833zm1.8167-7.0583v2.8c0.11667 0.0083 0.225 0.01667 0.325 0.01667h0.44167a3.1125 3.1125 0 0 0 0.95833-0.15 1.4333 1.4333 0 0 0 0.68333-0.44167c0.175-0.20833 0.25833-0.49167 0.25833-0.85833a1.3717 1.3717 0 0 0-0.19167-0.74167 1.2083 1.2083 0 0 0-0.58333-0.475 2.445 2.445 0 0 0-0.98333-0.16667c-0.21667 0-0.40833 0-0.56667 0.00833a1.9083 1.9083 0 0 0-0.34167 0.00833z"/>
  <path fill="#31a8ff" d="m18 11.158a2.9492 2.9492 0 0 0-0.8-0.28333 4.3925 4.3925 0 0 0-0.93333-0.10833 1.6775 1.6775 0 0 0-0.5 0.05833 0.4275 0.4275 0 0 0-0.25833 0.16667 0.44167 0.44167 0 0 0-0.06667 0.225 0.37083 0.37083 0 0 0 0.08333 0.21667 0.94 0.94 0 0 0 0.28333 0.225c0.19167 0.1 0.39167 0.19167 0.59167 0.275a6.0358 6.0358 0 0 1 1.2833 0.60833 1.9392 1.9392 0 0 1 0.65833 0.69167 1.7992 1.7992 0 0 1 0.19167 0.85833 1.9392 1.9392 0 0 1-0.325 1.1083 2.0883 2.0883 0 0 1-0.93333 0.74167c-0.40833 0.175-0.90833 0.26667-1.5083 0.26667a5.74 5.74 0 0 1-1.1333-0.10833 3.3617 3.3617 0 0 1-0.85-0.26667 0.16667 0.16667 0 0 1-0.09167-0.15833v-1.45a0.090833 0.090833 0 0 1 0.03333-0.075 0.063333 0.063333 0 0 1 0.075 0.0083 3.5675 3.5675 0 0 0 1.0333 0.40833 3.8792 3.8792 0 0 0 0.98333 0.125c0.31667 0 0.54167-0.04167 0.69167-0.11667a0.3875 0.3875 0 0 0 0.225-0.35c0-0.11667-0.06667-0.225-0.2-0.33333-0.13332-0.1083-0.40832-0.2333-0.81665-0.39163a5.0983 5.0983 0 0 1-1.1833-0.6 2.1575 2.1575 0 0 1-0.63333-0.70833 1.7883 1.7883 0 0 1-0.19167-0.85 1.96 1.96 0 0 1 0.28333-1.0083 2.0542 2.0542 0 0 1 0.875-0.76667c0.39167-0.2 0.88333-0.29167 1.475-0.29167a7.1842 7.1842 0 0 1 1.0333 0.075 2.9325 2.9325 0 0 1 0.71667 0.19167 0.14667 0.14667 0 0 1 0.08333 0.075 0.41667 0.41667 0 0 1 0.01667 0.1v1.3583a0.1025 0.1025 0 0 1-0.04167 0.08333 0.22167 0.22167 0 0 1-0.15 0z"/>
</svg>
