<svg xmlns="http://www.w3.org/2000/svg" viewBox="0 0 24 24" aria-hidden="true">
  <path fill="#001e36" d="M 5.5416677,2.2500016 H 18.458332 a 3.5383328,3.5383328 0 0 1 3.541666,3.5416661 V 18.208332 a 3.5383328,3.5383328 0 0 1 -3.541666,3.541666 H 5.5416677 A 3.5383328,3.5383328 0 0 1 2.0000016,18.208332 V 5.7916677 A 3.5383328,3.5383328 0 0 1 5.5416677,2.2500016 Z"/>
  <path fill="#31a8ff" d="M 6.5000009,15.924999 V 7.3500008 c 0,-0.058333 0.025,-0.091667 0.083333,-0.091667 0.1416666,0 0.275,0 0.4666666,-0.00833 0.1916666,-0.00833 0.4083333,-0.00833 0.6333332,-0.016667 0.225,-0.00833 0.4666666,-0.00833 0.7249999,-0.016667 0.2583333,-0.00833 0.5083333,-0.00833 0.7583332,-0.00833 0.6833332,0 1.2500002,0.083333 1.7166672,0.2583333 A 2.9758329,2.9758329 0 0 1 12,8.1500007 2.6533329,2.6533329 0 0 1 12.608333,9.1000005 3.1899995,3.1899995 0 0 1 12.8,10.183334 q 0,1.074999 -0.5,1.774999 A 2.8549995,2.8549995 0 0 1 10.958334,12.975 c -0.566667,0.208333 -1.191667,0.283333 -1.8750002,0.283333 -0.2,0 -0.3333333,0 -0.4166666,-0.0083 -0.083333,-0.0083 -0.2,-0.0083 -0.3583333,-0.0083 v 2.674999 a 0.10333332,0.10333332 0 0 1 -0.091667,0.116667 h -1.616666 c -0.066667,0 -0.1,-0.03333 -0.1,-0.108334 z M 8.3166673,8.8666672 v 2.7999998 c 0.1166666,0.0083 0.2249999,0.01667 0.3249999,0.01667 h 0.4416666 a 3.1124995,3.1124995 0 0 0 0.9583332,-0.15 1.4333331,1.4333331 0 0 0 0.683333,-0.44167 C 10.9,10.883334 10.983333,10.6 10.983333,10.233334 A 1.3716664,1.3716664 0 0 0 10.791667,9.4916671 1.2083331,1.2083331 0 0 0 10.208334,9.0166672 2.4449996,2.4449996 0 0 0 9.2250004,8.8500005 c -0.2166666,0 -0.4083332,0 -0.5666665,0.00833 a 1.908333,1.908333 0 0 0 -0.3416666,0.00833 z"/>
  <path fill="#31a8ff" d="m 17.999999,11.158334 a 2.9491662,2.9491662 0 0 0 -0.8,-0.283334 4.3924993,4.3924993 0 0 0 -0.933333,-0.108333 1.6774997,1.6774997 0 0 0 -0.5,0.05833 0.42749993,0.42749993 0 0 0 -0.258333,0.166667 0.4416666,0.4416666 0 0 0 -0.06667,0.225 0.37083327,0.37083327 0 0 0 0.08333,0.216666 0.93999985,0.93999985 0 0 0 0.283334,0.225 c 0.191666,0.1 0.391666,0.191667 0.591666,0.275 a 6.0358324,6.0358324 0 0 1 1.283333,0.608334 1.9391664,1.9391664 0 0 1 0.658334,0.691666 1.7991664,1.7991664 0 0 1 0.191666,0.858333 1.9391664,1.9391664 0 0 1 -0.325,1.108334 2.088333,2.088333 0 0 1 -0.933333,0.741666 c -0.408333,0.175 -0.908333,0.266667 -1.508333,0.266667 a 5.7399991,5.7399991 0 0 1 -1.133333,-0.108334 3.3616661,3.3616661 0 0 1 -0.85,-0.266666 0.16666664,0.16666664 0 0 1 -0.09167,-0.158334 V 14.225 a 0.09083332,0.09083332 0 0 1 0.03333,-0.075 0.06333332,0.06333332 0 0 1 0.075,0.0083 3.5674994,3.5674994 0 0 0 1.033333,0.408333 3.879166,3.879166 0 0 0 0.983333,0.125 c 0.316667,0 0.541667,-0.04167 0.691667,-0.116666 a 0.38749994,0.38749994 0 0 0 0.225,-0.35 c 0,-0.116667 -0.06667,-0.225 -0.2,-0.333334 -0.133321,-0.1083 -0.408321,-0.2333 -0.816654,-0.391633 A 5.0983325,5.0983325 0 0 1 14.533333,12.9 2.1574997,2.1574997 0 0 1 13.9,12.191667 a 1.788333,1.788333 0 0 1 -0.191667,-0.85 1.9599997,1.9599997 0 0 1 0.283333,-1.008333 2.0541663,2.0541663 0 0 1 0.875,-0.7666669 c 0.391667,-0.2 0.883333,-0.2916666 1.475,-0.2916666 a 7.1841655,7.1841655 0 0 1 1.033333,0.075 2.9324995,2.9324995 0 0 1 0.716667,0.1916666 0.14666664,0.14666664 0 0 1 0.08333,0.075 0.4166666,0.4166666 0 0 1 0.01667,0.1 V 11.075 a 0.10249998,0.10249998 0 0 1 -0.04167,0.08333 0.22166663,0.22166663 0 0 1 -0.15,0 z"/>
</svg>
