<svg xmlns="http://www.w3.org/2000/svg" viewBox="0 0 24 24" aria-hidden="true">
  <path fill="#000b1d" d="M 5.5416677,2.2500016 H 18.458332 a 3.5383328,3.5383328 0 0 1 3.541666,3.5416661 V 18.208332 a 3.5383328,3.5383328 0 0 1 -3.541666,3.541666 H 5.5416677 A 3.5383328,3.5383328 0 0 1 2.0000016,18.208332 V 5.7916677 A 3.5383328,3.5383328 0 0 1 5.5416677,2.2500016 Z"/>
  <path fill="#fff" d="M 18.083332,13.541666 C 17.158333,12.558333 14.6,12.958333 14,13.058333 a 10.416665,10.416665 0 0 1 -1.708333,-2.249999 10.024998,10.024998 0 0 0 0.583333,-2.95 c 0,-0.8999998 -0.358333,-1.8666663 -1.358333,-1.8666663 A 1.0133332,1.0133332 0 0 0 10.675,6.4833343 c -0.425,0.7333332 -0.258333,2.2499996 0.425,3.7833327 -0.4,1.125 -0.975,2.75 -1.7333329,4.066666 -1.0249998,0.408333 -3.1999995,1.408333 -3.4083328,2.516666 a 0.93583318,0.93583318 0 0 0 0.3,0.883333 1.2683331,1.2683331 0 0 0 0.8833331,0.316667 c 1.3083332,0 2.6166663,-1.816666 3.4999996,-3.374999 a 22.224996,22.224996 0 0 1 3.116666,-0.816667 c 1.383333,1.208333 2.616666,1.391667 3.241666,1.391667 0.85,0 1.166667,-0.366667 1.283333,-0.675 a 1.0408332,1.0408332 0 0 0 -0.2,-1.033334 z M 17.183333,14.175 c -0.04167,0.241666 -0.35,0.483333 -0.925,0.358333 a 4.6283326,4.6283326 0 0 1 -1.816667,-0.916667 c 0.45,-0.075 1.5,-0.175 2.241667,-0.03333 0.266666,0.05 0.574999,0.2 0.5,0.591667 z M 11.216667,6.8000009 a 0.33333328,0.33333328 0 0 1 0.291666,-0.1833333 c 0.316667,0 0.383334,0.3833332 0.383334,0.6999999 A 9.7316651,9.7316651 0 0 1 11.475,9.5416671 C 10.941667,8.1250007 11.016667,7.1416675 11.216667,6.8000009 Z m -0.075,6.9249991 a 20.932497,20.932497 0 0 0 0.825,-1.983333 A 10.499998,10.499998 0 0 0 13.1,13.225 a 18.749997,18.749997 0 0 0 -1.958333,0.5 z m -2.0916665,1.433333 c -0.8416666,1.35 -1.6666664,2.2 -2.1499997,2.2 a 0.34249995,0.34249995 0 0 1 -0.2166666,-0.075 0.31083328,0.31083328 0 0 1 -0.1083333,-0.308334 c 0.091667,-0.483333 1.0499998,-1.183333 2.4749996,-1.816666 z"/>
</svg>
