<svg xmlns="http://www.w3.org/2000/svg" aria-hidden="true" viewBox="0 0 24 24">
  <path fill="#00005b" d="m5.5417 2.25h12.917a3.5383 3.5383 0 0 1 3.5417 3.5417v12.417a3.5383 3.5383 0 0 1-3.5417 3.5417h-12.917a3.5383 3.5383 0 0 1-3.5417-3.5417v-12.417a3.5383 3.5383 0 0 1 3.5417-3.5417z"/>
  <path fill="#99f" d="m10.083 13.917h-3.0917l-0.63333 1.9583a0.14583 0.14583 0 0 1-0.15833 0.11667h-1.5833c-0.091667 0-0.11667-0.05-0.091667-0.15l2.6917-7.6917c0.025-0.083333 0.05-0.15 0.083333-0.25833a2.9108 2.9108 0 0 0 0.05-0.54167 0.083333 0.083333 0 0 1 0.066667-0.091667h2.1667c0.066667 0 0.1 0.025 0.10833 0.066667l3.0333 8.525c0.025 0.09167 0 0.13333-0.08333 0.13333h-1.7417a0.12583 0.12583 0 0 1-0.13333-0.09167zm-2.6083-1.6583h2.1167c-0.05-0.175-0.11667-0.38333-0.19167-0.6-0.075-0.21667-0.15-0.46667-0.225-0.71667s-0.15833-0.50833-0.24167-0.76667c-0.083333-0.25833-0.15833-0.5-0.225-0.74167-0.066667-0.24167-0.125-0.45-0.18333-0.65h-0.016667a10.232 10.232 0 0 1-0.28333 1.075c-0.125 0.4-0.25 0.81667-0.38333 1.2333-0.11667 0.425-0.24167 0.81667-0.36667 1.1667z"/>
  <path fill="#99f" d="m13.667 15.867v-4.95c0-0.15 0-0.325-0.0083-0.50833-0.0083-0.18333-0.0083-0.36667-0.01667-0.53333-0.0083-0.16667-0.01667-0.325-0.025-0.425a0.083333 0.083333 0 0 1 0.01667-0.083333 0.14083 0.14083 0 0 1 0.08333-0.025h1.3417a0.34583 0.34583 0 0 1 0.13333 0.025 0.12917 0.12917 0 0 1 0.06667 0.091667c0.01667 0.05 0.04167 0.11667 0.05833 0.18333a1.5908 1.5908 0 0 1 0.05 0.275 2.7683 2.7683 0 0 1 0.88333-0.51667 3.1975 3.1975 0 0 1 1.0083-0.16667 2.4858 2.4858 0 0 1 0.78333 0.125 2 2 0 0 1 1.2667 1.2333c0.13333 0.34167 0.18333 0.79167 0.18333 1.3333v3.9417c0 0.08333-0.03333 0.11667-0.10833 0.11667l-1.5667 0.01667a0.115 0.115 0 0 1-0.13333-0.1v-3.7667a1.9525 1.9525 0 0 0-0.15833-0.725 0.91667 0.91667 0 0 0-0.90833-0.56667 1.6425 1.6425 0 0 0-0.63333 0.11667 1.75 1.75 0 0 0-0.5 0.31667v4.6c0 0.08333-0.03333 0.11667-0.10833 0.11667h-1.5834a0.10333 0.10333 0 0 1-0.11667-0.091667c-0.01667-0.01667-0.01667-0.025-0.0083-0.03333z"/>
</svg>
