<svg xmlns="http://www.w3.org/2000/svg" viewBox="0 0 24 24" aria-hidden="true">
  <path fill="#00005b" d="M 5.5416678,2.2500016 H 18.458333 a 3.5383328,3.5383328 0 0 1 3.541665,3.5416662 V 18.208333 a 3.5383328,3.5383328 0 0 1 -3.541665,3.541666 H 5.5416678 A 3.5383328,3.5383328 0 0 1 2.0000016,18.208333 V 5.7916678 A 3.5383328,3.5383328 0 0 1 5.5416678,2.2500016 Z"/>
  <path fill="#99f" d="M 10.083334,13.916667 H 6.9916675 L 6.3583343,15.874999 A 0.14583331,0.14583331 0 0 1 6.2000009,15.991666 H 4.6166678 c -0.091667,0 -0.1166666,-0.05 -0.091667,-0.15 L 7.2166674,8.1500007 c 0.025,-0.083333 0.05,-0.15 0.083333,-0.2583332 a 2.9108329,2.9108329 0 0 0 0.05,-0.5416666 0.08333332,0.08333332 0 0 1 0.066667,-0.091667 h 2.1666664 c 0.066667,0 0.1,0.025 0.1083333,0.066667 L 12.725,15.849999 c 0.025,0.09167 0,0.133334 -0.08333,0.133334 H 10.9 a 0.12583332,0.12583332 0 0 1 -0.133333,-0.09167 z M 7.4750008,12.258333 h 2.1166663 c -0.05,-0.175 -0.1166666,-0.383333 -0.1916666,-0.6 -0.075,-0.216666 -0.15,-0.466666 -0.225,-0.716666 -0.075,-0.25 -0.1583333,-0.508333 -0.2416666,-0.766667 C 8.8500005,9.9166672 8.7750005,9.6750005 8.708334,9.4333339 8.6416673,9.1916672 8.583334,8.983334 8.5250006,8.783334 H 8.508334 A 10.231665,10.231665 0 0 1 8.2250007,9.8583338 c -0.125,0.4000002 -0.25,0.8166662 -0.3833333,1.2333332 -0.1166667,0.425 -0.2416666,0.816666 -0.3666666,1.166666 z"/>
  <path fill="#99f" d="m 13.666667,15.866666 v -4.949999 c 0,-0.15 0,-0.325 -0.0083,-0.508333 -0.0083,-0.183334 -0.0083,-0.366667 -0.01667,-0.5333335 -0.0083,-0.1666667 -0.01667,-0.3249999 -0.025,-0.4249999 a 0.08333332,0.08333332 0 0 1 0.01667,-0.083333 0.14083331,0.14083331 0 0 1 0.08333,-0.025 h 1.341666 a 0.34583328,0.34583328 0 0 1 0.133334,0.025 0.12916665,0.12916665 0 0 1 0.06667,0.091667 c 0.01667,0.05 0.04167,0.1166666 0.05833,0.1833333 a 1.5908331,1.5908331 0 0 1 0.05,0.275 2.7683329,2.7683329 0 0 1 0.883332,-0.5166666 3.1974995,3.1974995 0 0 1 1.008334,-0.1666667 2.4858329,2.4858329 0 0 1 0.783333,0.125 1.9999997,1.9999997 0 0 1 1.266667,1.2333324 c 0.133333,0.341667 0.183333,0.791667 0.183333,1.333334 v 3.941666 c 0,0.08333 -0.03333,0.116667 -0.108333,0.116667 l -1.566667,0.01667 a 0.11499998,0.11499998 0 0 1 -0.133333,-0.1 v -3.766671 a 1.9524997,1.9524997 0 0 0 -0.158334,-0.725 0.91666651,0.91666651 0 0 0 -0.908333,-0.566666 1.6424998,1.6424998 0 0 0 -0.633333,0.116666 1.7499998,1.7499998 0 0 0 -0.5,0.316667 v 4.599999 c 0,0.08333 -0.03333,0.116667 -0.108333,0.116667 H 13.791667 A 0.10333332,0.10333332 0 0 1 13.675,15.899999 c -0.01667,-0.01667 -0.01667,-0.025 -0.0083,-0.03333 z"/>
</svg>
