<svg xmlns="http://www.w3.org/2000/svg" viewBox="0 0 24 24" width="24" height="24">
  <path fill="#00005b" d="M 5.5416677,2.2500016 H 18.458332 a 3.5383328,3.5383328 0 0 1 3.541666,3.5416661 V 18.208332 a 3.5383328,3.5383328 0 0 1 -3.541666,3.541666 H 5.5416677 A 3.5383328,3.5383328 0 0 1 2.0000016,18.208332 V 5.7916677 A 3.5383328,3.5383328 0 0 1 5.5416677,2.2500016 Z" />
  <path fill="#9999ff" d="M 7.0583341,16.033333 H 5.4583344 c -0.075,0 -0.1083333,-0.04167 -0.1083333,-0.116667 V 7.3750008 c 0,-0.083333 0.025,-0.1166667 0.083333,-0.1166667 0.3166666,-0.00833 0.5833332,-0.016667 0.8083332,-0.016667 l 0.6416666,-0.016667 c 0.2083333,-0.00833 0.4166666,-0.00833 0.6416665,-0.00833 h 0.7249999 c 0.7499999,0 1.3833331,0.1083333 1.8916667,0.3166666 a 2.5508329,2.5508329 0 0 1 1.175,0.9166665 c 0.275,0.391664 0.408333,0.8833306 0.408333,1.4666638 a 2.325833,2.325833 0 0 1 -0.216667,1 2.5308329,2.5308329 0 0 1 -0.591666,0.8 2.7991662,2.7991662 0 0 1 -0.875,0.541666 c 0.09167,0.116667 0.216667,0.291667 0.375,0.533334 0.158333,0.241666 0.341667,0.5 0.533333,0.791666 0.191667,0.291667 0.383333,0.583333 0.575,0.883333 0.191667,0.3 0.366667,0.566667 0.525,0.816667 0.158333,0.25 0.275,0.45 0.358333,0.591666 a 0.13083331,0.13083331 0 0 1 0.03333,0.108334 0.04666666,0.04666666 0 0 1 -0.05833,0.05 H 10.433334 A 0.49166659,0.49166659 0 0 1 10.316667,16.016666 0.22499996,0.22499996 0 0 1 10.25,15.958333 C 10.15,15.816666 10.025,15.624999 9.8833337,15.391666 9.741667,15.158333 9.5833337,14.9 9.4166671,14.616666 9.2500004,14.333333 9.0833338,14.05 8.9166672,13.775 8.7500005,13.5 8.6083339,13.25 8.4833339,13.025 a 0.75749988,0.75749988 0 0 0 -0.15,-0.175 A 0.30083329,0.30083329 0 0 0 8.1666673,12.8 H 7.1666674 v 3.124999 A 0.10083332,0.10083332 0 0 1 7.0583341,16.033333 Z M 7.1666674,11.2 h 1.0499999 a 2.6666662,2.6666662 0 0 0 0.8833332,-0.125 1.0958332,1.0958332 0 0 0 0.5666665,-0.4 1.0516665,1.0516665 0 0 0 0.2,-0.666666 c 0,-0.4083336 -0.15,-0.7083335 -0.4583333,-0.8916668 -0.3083332,-0.1833333 -0.7083332,-0.275 -1.2083331,-0.275 -0.2166666,0 -0.4166666,0 -0.5999999,0.00833 -0.1833333,0.00833 -0.3333333,0.00833 -0.4333333,0.016667 z" />
  <path fill="#9999ff" d="m 18.799999,9.4583338 v 5.0833322 c 0,0.225 0,0.425 0.0083,0.6 0.0083,0.175 0.01667,0.325 0.025,0.458333 0.0083,0.133334 0.025,0.241667 0.03333,0.325 0.0083,0.08333 -0.025,0.108334 -0.09167,0.108334 h -1.441667 a 0.15666664,0.15666664 0 0 1 -0.158333,-0.09167 c -0.01667,-0.06667 -0.03333,-0.133333 -0.05,-0.208333 a 0.87916653,0.87916653 0 0 1 -0.01667,-0.208334 2.3716663,2.3716663 0 0 1 -0.941667,0.516667 3.4858328,3.4858328 0 0 1 -0.925,0.125 A 2.7983329,2.7983329 0 0 1 14.333333,16.024999 1.7366664,1.7366664 0 0 1 13.625,15.566666 2.0774997,2.0774997 0 0 1 13.158333,14.758333 3.7983327,3.7983327 0 0 1 12.991667,13.575 V 9.4750004 A 0.09416665,0.09416665 0 0 1 13.075,9.3666671 h 1.675 a 0.09416665,0.09416665 0 0 1 0.108333,0.083333 v 3.9166659 c 0,0.366667 0.08333,0.658334 0.241667,0.866667 0.158333,0.208333 0.433333,0.316667 0.808333,0.316667 a 1.6574997,1.6574997 0 0 0 0.566666,-0.1 1.7641664,1.7641664 0 0 0 0.466667,-0.275 V 9.4583338 c 0,-0.066667 0.04167,-0.091667 0.116667,-0.091667 h 1.649999 a 0.07833332,0.07833332 0 0 1 0.09167,0.066667 z" />
</svg>
