<svg xmlns="http://www.w3.org/2000/svg" aria-hidden="true" viewBox="0 0 24 24">
  <path fill="#49021f" d="m5.5417 2.25h12.917a3.5383 3.5383 0 0 1 3.5417 3.5417v12.417a3.5383 3.5383 0 0 1-3.5417 3.5417h-12.917a3.5383 3.5383 0 0 1-3.5417-3.5417v-12.417a3.5383 3.5383 0 0 1 3.5417-3.5417z"/>
  <path fill="#f36" d="m9.2667 7.35v8.55c0 0.09167-0.041667 0.13333-0.11667 0.13333h-1.6333c-0.075 0-0.10833-0.04167-0.10833-0.13333v-8.55c0-0.075 0.041667-0.10833 0.11667-0.10833h1.625a0.094167 0.094167 0 0 1 0.10833 0.083333 0.030833 0.030833 0 0 1 0.00833 0.025z"/>
  <path fill="#f36" d="m14.067 16.167a4.1433 4.1433 0 0 1-1.7917-0.375 2.905 2.905 0 0 1-1.2583-1.1333c-0.30833-0.50833-0.45833-1.1417-0.45833-1.9a3.4225 3.4225 0 0 1 0.45833-1.7583 3.4608 3.4608 0 0 1 1.325-1.2917c0.58333-0.325 1.2833-0.48333 2.1083-0.48333a1.4883 1.4883 0 0 1 0.175 0.00833c0.075 0.00833 0.15833 0.00833 0.25833 0.016667v-2.6333c0-0.058333 0.025-0.091667 0.08333-0.091667h1.6917a0.075 0.075 0 0 1 0.08333 0.058333v7.95c0 0.15 0.0083 0.31667 0.01667 0.5 0.0083 0.18333 0.025 0.34167 0.03333 0.48333a0.135 0.135 0 0 1-0.08333 0.13333 6.3642 6.3642 0 0 1-1.3583 0.4 7.2783 7.2783 0 0 1-1.2833 0.11667zm0.81667-1.6667v-3.6667a2.1317 2.1317 0 0 0-0.225-0.04167c-0.091667-0.00833-0.18333-0.016664-0.275-0.016664a2.0542 2.0542 0 0 0-0.94167 0.21667 1.8683 1.8683 0 0 0-0.70833 0.61667c-0.18333 0.26667-0.275 0.625-0.275 1.0583a2.3225 2.3225 0 0 0 0.14167 0.85833 1.6283 1.6283 0 0 0 0.375 0.59167 1.44 1.44 0 0 0 0.56667 0.33333 2.1817 2.1817 0 0 0 0.69167 0.10833c0.125 0 0.24167-0.0083 0.35-0.01667a0.71 0.71 0 0 0 0.3-0.04167z"/>
</svg>
