<svg xmlns="http://www.w3.org/2000/svg" viewBox="0 0 24 24" aria-hidden="true">
  <path fill="#00005b" d="M 5.5416677,2.2500016 H 18.458332 a 3.5383328,3.5383328 0 0 1 3.541666,3.5416661 V 18.208332 a 3.5383328,3.5383328 0 0 1 -3.541666,3.541666 H 5.5416677 A 3.5383328,3.5383328 0 0 1 2.0000016,18.208332 V 5.7916677 A 3.5383328,3.5383328 0 0 1 5.5416677,2.2500016 Z"/>
  <path fill="#99f" d="M 6.7500008,15.924999 V 7.3500008 c 0,-0.058333 0.025,-0.091667 0.083333,-0.091667 0.1416666,0 0.2749999,0 0.4666666,-0.00833 0.1916666,-0.00833 0.4083332,-0.00833 0.6333332,-0.016667 0.2249999,-0.00833 0.4666666,-0.00833 0.7249999,-0.016667 0.2583333,-0.00833 0.5083332,-0.00833 0.7583332,-0.00833 0.6833333,0 1.2500003,0.083333 1.7166663,0.2583333 A 2.9758329,2.9758329 0 0 1 12.25,8.1500007 2.6533329,2.6533329 0 0 1 12.858333,9.1000005 3.1899995,3.1899995 0 0 1 13.05,10.183334 q 0,1.074999 -0.5,1.774999 A 2.8549995,2.8549995 0 0 1 11.208333,12.975 c -0.566666,0.208333 -1.191666,0.283333 -1.8749992,0.283333 -0.2,0 -0.3333333,0 -0.4166666,-0.0083 -0.083333,-0.0083 -0.2,-0.0083 -0.3583333,-0.0083 v 2.674999 a 0.10333332,0.10333332 0 0 1 -0.091667,0.116667 H 6.8500008 c -0.066667,0 -0.1,-0.03333 -0.1,-0.108334 z M 8.5666672,8.8666672 v 2.7999998 c 0.1166667,0.0083 0.225,0.01667 0.325,0.01667 h 0.4416666 a 3.1124995,3.1124995 0 0 0 0.9583332,-0.15 1.4333331,1.4333331 0 0 0 0.683333,-0.44167 C 11.15,10.883334 11.233333,10.6 11.233333,10.233334 A 1.3716664,1.3716664 0 0 0 11.041667,9.4916671 1.2083331,1.2083331 0 0 0 10.458334,9.0166672 2.4449996,2.4449996 0 0 0 9.4750004,8.8500005 c -0.2166666,0 -0.4083333,0 -0.5666666,0.00833 a 1.908333,1.908333 0 0 0 -0.3416666,0.00833 z"/>
  <path fill="#99f" d="m 14.216666,9.3500005 h 1.458333 a 0.18749997,0.18749997 0 0 1 0.175,0.1333333 0.8458332,0.8458332 0 0 1 0.05,0.2083333 c 0.01667,0.083333 0.03333,0.1749999 0.04167,0.2583333 0.0083,0.083334 0.01667,0.1916666 0.01667,0.2999996 a 3.1016662,3.1016662 0 0 1 0.891666,-0.7166662 2.5833329,2.5833329 0 0 1 1.266667,-0.325 0.10333332,0.10333332 0 0 1 0.116666,0.091667 v 1.6583332 c 0,0.06667 -0.04167,0.09167 -0.133333,0.09167 a 3.6233328,3.6233328 0 0 0 -0.9,0.08333 3.4291661,3.4291661 0 0 0 -0.7,0.224999 1.2958331,1.2958331 0 0 0 -0.425,0.308334 v 4.249999 c 0,0.08333 -0.03333,0.116667 -0.108333,0.116667 H 14.325 a 0.11499998,0.11499998 0 0 1 -0.133334,-0.1 v -4.65 c 0,-0.199999 0,-0.408333 -0.0083,-0.624999 -0.0083,-0.216667 -0.0083,-0.433334 -0.01667,-0.65 0,-0.1916666 -0.01667,-0.3749999 -0.03333,-0.5666666 a 0.07666665,0.07666665 0 0 1 0.05833,-0.091667 c 0,-0.00833 0.01667,-0.00833 0.025,0 z"/>
</svg>
