<svg xmlns="http://www.w3.org/2000/svg" aria-hidden="true" viewBox="0 0 24 24">
  <path fill="#00005b" d="m5.5417 2.25h12.917a3.5383 3.5383 0 0 1 3.5417 3.5417v12.417a3.5383 3.5383 0 0 1-3.5417 3.5417h-12.917a3.5383 3.5383 0 0 1-3.5417-3.5417v-12.417a3.5383 3.5383 0 0 1 3.5417-3.5417z"/>
  <path fill="#99f" d="m7.0583 16.033h-1.6c-0.075 0-0.10833-0.04167-0.10833-0.11667v-8.5417c0-0.083333 0.025-0.11667 0.083333-0.11667 0.31667-0.00833 0.58333-0.016667 0.80833-0.016667l0.64167-0.016667c0.20833-0.00833 0.41667-0.00833 0.64167-0.00833h0.725c0.75 0 1.3833 0.10833 1.8917 0.31667a2.5508 2.5508 0 0 1 1.175 0.91667c0.275 0.39166 0.40833 0.88333 0.40833 1.4667a2.3258 2.3258 0 0 1-0.21667 1 2.5308 2.5308 0 0 1-0.59167 0.8 2.7992 2.7992 0 0 1-0.875 0.54167c0.09167 0.11667 0.21667 0.29167 0.375 0.53333 0.15833 0.24167 0.34167 0.5 0.53333 0.79167 0.19167 0.29167 0.38333 0.58333 0.575 0.88333s0.36667 0.56667 0.525 0.81667 0.275 0.45 0.35833 0.59167a0.13083 0.13083 0 0 1 0.03333 0.10833 0.046667 0.046667 0 0 1-0.05833 0.05h-1.95a0.49167 0.49167 0 0 1-0.11667-0.016667 0.225 0.225 0 0 1-0.066667-0.058333c-0.1-0.14167-0.225-0.33333-0.36667-0.56667-0.14167-0.23333-0.3-0.49167-0.46667-0.775-0.16667-0.28333-0.33333-0.56667-0.5-0.84167-0.16667-0.275-0.30833-0.525-0.43333-0.75a0.7575 0.7575 0 0 0-0.15-0.175 0.30083 0.30083 0 0 0-0.16667-0.05h-1v3.125a0.10083 0.10083 0 0 1-0.10833 0.10833zm0.10833-4.8333h1.05a2.6667 2.6667 0 0 0 0.88333-0.125 1.0958 1.0958 0 0 0 0.56667-0.4 1.0517 1.0517 0 0 0 0.2-0.66667c0-0.40833-0.15-0.70833-0.45833-0.89167-0.30833-0.18333-0.70833-0.275-1.2083-0.275-0.21667 0-0.41667 0-0.6 0.00833s-0.33333 0.00833-0.43333 0.016667z"/>
  <path fill="#99f" d="m18.8 9.4583v5.0833c0 0.225 0 0.425 0.0083 0.6s0.01667 0.325 0.025 0.45833c0.0083 0.13333 0.025 0.24167 0.03333 0.325 0.0083 0.08333-0.025 0.10833-0.09167 0.10833h-1.4417a0.15667 0.15667 0 0 1-0.15833-0.09167c-0.01667-0.06667-0.03333-0.13333-0.05-0.20833a0.87917 0.87917 0 0 1-0.01667-0.20833 2.3717 2.3717 0 0 1-0.94167 0.51667 3.4858 3.4858 0 0 1-0.925 0.125 2.7983 2.7983 0 0 1-0.90829-0.14166 1.7367 1.7367 0 0 1-0.70833-0.45833 2.0775 2.0775 0 0 1-0.46667-0.80833 3.7983 3.7983 0 0 1-0.16667-1.1833v-4.1a0.094167 0.094167 0 0 1 0.083333-0.10833h1.675a0.094167 0.094167 0 0 1 0.10833 0.083333v3.9167c0 0.36667 0.08333 0.65833 0.24167 0.86667 0.15833 0.20833 0.43333 0.31667 0.80833 0.31667a1.6575 1.6575 0 0 0 0.56667-0.1 1.7642 1.7642 0 0 0 0.46667-0.275v-4.7167c0-0.066667 0.04167-0.091667 0.11667-0.091667h1.65a0.078333 0.078333 0 0 1 0.09167 0.066667z"/>
</svg>
