<svg xmlns="http://www.w3.org/2000/svg" aria-hidden="true" viewBox="0 0 24 24">
  <path fill="#00005b" d="m5.5417 2.25h12.917a3.5383 3.5383 0 0 1 3.5417 3.5417v12.417a3.5383 3.5383 0 0 1-3.5417 3.5417h-12.917a3.5383 3.5383 0 0 1-3.5417-3.5417v-12.417a3.5383 3.5383 0 0 1 3.5417-3.5417z"/>
  <path fill="#99f" d="m6.75 15.925v-8.575c0-0.058333 0.025-0.091667 0.083333-0.091667 0.14167 0 0.275 0 0.46667-0.00833 0.19167-0.00833 0.40833-0.00833 0.63333-0.016667 0.225-0.00833 0.46667-0.00833 0.725-0.016667 0.25833-0.00833 0.50833-0.00833 0.75833-0.00833 0.68333 0 1.25 0.083333 1.7167 0.25833a2.9758 2.9758 0 0 1 1.1167 0.68333 2.6533 2.6533 0 0 1 0.60833 0.95 3.19 3.19 0 0 1 0.19167 1.0833q0 1.075-0.5 1.775a2.855 2.855 0 0 1-1.3417 1.0167c-0.56667 0.20833-1.1917 0.28333-1.875 0.28333-0.2 0-0.33333 0-0.41667-0.0083-0.083333-0.0083-0.2-0.0083-0.35833-0.0083v2.675a0.10333 0.10333 0 0 1-0.091667 0.11667h-1.6167c-0.066667 0-0.1-0.03333-0.1-0.10833zm1.8167-7.0583v2.8c0.11667 0.0083 0.225 0.01667 0.325 0.01667h0.44167a3.1125 3.1125 0 0 0 0.95833-0.15 1.4333 1.4333 0 0 0 0.68333-0.44167c0.175-0.20833 0.25833-0.49167 0.25833-0.85833a1.3717 1.3717 0 0 0-0.19167-0.74167 1.2083 1.2083 0 0 0-0.58333-0.475 2.445 2.445 0 0 0-0.98333-0.16667c-0.21667 0-0.40833 0-0.56667 0.00833a1.9083 1.9083 0 0 0-0.34167 0.00833z"/>
  <path fill="#99f" d="m14.217 9.35h1.4583a0.1875 0.1875 0 0 1 0.175 0.13333 0.84583 0.84583 0 0 1 0.05 0.20833c0.01667 0.083333 0.03333 0.175 0.04167 0.25833 0.0083 0.083334 0.01667 0.19167 0.01667 0.3a3.1017 3.1017 0 0 1 0.89167-0.71667 2.5833 2.5833 0 0 1 1.2667-0.325 0.10333 0.10333 0 0 1 0.11667 0.091667v1.6583c0 0.06667-0.04167 0.09167-0.13333 0.09167a3.6233 3.6233 0 0 0-0.9 0.08333 3.4292 3.4292 0 0 0-0.7 0.225 1.2958 1.2958 0 0 0-0.425 0.30833v4.25c0 0.08333-0.03333 0.11667-0.10833 0.11667h-1.6417a0.115 0.115 0 0 1-0.13333-0.1v-4.65c0-0.2 0-0.40833-0.0083-0.625-0.0083-0.21667-0.0083-0.43333-0.01667-0.65 0-0.19167-0.01667-0.375-0.03333-0.56667a0.076667 0.076667 0 0 1 0.05833-0.091667c0-0.00833 0.01667-0.00833 0.025 0z"/>
</svg>
