<svg xmlns="http://www.w3.org/2000/svg" viewBox="0 0 24 24" aria-hidden="true">
  <path fill="#013301" d="M 5.5416677,2.2500016 H 18.458332 a 3.5383328,3.5383328 0 0 1 3.541666,3.5416661 V 18.208332 a 3.5383328,3.5383328 0 0 1 -3.541666,3.541666 H 5.5416677 A 3.5383328,3.5383328 0 0 1 2.0000016,18.208332 V 5.7916677 A 3.5383328,3.5383328 0 0 1 5.5416677,2.2500016 Z"/>
  <path fill="#3f6" d="M 11,13.916666 H 7.9000007 L 7.2666674,15.883333 A 0.14583331,0.14583331 0 0 1 7.1083341,15.999999 H 5.5416677 c -0.091667,0 -0.1166666,-0.05 -0.091667,-0.15 L 8.133334,8.1500007 c 0.025,-0.083333 0.05,-0.1583334 0.083333,-0.2583333 a 2.9108329,2.9108329 0 0 0 0.05,-0.5416666 0.08333332,0.08333332 0 0 1 0.066667,-0.091667 h 2.158333 c 0.06667,0 0.1,0.025 0.108333,0.066667 l 3.041666,8.5416652 c 0.025,0.09167 0,0.133333 -0.08333,0.133333 H 11.81667 a 0.12583331,0.12583331 0 0 1 -0.133334,-0.09167 z M 8.3833339,12.258333 H 10.5 c -0.05,-0.175 -0.116666,-0.383333 -0.191666,-0.6 -0.075,-0.216666 -0.15,-0.466666 -0.225,-0.716666 -0.075,-0.25 -0.1583337,-0.508333 -0.241667,-0.766667 C 9.7583337,9.916667 9.6833337,9.6750004 9.616667,9.4333338 9.5500004,9.1916672 9.4916671,8.9833339 9.4333337,8.7833339 H 9.4166671 A 10.231665,10.231665 0 0 1 9.1333338,9.8583337 c -0.125,0.4000003 -0.25,0.8166663 -0.3833333,1.2333333 -0.1166666,0.425 -0.2416666,0.816666 -0.3666666,1.166666 z"/>
  <path fill="#3f6" d="m 14.533333,9.3333338 h 1.458333 a 0.18749997,0.18749997 0 0 1 0.175,0.1333333 0.93499985,0.93499985 0 0 1 0.06667,0.2166666 c 0.01667,0.083333 0.03333,0.175 0.04167,0.2583333 0.0083,0.083333 0.01667,0.191667 0.01667,0.3 a 3.1016662,3.1016662 0 0 1 0.891667,-0.7166666 2.305833,2.305833 0 0 1 1.191666,-0.2999999 0.10333332,0.10333332 0 0 1 0.116667,0.091667 V 10.975 c 0,0.06667 -0.04167,0.09167 -0.133334,0.09167 a 3.1233328,3.1233328 0 0 0 -0.833333,0.05833 3.4291661,3.4291661 0 0 0 -0.7,0.225 c -0.191666,0.09167 -0.4,0.191667 -0.5,0.308333 v 4.225 c 0,0.08333 -0.03333,0.116666 -0.108333,0.116666 H 14.65 a 0.11499998,0.11499998 0 0 1 -0.133334,-0.1 v -4.616666 c 0,-0.199999 0,-0.408333 -0.0083,-0.624999 -0.0083,-0.216667 -0.0083,-0.433334 -0.01667,-0.65 -0.0083,-0.1916669 -0.025,-0.3916669 -0.05,-0.5833335 A 0.07666665,0.07666665 0 0 1 14.5,9.3333338 Z"/>
</svg>
