<svg xmlns="http://www.w3.org/2000/svg" aria-hidden="true" viewBox="0 0 24 24">
  <path fill="#000b1d" d="m5.5417 2.25h12.917a3.5383 3.5383 0 0 1 3.5417 3.5417v12.417a3.5383 3.5383 0 0 1-3.5417 3.5417h-12.917a3.5383 3.5383 0 0 1-3.5417-3.5417v-12.417a3.5383 3.5383 0 0 1 3.5417-3.5417z"/>
  <path fill="#fff" d="m6.5917 15.933-0.00833-8.5167c0-0.083333 0.025-0.125 0.083333-0.13333 0.15-0.00833 0.38333-0.016667 0.7-0.016667s0.61667-0.00833 0.98333-0.016667c0.36667-0.00833 0.7-0.00833 1.0083-0.00833 0.73333 0 1.3333 0.05 1.7667 0.21667a2.6233 2.6233 0 0 1 1 0.60833 1.9542 1.9542 0 0 1 0.49167 0.775 2.465 2.465 0 0 1 0.11667 0.74167 2.12 2.12 0 0 1-0.15834 0.78333 1.825 1.825 0 0 1-0.325 0.56667 1.51 1.51 0 0 1-0.35833 0.33333 2.8883 2.8883 0 0 1 0.53333 0.36667 2.0633 2.0633 0 0 1 0.5 0.66667 2.1667 2.1667 0 0 1 0.23333 1.0167 2.4217 2.4217 0 0 1-0.46667 1.4417 2.8675 2.8675 0 0 1-1.2917 0.95833 5.1667 5.1667 0 0 1-2.0083 0.35833h-0.88333c-0.28333 0-0.51667 0-0.75833-0.0083s-0.44167-0.0083-0.61667-0.01667c-0.175-0.0083-0.325-0.0083-0.45-0.0083-0.066667 0-0.091667-0.04167-0.091667-0.10833zm1.8083-7.1083 0.00833 1.8583h0.875c0.24167 0 0.475 0.0083 0.70833 0.01667a2.5433 2.5433 0 0 1 0.5 0.05 1.3433 1.3433 0 0 0 0.29167-0.35833 1.0167 1.0167 0 0 0 0.13333-0.51667 1.0475 1.0475 0 0 0-0.2-0.61667 1.0833 1.0833 0 0 0-0.5-0.34167 2.6483 2.6483 0 0 0-0.85-0.10834h-0.39167c-0.11667 0-0.19167 0-0.28333 0.00833-0.091667 0.00833-0.18333 0.00833-0.29167 0.00833zm0.00833 3.4167v2.2333c0.15 0.0083 0.26667 0.01667 0.425 0.01667s0.33333 0.0083 0.55 0.0083a3.5108 3.5108 0 0 0 0.975-0.11667 1.2658 1.2658 0 0 0 0.63333-0.375 1 1 0 0 0 0.25834-0.6333 1.105 1.105 0 0 0-0.225-0.63333c-0.11667-0.175-0.33333-0.325-0.64167-0.40833a2.8267 2.8267 0 0 0-0.36667-0.06667 4.8567 4.8567 0 0 0-0.49167-0.025z"/>
  <path fill="#fff" d="m14.35 9.3333h1.4583a0.1875 0.1875 0 0 1 0.175 0.13333 0.52583 0.52583 0 0 1 0.06667 0.19167c0.01667 0.083333 0.03333 0.175 0.04167 0.25833 0.0083 0.083333 0.01667 0.225 0.01667 0.33333a3.215 3.215 0 0 1 0.89167-0.75c0.35833-0.2 0.74167-0.25 1.2083-0.25a0.10333 0.10333 0 0 1 0.11667 0.091667v1.6333c0 0.06667-0.04167 0.09167-0.13333 0.09167a3.25 3.25 0 0 0-0.85 0.05833 3.4292 3.4292 0 0 0-0.7 0.225 1.5833 1.5833 0 0 0-0.49167 0.30833v4.225c0 0.08333-0.03333 0.11667-0.10833 0.11667h-1.5833a0.115 0.115 0 0 1-0.13333-0.1v-4.6167c0-0.2 0-0.40833-0.0083-0.625-0.0083-0.21667-0.0083-0.43333-0.01667-0.65-0.0083-0.19167-0.025-0.39167-0.05-0.58333a0.076667 0.076667 0 0 1 0.05833-0.091667z"/>
</svg>
