<svg xmlns="http://www.w3.org/2000/svg" aria-hidden="true" viewBox="0 0 24 24">
  <path fill="#470137" d="m5.5417 2.25h12.917a3.5383 3.5383 0 0 1 3.5417 3.5417v12.417a3.5383 3.5383 0 0 1-3.5417 3.5417h-12.917a3.5383 3.5383 0 0 1-3.5417-3.5417v-12.417a3.5383 3.5383 0 0 1 3.5417-3.5417z"/>
  <path fill="#ff61f6" d="m12.517 7.375-2.5 4.125 2.6667 4.375a0.14333 0.14333 0 0 1 0.01667 0.1c-0.0083 0.03333-0.04167 0.0083-0.09167 0.01667h-1.9083c-0.13333 0-0.225-0.0083-0.28333-0.09167-0.175-0.35-0.35833-0.69167-0.53333-1.0417-0.175-0.35-0.36667-0.69167-0.56667-1.05s-0.4-0.71667-0.6-1.0833h-0.016667c-0.175 0.35833-0.36667 0.71667-0.55833 1.075-0.19167 0.35833-0.38333 0.71667-0.56667 1.0667s-0.38333 0.70833-0.575 1.05c-0.033333 0.08333-0.1 0.09167-0.19167 0.09167h-1.8333c-0.033333 0-0.058333 0.01667-0.058333-0.025a0.11583 0.11583 0 0 1 0.016667-0.09167l2.5917-4.25-2.525-4.275c-0.025-0.033333-0.033333-0.066667-0.016667-0.083333a0.096667 0.096667 0 0 1 0.083333-0.033333h1.8917a0.49167 0.49167 0 0 1 0.11667 0.016667 0.23667 0.23667 0 0 1 0.083333 0.075c0.15833 0.35833 0.34167 0.71667 0.53333 1.075 0.19167 0.35833 0.39167 0.70833 0.6 1.0583 0.20833 0.35 0.38333 0.7 0.55833 1.0583h0.016667c0.175-0.36667 0.35833-0.725 0.54167-1.075 0.18333-0.35 0.375-0.7 0.56667-1.05 0.19167-0.35 0.375-0.70833 0.55833-1.05a0.14167 0.14167 0 0 1 0.05-0.083333 0.15917 0.15917 0 0 1 0.10833-0.016667h1.7583a0.076667 0.076667 0 0 1 0.09167 0.058333c0.0083 0.00833-0.0083 0.041667-0.025 0.058333z"/>
  <path fill="#ff61f6" d="m16.367 16.167a4.1433 4.1433 0 0 1-1.7917-0.375 2.905 2.905 0 0 1-1.2583-1.1333c-0.30833-0.50833-0.45833-1.1417-0.45833-1.9a3.4225 3.4225 0 0 1 0.45833-1.7583 3.4608 3.4608 0 0 1 1.325-1.2917c0.58333-0.325 1.2833-0.48333 2.1083-0.48333a1.4883 1.4883 0 0 1 0.175 0.00833c0.075 0.00833 0.15833 0.00833 0.25833 0.016667v-2.6333c0-0.058333 0.025-0.091667 0.08333-0.091667h1.6917a0.075 0.075 0 0 1 0.08333 0.058333v7.95c0 0.15 0.0083 0.31667 0.01667 0.5 0.0083 0.18333 0.025 0.34167 0.03333 0.48333a0.135 0.135 0 0 1-0.08333 0.13333 6.3642 6.3642 0 0 1-1.3583 0.4 7.3508 7.3508 0 0 1-1.2833 0.11667zm0.81667-1.6667v-3.6667a2.1317 2.1317 0 0 0-0.225-0.04167c-0.09167-0.0083-0.18333-0.01667-0.275-0.01667a2.0542 2.0542 0 0 0-0.94167 0.21667 1.8683 1.8683 0 0 0-0.70833 0.61667c-0.18333 0.26667-0.275 0.625-0.275 1.0583a2.3225 2.3225 0 0 0 0.14167 0.85834 1.6283 1.6283 0 0 0 0.375 0.59167 1.44 1.44 0 0 0 0.56667 0.33333 2.1817 2.1817 0 0 0 0.69167 0.10833c0.125 0 0.24167-0.0083 0.35-0.01667a0.72917 0.72917 0 0 0 0.3-0.04167z"/>
</svg>
