<svg xmlns="http://www.w3.org/2000/svg" viewBox="0 0 24 24" aria-hidden="true">
  <path fill="#470137" d="M 5.5416677,2.2500016 H 18.458332 a 3.5383328,3.5383328 0 0 1 3.541666,3.5416661 V 18.208332 a 3.5383328,3.5383328 0 0 1 -3.541666,3.541666 H 5.5416677 A 3.5383328,3.5383328 0 0 1 2.0000016,18.208332 V 5.7916677 A 3.5383328,3.5383328 0 0 1 5.5416677,2.2500016 Z"/>
  <path fill="#ff61f6" d="m 12.516667,7.3750008 -2.5,4.1249992 2.666666,4.374999 a 0.14333331,0.14333331 0 0 1 0.01667,0.1 c -0.0083,0.03333 -0.04167,0.0083 -0.09167,0.01667 H 10.7 c -0.133333,0 -0.225,-0.0083 -0.283333,-0.09167 -0.175,-0.35 -0.358333,-0.691666 -0.5333333,-1.041666 -0.175,-0.35 -0.3666666,-0.691667 -0.5666666,-1.05 C 9.1166671,13.45 8.9166672,13.091667 8.7166672,12.725 H 8.7000005 C 8.5250006,13.083333 8.3333339,13.441666 8.1416673,13.8 7.9500006,14.158333 7.758334,14.516666 7.5750007,14.866666 c -0.1833333,0.35 -0.3833333,0.708333 -0.5749999,1.05 -0.033333,0.08333 -0.1,0.09167 -0.1916666,0.09167 H 4.9750011 c -0.033333,0 -0.058333,0.01667 -0.058333,-0.025 a 0.11583331,0.11583331 0 0 1 0.016667,-0.09167 L 7.5250007,11.641667 5.0000011,7.3666674 c -0.025,-0.033333 -0.033333,-0.066667 -0.016667,-0.083333 a 0.09666665,0.09666665 0 0 1 0.083333,-0.033333 h 1.8916663 a 0.49166659,0.49166659 0 0 1 0.1166667,0.016667 0.23666663,0.23666663 0 0 1 0.083333,0.075 C 7.3166674,7.7000007 7.5000007,8.058334 7.6916674,8.4166673 7.883334,8.7750006 8.083334,9.1250005 8.2916673,9.4750004 c 0.2083333,0.35 0.3833332,0.6999996 0.5583332,1.0583336 h 0.016667 C 9.0416674,10.166667 9.2250007,9.8083337 9.408334,9.4583338 c 0.1833334,-0.35 0.375,-0.6999999 0.5666666,-1.0499999 C 10.166667,8.058334 10.35,7.7000007 10.533334,7.3583341 a 0.14166664,0.14166664 0 0 1 0.05,-0.083333 0.15916664,0.15916664 0 0 1 0.108333,-0.016667 H 12.45 a 0.07666665,0.07666665 0 0 1 0.09167,0.058333 c 0.0083,0.00833 -0.0083,0.041667 -0.025,0.058333 z"/>
  <path fill="#ff61f6" d="m 16.366666,16.166666 a 4.1433327,4.1433327 0 0 1 -1.791666,-0.375 2.9049995,2.9049995 0 0 1 -1.258334,-1.133333 c -0.308333,-0.508333 -0.458333,-1.141667 -0.458333,-1.9 A 3.4224995,3.4224995 0 0 1 13.316666,11 a 3.4608328,3.4608328 0 0 1 1.325,-1.2916663 c 0.583333,-0.3249999 1.283333,-0.4833332 2.108333,-0.4833332 a 1.4883331,1.4883331 0 0 1 0.175,0.00833 c 0.075,0.00833 0.158334,0.00833 0.258334,0.016667 V 6.6166676 c 0,-0.058333 0.025,-0.091667 0.08333,-0.091667 h 1.691666 a 0.07499999,0.07499999 0 0 1 0.08333,0.058333 v 7.9499984 c 0,0.15 0.0083,0.316667 0.01667,0.5 0.0083,0.183333 0.025,0.341667 0.03333,0.483333 a 0.13499998,0.13499998 0 0 1 -0.08333,0.133333 6.3641656,6.3641656 0 0 1 -1.358333,0.4 7.3508322,7.3508322 0 0 1 -1.283333,0.116667 z M 17.183333,14.5 v -3.666666 a 2.1316663,2.1316663 0 0 0 -0.225,-0.04167 c -0.09167,-0.0083 -0.183334,-0.01667 -0.275,-0.01667 a 2.0541663,2.0541663 0 0 0 -0.941667,0.216667 1.868333,1.868333 0 0 0 -0.708333,0.616666 c -0.183333,0.266667 -0.275,0.625 -0.275,1.058334 A 2.3224996,2.3224996 0 0 0 14.9,13.525 a 1.6283331,1.6283331 0 0 0 0.374999,0.591666 1.4399998,1.4399998 0 0 0 0.566667,0.333334 2.1816663,2.1816663 0 0 0 0.691667,0.108333 c 0.125,0 0.241666,-0.0083 0.35,-0.01667 a 0.72916655,0.72916655 0 0 0 0.3,-0.04167 z"/>
</svg>
