<svg xmlns="http://www.w3.org/2000/svg" viewBox="0 0 24 24" width="24" height="24">
  <path fill="#00005b" d="M 5.5416677,2.2500016 H 18.458332 a 3.5383328,3.5383328 0 0 1 3.541666,3.5416661 V 18.208332 a 3.5383328,3.5383328 0 0 1 -3.541666,3.541666 H 5.5416677 A 3.5383328,3.5383328 0 0 1 2.0000016,18.208332 V 5.7916677 A 3.5383328,3.5383328 0 0 1 5.5416677,2.2500016 Z" />
  <path fill="#9999ff" d="M 7.1333341,15.924999 V 7.3500008 c 0,-0.058333 0.025,-0.091667 0.083333,-0.091667 0.1416667,0 0.3166666,0 0.5083333,-0.00833 0.1916666,-0.00833 0.4083333,-0.00833 0.6333332,-0.016667 0.225,-0.00833 0.4666666,-0.00833 0.7249999,-0.016667 0.2583333,-0.00833 0.5083333,-0.00833 0.7583332,-0.00833 0.6833333,0 1.2500003,0.083333 1.7166663,0.2583333 A 2.9758329,2.9758329 0 0 1 12.675,8.1500007 2.6533329,2.6533329 0 0 1 13.283333,9.1000005 3.1899995,3.1899995 0 0 1 13.475,10.183334 q 0,1.074999 -0.5,1.774999 A 2.8549995,2.8549995 0 0 1 11.633333,12.975 5.3424991,5.3424991 0 0 1 9.7583337,13.291667 c -0.2,0 -0.3333333,0 -0.4166666,-0.0083 -0.083333,-0.0083 -0.2,-0.0083 -0.3583333,-0.0083 v 2.641666 A 0.10333332,0.10333332 0 0 1 8.8916668,16.0334 h -1.666666 c -0.066667,0 -0.091667,-0.03333 -0.091667,-0.108334 z M 8.9833338,8.8666672 v 2.7749998 c 0.1166667,0.0083 0.225,0.01667 0.325,0.01667 H 9.7500004 A 3.0983328,3.0983328 0 0 0 10.708334,11.525 1.4333331,1.4333331 0 0 0 11.391667,11.083334 C 11.566667,10.875 11.65,10.591667 11.65,10.225 A 1.3716664,1.3716664 0 0 0 11.458333,9.4833338 1.2083331,1.2083331 0 0 0 10.875,9.0083339 2.4449996,2.4449996 0 0 0 9.891667,8.8416672 c -0.2166666,0 -0.4083333,0 -0.5666666,0.00833 a 2.7099996,2.7099996 0 0 0 -0.3416666,0.016667 z" />
  <path fill="#9999ff" d="M 14.225,14.3 V 6.6250009 c 0,-0.075 0.04167,-0.1083333 0.116666,-0.1083333 h 1.625 c 0.08333,0 0.116667,0.033333 0.116667,0.1083333 v 7.5166651 q 0,0.2875 0.1,0.4 c 0.06667,0.08333 0.183333,0.116667 0.341666,0.116667 A 0.51249992,0.51249992 0 0 0 16.641666,14.65 c 0.025,-0.0083 0.06667,-0.0083 0.116667,-0.01667 a 0.07499999,0.07499999 0 0 1 0.04167,0.0083 0.13333331,0.13333331 0 0 1 0.01667,0.08333 v 1.149999 a 0.47499992,0.47499992 0 0 1 -0.0083,0.108334 0.11999998,0.11999998 0 0 1 -0.05833,0.05 1.6266664,1.6266664 0 0 1 -0.333333,0.08333 3.4724994,3.4724994 0 0 1 -0.508333,0.03333 2.2191663,2.2191663 0 0 1 -0.866667,-0.158333 1.1666665,1.1666665 0 0 1 -0.6,-0.566667 C 14.3,15.175 14.225,14.791666 14.225,14.3 Z" />
</svg>
