<svg xmlns="http://www.w3.org/2000/svg" viewBox="0 0 24 24" width="24" height="24">
  <path fill="#000b1d" d="M 5.5416677,2.2500016 H 18.458332 a 3.5383328,3.5383328 0 0 1 3.541666,3.5416661 V 18.208332 a 3.5383328,3.5383328 0 0 1 -3.541666,3.541666 H 5.5416677 A 3.5383328,3.5383328 0 0 1 2.0000016,18.208332 V 5.7916677 A 3.5383328,3.5383328 0 0 1 5.5416677,2.2500016 Z" />
  <path fill="#ffffff" d="M 5.5333344,15.908333 V 7.3916674 c 0,-0.083333 0.025,-0.1249999 0.083333,-0.1333333 0.15,-0.00833 0.3833333,-0.016667 0.6999999,-0.016667 0.3166666,0 0.6499999,-0.00833 1.0166665,-0.016667 0.3666666,-0.00833 0.6999999,-0.00833 1.0083332,-0.00833 0.7333332,0 1.3166664,0.083333 1.75,0.2416666 a 2.6233329,2.6233329 0 0 1 1,0.6083332 1.898333,1.898333 0 0 1 0.466666,0.7749999 2.4649996,2.4649996 0 0 1 0.116667,0.7416666 2.0949997,2.0949997 0 0 1 -0.133333,0.7833336 1.8249997,1.8249997 0 0 1 -0.325,0.566667 1.5099998,1.5099998 0 0 1 -0.358333,0.333333 2.8883329,2.8883329 0 0 1 0.533333,0.366666 2.063333,2.063333 0 0 1 0.5,0.666667 2.3266663,2.3266663 0 0 1 0.216666,1.033333 2.3749996,2.3749996 0 0 1 -0.45,1.425 2.8674995,2.8674995 0 0 1 -1.291666,0.958333 c -0.5583336,0.225 -1.2250002,0.341667 -2.0083334,0.341667 H 7.4750007 c -0.2833333,0 -0.5416666,0 -0.7749999,-0.0083 -0.2333332,-0.0083 -0.4416665,-0.0083 -0.6166665,-0.01667 -0.175,-0.0083 -0.325,-0.0083 -0.4499999,-0.0083 -0.066667,0 -0.1,-0.04167 -0.1,-0.116666 z m 1.808333,-7.0916658 v 1.8666668 h 0.9083332 c 0.2416666,0 0.4749999,0.0083 0.7083332,0.01667 A 2.5433329,2.5433329 0 0 1 9.4583337,10.75 1.3433331,1.3433331 0 0 0 9.7500004,10.391667 1.1849998,1.1849998 0 0 0 9.866667,9.8583337 0.94999985,0.94999985 0 0 0 9.691667,9.2666671 1.0833332,1.0833332 0 0 0 9.1916671,8.9250005 2.6349996,2.6349996 0 0 0 8.3500006,8.8083339 H 7.958334 c -0.1166667,0 -0.225,0 -0.3166666,0.00833 -0.091667,-0.00833 -0.1916667,0 -0.3,0 z m 0,3.4416658 V 14.475 c 0.15,0.0083 0.3,0.01667 0.4583333,0.01667 0.1583333,0 0.3333333,0.0083 0.5499999,0.0083 a 3.5108328,3.5108328 0 0 0 0.9749998,-0.116667 1.2658331,1.2658331 0 0 0 0.6333333,-0.375 A 0.95916651,0.95916651 0 0 0 10.175,13.375 1.1366665,1.1366665 0 0 0 10,12.741667 C 9.8833337,12.566667 9.666667,12.433333 9.3583338,12.35 a 2.8266662,2.8266662 0 0 0 -0.3666667,-0.06667 4.8566659,4.8566659 0 0 0 -0.4916665,-0.025 z" />
  <path fill="#ffffff" d="M 17.499999,13.191667 H 14.858333 A 1.6949997,1.6949997 0 0 0 15.116666,13.9 a 1.3216665,1.3216665 0 0 0 0.608333,0.5 2.5716663,2.5716663 0 0 0 1.066667,0.191666 4.9999992,4.9999992 0 0 0 0.866666,-0.075 3.6824994,3.6824994 0 0 0 0.783334,-0.233333 c 0.04167,-0.03333 0.06667,-0.01667 0.06667,0.06667 v 1.274999 a 0.4166666,0.4166666 0 0 1 -0.01667,0.1 0.19499997,0.19499997 0 0 1 -0.05833,0.05833 3.856666,3.856666 0 0 1 -0.875,0.291666 5.6291658,5.6291658 0 0 1 -1.183333,0.1 c -0.633333,0 -1.166666,-0.1 -1.599999,-0.291666 A 2.8058329,2.8058329 0 0 1 13.725,15.091666 3.0583328,3.0583328 0 0 1 13.15,14 a 4.3174993,4.3174993 0 0 1 0.03333,-2.541667 3.4008328,3.4008328 0 0 1 0.625,-1.141666 3.0199995,3.0199995 0 0 1 1.008333,-0.7916666 3.2116662,3.2116662 0 0 1 1.391667,-0.2916666 3.0099995,3.0099995 0 0 1 1.291666,0.2583333 2.2941663,2.2941663 0 0 1 0.875,0.6916669 3.0508328,3.0508328 0 0 1 0.5,0.95 3.2774995,3.2774995 0 0 1 0.158333,1.016666 c 0,0.2 -0.0083,0.375 -0.01667,0.533333 -0.0083,0.158334 -0.025,0.275 -0.03333,0.35 a 0.12416665,0.12416665 0 0 1 -0.116666,0.108334 c -0.05,0 -0.141667,0.0083 -0.275,0.01667 a 3.944166,3.944166 0 0 1 -0.483334,0.025 c -0.191666,0 -0.391666,0.0083 -0.608333,0.0083 z m -2.641666,-1.308334 h 1.758333 c 0.216667,0 0.375,0 0.475,-0.0083 a 1.3674998,1.3674998 0 0 0 0.191666,-0.01667 V 11.775 a 0.95666651,0.95666651 0 0 0 -0.05,-0.308333 A 1.1033332,1.1033332 0 0 0 16.149999,10.7 a 1.1733331,1.1733331 0 0 0 -1.108333,0.633333 1.6483331,1.6483331 0 0 0 -0.183333,0.55 z" />
</svg>
