<svg xmlns="http://www.w3.org/2000/svg" viewBox="0 0 24 24" aria-hidden="true">
  <path fill="#00005b" d="M 5.5416677,2.2500016 H 18.458332 a 3.5383328,3.5383328 0 0 1 3.541666,3.5416661 V 18.208332 a 3.5383328,3.5383328 0 0 1 -3.541666,3.541666 H 5.5416677 A 3.5383328,3.5383328 0 0 1 2.0000016,18.208332 V 5.7916677 A 3.5383328,3.5383328 0 0 1 5.5416677,2.2500016 Z"/>
  <path fill="#99f" d="m 11.566667,14.358333 v 1.383333 a 0.18416664,0.18416664 0 0 1 -0.108334,0.191667 3.6441661,3.6441661 0 0 1 -0.791666,0.183333 8.8683319,8.8683319 0 0 1 -1.05,0.05833 5.9283324,5.9283324 0 0 1 -1.483333,-0.183333 4.5949993,4.5949993 0 0 1 -1.2833332,-0.55 3.8166661,3.8166661 0 0 1 -0.9916665,-0.908333 3.9558327,3.9558327 0 0 1 -0.6416665,-1.25 5.2841658,5.2841658 0 0 1 -0.225,-1.608333 c 0,-0.9 0.2,-1.6999996 0.5916666,-2.3833329 A 4.076666,4.076666 0 0 1 7.2583341,7.6916674 5.4849991,5.4849991 0 0 1 9.8500003,7.0916675 c 0.3499997,0 0.6916667,0.016667 1.0416667,0.05 A 3.4791661,3.4791661 0 0 1 11.6,7.3000008 0.17416664,0.17416664 0 0 1 11.66667,7.4583341 v 1.5083331 c 0,0.083333 -0.03333,0.1083333 -0.09167,0.083333 a 2.9608329,2.9608329 0 0 0 -0.8,-0.2416666 6.4308323,6.4308323 0 0 0 -0.983333,-0.075 3.0833328,3.0833328 0 0 0 -1.5416664,0.3749999 2.4899996,2.4899996 0 0 0 -0.9916665,1.0000005 3.1616662,3.1616662 0 0 0 -0.35,1.508333 3.2958328,3.2958328 0 0 0 0.1666667,1.1 2.4166663,2.4166663 0 0 0 0.4666666,0.816666 2.353333,2.353333 0 0 0 0.6666665,0.55 3.2966661,3.2966661 0 0 0 0.7999999,0.3 3.4683328,3.4683328 0 0 0 0.8249999,0.125 8.283332,8.283332 0 0 0 0.9083333,-0.04167 3.0833328,3.0833328 0 0 0 0.725,-0.183333 C 11.5,14.258333 11.525,14.25 11.55,14.266666 a 0.11583331,0.11583331 0 0 1 0.01667,0.09167 z"/>
  <path fill="#99f" d="m 14.65,11.191667 v 4.699999 c 0,0.075 -0.03333,0.108333 -0.09167,0.108333 h -1.675 a 0.10333332,0.10333332 0 0 1 -0.116666,-0.09167 V 6.6166676 c 0,-0.058333 0.03333,-0.091667 0.108333,-0.091667 h 1.691666 a 0.07833332,0.07833332 0 0 1 0.09167,0.066667 v 0.025 l 0.0083,3.1666661 a 3.7583327,3.7583327 0 0 1 0.775,-0.3916666 c 0.283333,-0.1 0.608333,-0.125 0.983333,-0.125 a 2.7424996,2.7424996 0 0 1 0.783334,0.1166667 1.9566664,1.9566664 0 0 1 0.733333,0.3916666 c 0.225,0.2 0.383333,0.4749996 0.516666,0.8166666 0.133334,0.341667 0.2,0.791666 0.2,1.333333 v 3.949999 c 0,0.08333 -0.03333,0.116667 -0.108333,0.116667 h -1.575 a 0.11499998,0.11499998 0 0 1 -0.133333,-0.1 v -3.783333 a 1.7199997,1.7199997 0 0 0 -0.125,-0.708333 1.0149998,1.0149998 0 0 0 -0.35,-0.425 1.1299998,1.1299998 0 0 0 -0.616667,-0.15 2.030833,2.030833 0 0 0 -0.591666,0.08333 2.1549997,2.1549997 0 0 0 -0.5083,0.283337 z"/>
</svg>
