<svg xmlns="http://www.w3.org/2000/svg" aria-hidden="true" viewBox="0 0 24 24">
  <path fill="#00005b" d="m5.5417 2.25h12.917a3.5383 3.5383 0 0 1 3.5417 3.5417v12.417a3.5383 3.5383 0 0 1-3.5417 3.5417h-12.917a3.5383 3.5383 0 0 1-3.5417-3.5417v-12.417a3.5383 3.5383 0 0 1 3.5417-3.5417z"/>
  <path fill="#99f" d="m7.1333 15.925v-8.575c0-0.058333 0.025-0.091667 0.083333-0.091667 0.14167 0 0.31667 0 0.50833-0.00833 0.19167-0.00833 0.40833-0.00833 0.63333-0.016667 0.225-0.00833 0.46667-0.00833 0.725-0.016667 0.25833-0.00833 0.50833-0.00833 0.75833-0.00833 0.68333 0 1.25 0.083333 1.7167 0.25833a2.9758 2.9758 0 0 1 1.1167 0.68333 2.6533 2.6533 0 0 1 0.60833 0.95 3.19 3.19 0 0 1 0.19167 1.0833q0 1.075-0.5 1.775a2.855 2.855 0 0 1-1.3417 1.0167 5.3425 5.3425 0 0 1-1.875 0.31667c-0.2 0-0.33333 0-0.41667-0.0083-0.083333-0.0083-0.2-0.0083-0.35833-0.0083v2.6417a0.10333 0.10333 0 0 1-0.091667 0.11667h-1.6667c-0.066667 0-0.091667-0.03333-0.091667-0.10833zm1.85-7.0583v2.775c0.11667 0.0083 0.225 0.01667 0.325 0.01667h0.44167a3.0983 3.0983 0 0 0 0.95833-0.13334 1.4333 1.4333 0 0 0 0.68333-0.44167c0.175-0.20833 0.25833-0.49167 0.25833-0.85833a1.3717 1.3717 0 0 0-0.19167-0.74167 1.2083 1.2083 0 0 0-0.58333-0.475 2.445 2.445 0 0 0-0.98333-0.16667c-0.21667 0-0.40833 0-0.56667 0.00833a2.71 2.71 0 0 0-0.34167 0.016667z"/>
  <path fill="#99f" d="m14.225 14.3v-7.675c0-0.075 0.04167-0.10833 0.11667-0.10833h1.625c0.08333 0 0.11667 0.033333 0.11667 0.10833v7.5167q0 0.2875 0.1 0.4c0.06667 0.08333 0.18333 0.11667 0.34167 0.11667a0.5125 0.5125 0 0 0 0.11667-0.008333c0.025-0.0083 0.06667-0.0083 0.11667-0.01667a0.075 0.075 0 0 1 0.04167 0.0083 0.13333 0.13333 0 0 1 0.01667 0.08333v1.15a0.475 0.475 0 0 1-0.0083 0.10833 0.12 0.12 0 0 1-0.05833 0.05 1.6267 1.6267 0 0 1-0.33333 0.08333 3.4725 3.4725 0 0 1-0.50833 0.03333 2.2192 2.2192 0 0 1-0.86667-0.15833 1.1667 1.1667 0 0 1-0.6-0.56667c-0.14171-0.24995-0.21671-0.63329-0.21671-1.125z"/>
</svg>
