<svg xmlns="http://www.w3.org/2000/svg" viewBox="0 0 24 24" width="24" height="24">
  <path fill="#001e36" d="M 5.5416677,2.2500016 H 18.458332 a 3.5383328,3.5383328 0 0 1 3.541666,3.5416661 V 18.208332 a 3.5383328,3.5383328 0 0 1 -3.541666,3.541666 H 5.5416677 A 3.5383328,3.5383328 0 0 1 2.0000016,18.208332 V 5.7916677 A 3.5383328,3.5383328 0 0 1 5.5416677,2.2500016 Z" />
  <path fill="#31a8ff" d="M 12.5,16.033333 H 7.2166674 c -0.091667,0 -0.1333333,-0.05 -0.1333333,-0.15 V 7.3666674 a 0.10333332,0.10333332 0 0 1 0.091667,-0.1166666 h 1.6666664 a 0.07833332,0.07833332 0 0 1 0.091667,0.066667 v 7.0249982 h 3.8499995 c 0.08333,0 0.108334,0.04167 0.09167,0.116667 l -0.241667,1.45 a 0.14499998,0.14499998 0 0 1 -0.05,0.1 0.14083331,0.14083331 0 0 1 -0.08333,0.025 z" />
  <path fill="#31a8ff" d="m 13.833333,9.3666671 h 1.458333 a 0.18749997,0.18749997 0 0 1 0.175,0.1333333 0.52583325,0.52583325 0 0 1 0.06667,0.1916667 c 0.01667,0.083333 0.03333,0.1749999 0.04167,0.2583333 0.0083,0.083334 0.01667,0.1916666 0.01667,0.2999996 a 3.1016662,3.1016662 0 0 1 0.891667,-0.7166662 2.4874996,2.4874996 0 0 1 1.241666,-0.3 0.10333332,0.10333332 0 0 1 0.116667,0.091667 v 1.6583332 c 0,0.06667 -0.04167,0.09167 -0.133334,0.09167 a 3.3966661,3.3966661 0 0 0 -1.574999,0.283333 1.3974998,1.3974998 0 0 0 -0.45,0.308334 v 4.249999 c 0,0.08333 -0.03333,0.116667 -0.108334,0.116667 H 13.95 a 0.11499998,0.11499998 0 0 1 -0.133334,-0.1 v -4.65 c 0,-0.199999 0,-0.408333 -0.0083,-0.624999 C 13.8,10.441667 13.8,10.225 13.791666,10.008334 q -0.0125,-0.2750003 -0.05,-0.5500002 A 0.07666665,0.07666665 0 0 1 13.8,9.3666671 c 0.0083,-0.00833 0.01667,-0.00833 0.03333,0 z" />
</svg>
