<svg xmlns="http://www.w3.org/2000/svg" viewBox="0 0 24 24" width="24" height="24">
  <path fill="#330000" d="M 5.5416677,2.2500016 H 18.458332 a 3.5383328,3.5383328 0 0 1 3.541666,3.5416661 V 18.208332 a 3.5383328,3.5383328 0 0 1 -3.541666,3.541666 H 5.5416677 A 3.5383328,3.5383328 0 0 1 2.0000016,18.208332 V 5.7916677 A 3.5383328,3.5383328 0 0 1 5.5416677,2.2500016 Z" />
  <path fill="#ff9a00" d="M 11.691667,13.95 H 8.5916672 L 7.958334,15.908333 A 0.14583331,0.14583331 0 0 1 7.8000007,16.024999 H 6.2333343 c -0.091667,0 -0.1166667,-0.05 -0.091667,-0.15 L 8.8250005,8.1500007 c 0.025,-0.083333 0.05,-0.175 0.083333,-0.275 a 2.9108329,2.9108329 0 0 0 0.05,-0.5416666 0.08333332,0.08333332 0 0 1 0.066667,-0.091667 h 2.1583325 c 0.06667,0 0.1,0.025 0.108334,0.066667 l 3.041666,8.5833319 c 0.025,0.09167 0,0.133333 -0.08333,0.133333 h -1.74167 A 0.12583331,0.12583331 0 0 1 12.375,15.933333 Z M 9.0750005,12.258333 H 11.191667 C 11.141667,12.083333 11.075,11.875 11,11.658333 10.925,11.441667 10.85,11.191667 10.775,10.941667 10.7,10.691667 10.616667,10.433334 10.533334,10.175 10.45,9.916667 10.375,9.6750004 10.308334,9.4333338 10.241667,9.1916672 10.183334,8.9833339 10.125,8.7833339 H 10.10833 A 10.231665,10.231665 0 0 1 9.8250003,9.8583337 C 9.7000004,10.258334 9.5750004,10.675 9.4416671,11.091667 c -0.1166667,0.425 -0.2416667,0.816666 -0.3666666,1.166666 z" />
  <path fill="#ff9a00" d="M 16.149999,8.6666672 A 1.0316665,1.0316665 0 0 1 15.408333,8.3750006 1.0833332,1.0833332 0 0 1 15.125,7.6083341 0.98083318,0.98083318 0 0 1 15.424999,6.8666675 1.0674998,1.0674998 0 0 1 16.166666,6.5750009 c 0.325,0 0.575,0.1 0.758333,0.2916666 a 1.0524998,1.0524998 0 0 1 0.275,0.7416666 1.0541665,1.0541665 0 0 1 -0.291666,0.7666665 0.97999984,0.97999984 0 0 1 -0.758334,0.2916666 z M 15.216666,15.899999 V 9.4833338 c 0,-0.083333 0.03333,-0.1166667 0.108333,-0.1166667 h 1.65 c 0.075,0 0.108334,0.041667 0.108334,0.1166667 v 6.4166652 c 0,0.09167 -0.03333,0.133334 -0.108334,0.133334 h -1.633333 a 0.11666665,0.11666665 0 0 1 -0.125,-0.133334 z" />
</svg>
