<svg xmlns="http://www.w3.org/2000/svg" aria-hidden="true" viewBox="0 0 24 24">
  <path fill="#00005b" d="m5.5417 2.25h12.917a3.5383 3.5383 0 0 1 3.5417 3.5417v12.417a3.5383 3.5383 0 0 1-3.5417 3.5417h-12.917a3.5383 3.5383 0 0 1-3.5417-3.5417v-12.417a3.5383 3.5383 0 0 1 3.5417-3.5417z"/>
  <path fill="#99f" d="m18.227 13.076h-2.6033a2.0133 2.0357 0 0 0 0.26917 0.76507 1.3592 1.3743 0 0 0 0.60083 0.50134 2.5975 2.6263 0 0 0 1.0717 0.23003 3.6108 3.6509 0 0 0 0.73833-0.05898 3.5542 3.5936 0 0 0 0.77333-0.2334q0.06583-0.05308 0.06583 0.06656v1.2689a0.19583 0.19801 0 0 1-0.02 0.10027 0.18833 0.19042 0 0 1-0.05917 0.05982 3.7042 3.7453 0 0 1-0.85917 0.28732 5.3058 5.3648 0 0 1-1.07 0.04213 3.77 3.8119 0 0 1-1.5725-0.28985 2.8033 2.8345 0 0 1-1.0308-0.78866 3.055 3.0889 0 0 1-0.56833-1.0886 4.2408 4.2879 0 0 1-0.17167-1.2091 4.1667 4.2129 0 0 1 0.20917-1.3195 3.3958 3.4335 0 0 1 0.61417-1.1358 2.9508 2.9836 0 0 1 0.99083-0.78866 3.0992 3.1336 0 0 1 1.3742-0.28732 3.3075 3.3442 0 0 1 1.3433 0.26794 2.305 2.3306 0 0 1 0.86583 0.68839 3 3.0333 0 0 1 0.48583 0.94286 3.3208 3.3577 0 0 1 0.15833 1.0153q0 0.29406-0.02 0.5342a2.275 2.3003 0 0 1-0.05083 0.28311 0.12 0.12133 0 0 1-0.11917 0.10701c-0.0525 0-0.14333 0.0067-0.27083 0.02022-0.1275 0.01348-0.355 0.0084-0.54417 0.01264-0.18917 0.0042-0.38917 0.0067-0.60083 0.0067zm-2.6108-1.0617h1.7308q0.3175 0 0.46917-0.0067a0.93083 0.94117 0 0 0 0.19167-0.02022v-0.08426a2.2267 2.2514 0 0 0-0.0275-0.47775 1.0833 1.0954 0 0 0-1.07-0.75833 1.1483 1.1611 0 0 0-1.09 0.62773 2.7742 2.805 0 0 0-0.20417 0.71957z"/>
  <path fill="#99f" d="m4.965 7.4125a0.088333 0.089314 0 0 1 0.096667-0.084259h2.3142a0.12583 0.12723 0 0 1 0.13833 0.093527c0.058333 0.23171 0.13 0.39939 0.21333 0.72378 0.083333 0.3244 0.17333 0.68839 0.2725 1.0802l0.29167 1.2024q0.15083 0.61425 0.295 1.1956t0.24667 1.0692q0.1 0.48786 0.16667 0.80804h0.0125q0.05-0.28058 0.17583-0.74822 0.12583-0.46764 0.28917-1.049 0.16667-0.58139 0.33333-1.1956 0.16667-0.61425 0.33333-1.2159 0.16667-0.60161 0.3075-1.1156c0.096667-0.34293 0.17333-0.51903 0.2325-0.75074a0.11 0.11122 0 0 1 0.11333-0.093527h2.25a0.1 0.10111 0 0 1 0.1125 0.084259v0.00758l0.30167 8.3694a0.088333 0.089314 0 0 1-0.01833 0.08426 0.10833 0.10954 0 0 1-0.08333 0.0337h-1.6408a0.098333 0.099425 0 0 1-0.0625-0.02022 0.088333 0.089314 0 0 1-0.025-0.0733c0-0.45416 0-0.87292-0.0067-1.3717-0.0067-0.49881-0.01083-1.0002-0.01917-1.5032-0.0083-0.50302-0.0083-0.98667 0-1.4493 0.0083-0.46258 0.0125-0.89062 0.0125-1.2824 0-0.3918 0-0.73221 0.0067-1.0221 0.0067-0.28985 0.0058-0.50555 0.0067-0.64795h-0.0125q-0.07583 0.33704-0.20083 0.87545-0.125 0.53841-0.295 1.2159-0.16667 0.67407-0.36417 1.3962-0.1975 0.7221-0.37667 1.4324-0.1825 0.70862-0.35167 1.3229c-0.11333 0.4095-0.20667 0.71283-0.2825 1.0246a0.13833 0.13987 0 0 1-0.13837 0.10701h-1.4167a0.135 0.1365 0 0 1-0.15083-0.10701c-0.075-0.31176-0.16167-0.61509-0.2575-1.0246-0.095833-0.4095-0.19417-0.83753-0.295-1.2824s-0.2075-0.90157-0.32-1.3692-0.22-0.92011-0.32-1.3566-0.19083-0.84259-0.27-1.2293c-0.079167-0.38675-0.15417-0.72463-0.22083-1.0162h-0.025833v1.0558q0 0.61509-0.019167 1.3566t-0.0375 1.5495q-0.018333 0.80888-0.044167 1.67c-0.016667 0.57464-0.0375 1.0844-0.0625 1.6456 0 0.07162-0.033333 0.10701-0.1 0.10701h-1.4558a0.15083 0.15251 0 0 1-0.083333-0.02022q-0.031667-0.02022-0.019167-0.10027z"/>
</svg>
