<svg xmlns="http://www.w3.org/2000/svg" viewBox="0 0 24 24" width="24" height="24">
  <path fill="#00005b" d="M 5.5416666,2.2500016 H 18.458332 a 3.5383327,3.5383327 0 0 1 3.541666,3.541666 V 18.208333 a 3.5383327,3.5383327 0 0 1 -3.541666,3.541666 H 5.5416666 A 3.5383327,3.5383327 0 0 1 2.0000016,18.208333 V 5.7916676 a 3.5383327,3.5383327 0 0 1 3.541665,-3.541666 z" />
  <path fill="#9999ff" d="M 10.033334,13.916667 H 6.9333336 l -0.633333,1.966666 A 0.14583331,0.14583331 0 0 1 6.1416666,16 h -1.566665 c -0.09167,0 -0.116667,-0.05 -0.09167,-0.15 l 2.683332,-7.6916664 c 0.025,-0.08333 0.05,-0.158333 0.08333,-0.258333 a 2.9108329,2.9108329 0 0 0 0.05,-0.541667 0.08333332,0.08333332 0 0 1 0.06667,-0.09167 h 2.158336 c 0.05833,0 0.1,0.025 0.108333,0.06667 L 12.675,15.875 c 0.025,0.09167 0,0.133333 -0.08333,0.133333 H 10.85 a 0.12583331,0.12583331 0 0 1 -0.133333,-0.09167 z M 7.4166666,12.258333 h 2.116666 c -0.05,-0.175 -0.116666,-0.383333 -0.191666,-0.6 -0.075,-0.216666 -0.15,-0.466666 -0.225,-0.716666 -0.075,-0.25 -0.158333,-0.508333 -0.241666,-0.766667 -0.08333,-0.2583334 -0.158334,-0.5000004 -0.225,-0.7416664 -0.06667,-0.241666 -0.125,-0.45 -0.183334,-0.65 h -0.01667 a 10.231665,10.231665 0 0 1 -0.283334,1.074999 c -0.125,0.4000004 -0.25,0.8166674 -0.383333,1.2333344 -0.108333,0.425 -0.241667,0.816666 -0.366667,1.166666 z" />
  <path fill="#9999ff" d="M 17.616666,13.15 H 14.975 a 1.8333329,1.8333329 0 0 0 0.258333,0.741667 1.3216665,1.3216665 0 0 0 0.608333,0.499999 2.5916663,2.5916663 0 0 0 1.066667,0.208334 5.0124991,5.0124991 0 0 0 0.866666,-0.09167 3.1291661,3.1291661 0 0 0 0.741667,-0.191667 c 0.04167,-0.03333 0.06667,-0.01667 0.06667,0.06667 v 1.275 a 0.4166666,0.4166666 0 0 1 -0.01667,0.1 0.19499997,0.19499997 0 0 1 -0.05833,0.05833 3.5649994,3.5649994 0 0 1 -0.833333,0.25 5.6291657,5.6291657 0 0 1 -1.183333,0.1 c -0.633334,0 -1.166666,-0.1 -1.6,-0.291666 a 2.8058329,2.8058329 0 0 1 -1.05,-0.791667 3.0583329,3.0583329 0 0 1 -0.575,-1.091666 A 4.3174992,4.3174992 0 0 1 13.3,11.45 3.4008327,3.4008327 0 0 1 13.925,10.308334 3.0199994,3.0199994 0 0 1 14.933333,9.5166676 c 0.391667,-0.191667 0.858333,-0.258334 1.391666,-0.258334 a 3.0099994,3.0099994 0 0 1 1.291667,0.258334 2.2949995,2.2949995 0 0 1 0.875,0.6666654 3.0508329,3.0508329 0 0 1 0.5,0.950001 3.2774994,3.2774994 0 0 1 0.158332,1.016666 c 0,0.2 -0.0083,0.375 -0.01667,0.533333 -0.0083,0.158334 -0.025,0.275 -0.03333,0.35 a 0.12416665,0.12416665 0 0 1 -0.116666,0.108334 c -0.05,0 -0.141666,0.0083 -0.275,0.01667 a 3.944166,3.944166 0 0 1 -0.483333,0.025 C 18.033332,13.183333 17.833333,13.15 17.616666,13.15 Z M 14.975,11.933333 h 1.758333 c 0.216666,0 0.375,0 0.475,-0.0083 a 0.40749993,0.40749993 0 0 0 0.191666,-0.06667 V 11.775 a 0.95666651,0.95666651 0 0 0 -0.05,-0.308333 1.1033332,1.1033332 0 0 0 -1.083333,-0.766666 1.1733331,1.1733331 0 0 0 -1.108333,0.633333 1.7274997,1.7274997 0 0 0 -0.183333,0.599999 z" />
</svg>
