<svg xmlns="http://www.w3.org/2000/svg" viewBox="0 0 24 24" aria-hidden="true">
  <path fill="#001e36" d="M 5.5416677,2.2500016 H 18.458332 a 3.5383328,3.5383328 0 0 1 3.541666,3.5416661 V 18.208332 a 3.5383328,3.5383328 0 0 1 -3.541666,3.541666 H 5.5416677 A 3.5383328,3.5383328 0 0 1 2.0000016,18.208332 V 5.7916677 A 3.5383328,3.5383328 0 0 1 5.5416677,2.2500016 Z"/>
  <path fill="#31a8ff" d="m 9.0583338,12.641667 v 3.283332 a 0.09416665,0.09416665 0 0 1 -0.083333,0.108334 h -1.675 A 0.08333332,0.08333332 0 0 1 7.2083341,15.916666 V 7.3416675 c 0,-0.125 0.033333,-0.1916667 0.091667,-0.1916667 h 5.3166659 a 0.16666664,0.16666664 0 0 1 0.09167,0.016667 0.37083327,0.37083327 0 0 1 0.04167,0.1833333 l 0.15,1.4583331 a 0.08333332,0.08333332 0 0 1 -0.01667,0.075 A 0.11916665,0.11916665 0 0 1 12.8,8.9166672 H 9.0583338 v 2.0416668 h 3.3499992 c 0.08333,0 0.116667,0.03333 0.116667,0.09167 v 1.475 a 0.09416665,0.09416665 0 0 1 -0.08333,0.108333 h -0.025 z"/>
  <path fill="#31a8ff" d="m 13.708333,9.3666671 h 1.458333 a 0.18749997,0.18749997 0 0 1 0.175,0.1333333 0.52583325,0.52583325 0 0 1 0.06667,0.1916667 c 0.01667,0.083333 0.03333,0.1749999 0.04167,0.2583333 0.0083,0.083334 0.01667,0.1916666 0.01667,0.2999996 a 3.1016662,3.1016662 0 0 1 0.891667,-0.7166662 2.4874996,2.4874996 0 0 1 1.241666,-0.3 0.10333332,0.10333332 0 0 1 0.116667,0.091667 v 1.6583332 c 0,0.06667 -0.04167,0.09167 -0.133334,0.09167 a 3.3966661,3.3966661 0 0 0 -1.574999,0.283333 1.3974998,1.3974998 0 0 0 -0.45,0.308334 v 4.249999 c 0,0.08333 -0.03333,0.116667 -0.108334,0.116667 h -1.616666 a 0.11499998,0.11499998 0 0 1 -0.133333,-0.1 v -4.65 c 0,-0.199999 0,-0.408333 -0.0083,-0.624999 -0.0083,-0.216667 -0.0083,-0.433334 -0.01667,-0.65 Q 13.6625,9.7333337 13.625,9.4583338 a 0.07666665,0.07666665 0 0 1 0.05833,-0.091667 c 0,-0.00833 0.01667,-0.00833 0.025,0 z"/>
</svg>
