<svg xmlns="http://www.w3.org/2000/svg" viewBox="0 0 24 24" aria-hidden="true">
  <path fill="#000b1d" d="M 5.5416677,2.2500016 H 18.458332 a 3.5383328,3.5383328 0 0 1 3.541666,3.5416661 V 18.208332 a 3.5383328,3.5383328 0 0 1 -3.541666,3.541666 H 5.5416677 A 3.5383328,3.5383328 0 0 1 2.0000016,18.208332 V 5.7916677 A 3.5383328,3.5383328 0 0 1 5.5416677,2.2500016 Z"/>
  <path fill="#fff" d="M 9.0833338,16.391666 A 7.0691655,7.0691655 0 0 1 7.7416673,16.262499 4.5191659,4.5191659 0 0 1 6.7225008,15.939999 0.2183333,0.2183333 0 0 1 6.6191675,15.720833 v -1.574167 a 0.09166665,0.09166665 0 0 1 0.038333,-0.0775 0.06249999,0.06249999 0 0 1 0.0775,0.0125 4.5216659,4.5216659 0 0 0 1.1741665,0.515834 4.4324993,4.4324993 0 0 0 1.2124998,0.166666 q 0.7549999,0 1.0833332,-0.2325 a 0.68333322,0.68333322 0 0 0 0.3225,-0.583333 0.80083321,0.80083321 0 0 0 -0.103333,-0.4 A 1.2366665,1.2366665 0 0 0 10.05,13.2 3.7933327,3.7933327 0 0 0 9.3275004,12.851667 L 8.6691672,12.5675 A 5.1074992,5.1074992 0 0 1 7.4066674,11.833333 1.9441664,1.9441664 0 0 1 6.7866675,11 2.6349996,2.6349996 0 0 1 6.6058342,10.0325 2.4166663,2.4166663 0 0 1 6.9541675,8.7425006 2.390833,2.390833 0 0 1 8.0125006,7.825834 C 8.4766672,7.6066674 9.0708338,7.4925008 9.7675004,7.4925008 a 8.7383319,8.7383319 0 0 1 1.1874996,0.0775 3.1316662,3.1316662 0 0 1 0.878333,0.2416667 0.17499997,0.17499997 0 0 1 0.09,0.1666666 v 1.4999998 a 0.06916666,0.06916666 0 0 1 -0.03833,0.051667 0.06249999,0.06249999 0 0 1 -0.0775,-0.0125 4.231666,4.231666 0 0 0 -0.916666,-0.3333332 7.5458321,7.5458321 0 0 0 -1.096667,-0.09 2.3674996,2.3674996 0 0 0 -0.6449999,0.064167 1.7158331,1.7158331 0 0 0 -0.4258332,0.1666667 0.74083321,0.74083321 0 0 0 -0.245,0.2449999 0.68749989,0.68749989 0 0 0 -0.0775,0.31 0.6149999,0.6149999 0 0 0 0.115,0.3699997 1.3649998,1.3649998 0 0 0 0.3999999,0.333334 5.8041657,5.8041657 0 0 0 0.7616666,0.3875 l 0.4891666,0.1825 c 0.583333,0.244999 1.0325,0.489999 1.355,0.761666 0.3225,0.271667 0.555,0.555 0.684166,0.8775 a 2.6558329,2.6558329 0 0 1 0.193334,1.019166 2.3474996,2.3474996 0 0 1 -0.416667,1.3675 2.6874996,2.6874996 0 0 1 -1.144166,0.904167 c -0.49,0.206666 -1.0833336,0.31 -1.7550002,0.31 z m 7.7808322,-1.4325 v 1.083333 c 0,0.09 -0.03833,0.155 -0.103333,0.166667 -0.166667,0.05167 -0.348334,0.09 -0.529167,0.129167 a 3.1333328,3.1333328 0 0 1 -0.6325,0.05167 c -0.583333,0 -1.019166,-0.155 -1.355,-0.451666 -0.3225,-0.296667 -0.49,-0.7875 -0.49,-1.445 v -3.2625 h -0.787499 c -0.0775,0 -0.103334,-0.03833 -0.103334,-0.115833 V 9.7983337 c 0,-0.0775 0.03833,-0.1033333 0.115834,-0.1033333 h 0.787499 c 0.0125,-0.155 0.0125,-0.3224999 0.03833,-0.5158332 0.0125,-0.1933333 0.02583,-0.4 0.05167,-0.5933333 0.0125,-0.1933333 0.03833,-0.3616666 0.05167,-0.4899999 0.0125,-0.025833 0.0125,-0.051667 0.03833,-0.0775 a 0.28166662,0.28166662 0 0 1 0.06417,-0.051667 l 1.5725,-0.1941667 a 0.05749999,0.05749999 0 0 1 0.06417,0 0.10916665,0.10916665 0 0 1 0.02583,0.0775 c -0.0125,0.2066666 -0.02583,0.4774999 -0.03833,0.8258332 -0.0125,0.3483333 -0.0125,0.6841666 -0.02583,1.0191665 h 1.225833 c 0.05167,0 0.0775,0.038333 0.0775,0.1033333 V 11.14 c 0,0.05167 -0.0125,0.0775 -0.06417,0.09 h -1.25 v 2.825833 c 0,0.296667 0.05167,0.515833 0.155,0.645 0.103333,0.129167 0.284166,0.193333 0.555,0.193333 a 1.1808331,1.1808331 0 0 0 0.219166,-0.0125 c 0.0775,0 0.141667,-0.0125 0.219167,-0.0125 a 0.06083332,0.06083332 0 0 1 0.0775,0.0125 0.07833332,0.07833332 0 0 1 0.04,0.07833 z"/>
</svg>
