<svg xmlns="http://www.w3.org/2000/svg" aria-hidden="true" viewBox="0 0 24 24">
  <path fill="#000b1d" d="m5.5417 2.25h12.917a3.5383 3.5383 0 0 1 3.5417 3.5417v12.417a3.5383 3.5383 0 0 1-3.5417 3.5417h-12.917a3.5383 3.5383 0 0 1-3.5417-3.5417v-12.417a3.5383 3.5383 0 0 1 3.5417-3.5417z"/>
  <path fill="#fff" d="m9.0833 16.392a7.0692 7.0692 0 0 1-1.3417-0.12917 4.5192 4.5192 0 0 1-1.0192-0.3225 0.21833 0.21833 0 0 1-0.10333-0.21917v-1.5742a0.091667 0.091667 0 0 1 0.038333-0.0775 0.0625 0.0625 0 0 1 0.0775 0.0125 4.5217 4.5217 0 0 0 1.1742 0.51583 4.4325 4.4325 0 0 0 1.2125 0.16667q0.755 0 1.0833-0.2325a0.68333 0.68333 0 0 0 0.3225-0.58333 0.80083 0.80083 0 0 0-0.10333-0.4 1.2367 1.2367 0 0 0-0.37417-0.34833 3.7933 3.7933 0 0 0-0.7225-0.34833l-0.65833-0.28417a5.1075 5.1075 0 0 1-1.2625-0.73417 1.9442 1.9442 0 0 1-0.62-0.83333 2.635 2.635 0 0 1-0.18083-0.9675 2.4167 2.4167 0 0 1 0.34833-1.29 2.3908 2.3908 0 0 1 1.0583-0.91667c0.46417-0.21917 1.0583-0.33333 1.755-0.33333a8.7383 8.7383 0 0 1 1.1875 0.0775 3.1317 3.1317 0 0 1 0.87833 0.24167 0.175 0.175 0 0 1 0.09 0.16667v1.5a0.069167 0.069167 0 0 1-0.03833 0.051667 0.0625 0.0625 0 0 1-0.0775-0.0125 4.2317 4.2317 0 0 0-0.91667-0.33333 7.5458 7.5458 0 0 0-1.0967-0.09 2.3675 2.3675 0 0 0-0.645 0.064167 1.7158 1.7158 0 0 0-0.42583 0.16667 0.74083 0.74083 0 0 0-0.245 0.245 0.6875 0.6875 0 0 0-0.0775 0.31 0.615 0.615 0 0 0 0.115 0.37 1.365 1.365 0 0 0 0.4 0.33333 5.8042 5.8042 0 0 0 0.76167 0.3875l0.48917 0.1825c0.58333 0.245 1.0325 0.49 1.355 0.76167s0.555 0.555 0.68417 0.8775a2.6558 2.6558 0 0 1 0.19333 1.0192 2.3475 2.3475 0 0 1-0.41667 1.3675 2.6875 2.6875 0 0 1-1.1442 0.90417c-0.49 0.20667-1.0833 0.31-1.755 0.31zm7.7808-1.4325v1.0833c0 0.09-0.03833 0.155-0.10333 0.16667-0.16667 0.05167-0.34833 0.09-0.52917 0.12917a3.1333 3.1333 0 0 1-0.6325 0.05167c-0.58333 0-1.0192-0.155-1.355-0.45167-0.3225-0.29667-0.49-0.7875-0.49-1.445v-3.2625h-0.7875c-0.0775 0-0.10333-0.03833-0.10333-0.11583v-1.3167c0-0.0775 0.03833-0.10333 0.11583-0.10333h0.7875c0.0125-0.155 0.0125-0.3225 0.03833-0.51583 0.0125-0.19333 0.02583-0.4 0.05167-0.59333 0.0125-0.19333 0.03833-0.36167 0.05167-0.49 0.0125-0.025833 0.0125-0.051667 0.03833-0.0775a0.28167 0.28167 0 0 1 0.06417-0.051667l1.5725-0.19417a0.0575 0.0575 0 0 1 0.06417 0 0.10917 0.10917 0 0 1 0.02583 0.0775c-0.0125 0.20667-0.02583 0.4775-0.03833 0.82583s-0.0125 0.68417-0.02583 1.0192h1.2258c0.05167 0 0.0775 0.038333 0.0775 0.10333v1.3417c0 0.05167-0.0125 0.0775-0.06417 0.09h-1.25v2.8258c0 0.29667 0.05167 0.51583 0.155 0.645 0.10333 0.12917 0.28417 0.19333 0.555 0.19333a1.1808 1.1808 0 0 0 0.21917-0.0125c0.0775 0 0.14167-0.0125 0.21917-0.0125a0.060833 0.060833 0 0 1 0.0775 0.0125 0.078333 0.078333 0 0 1 0.04 0.07833z"/>
</svg>
