<svg xmlns="http://www.w3.org/2000/svg" viewBox="0 0 24 24" width="24" height="24">
  <path fill="#001e36" d="M 5.5416677,2.2500016 H 18.458332 a 3.5383328,3.5383328 0 0 1 3.541666,3.5416661 V 18.208332 a 3.5383328,3.5383328 0 0 1 -3.541666,3.541666 H 5.5416677 A 3.5383328,3.5383328 0 0 1 2.0000016,18.208332 V 5.7916677 A 3.5383328,3.5383328 0 0 1 5.5416677,2.2500016 Z" />
  <path fill="#31a8ff" d="M 8.9833338,8.1916673 A 2.7083329,2.7083329 0 0 0 7.9750006,7.5083341 4.166666,4.166666 0 0 0 6.4333342,7.2500008 c -0.2249999,0 -0.4499999,0 -0.6833332,0.00833 -0.2333333,0.00833 -0.4499999,0.00833 -0.6499999,0.016667 -0.2,0.00833 -0.3999999,0.00833 -0.5749999,0.016667 -0.175,0.00833 -0.3166666,-0.016667 -0.4499999,-0.016667 -0.05,0 -0.075,0.033333 -0.075,0.091667 v 8.5333312 c 0,0.075 0.025,0.125 0.083333,0.125 h 1.4583331 c 0.075,0 0.1083333,-0.04167 0.1083333,-0.116666 V 13.3 c 0.1416667,0 0.25,0 0.325,0.0083 0.075,0.0083 0.1999999,0.0083 0.3749999,0.0083 A 4.386666,4.386666 0 0 0 8.0416673,13 2.5983329,2.5983329 0 0 0 9.2500004,11.991667 c 0.3,-0.466667 0.45,-1.058333 0.45,-1.766667 A 3.6741661,3.6741661 0 0 0 9.5333337,9.1416672 2.7833329,2.7833329 0 0 0 8.9833338,8.1916673 Z M 7.8250007,11.116667 a 1.3058331,1.3058331 0 0 1 -0.6166666,0.441666 2.5158329,2.5158329 0 0 1 -0.8666665,0.133334 h -0.4 c -0.091667,0 -0.1833333,-0.0083 -0.2916666,-0.01667 V 8.9083339 c 0.1,-0.00833 0.2083333,-0.016667 0.3083333,-0.016667 0.15,-0.00833 0.3166666,-0.00833 0.5166666,-0.00833 a 2.1666663,2.1666663 0 0 1 0.8833332,0.1666666 1.2049998,1.2049998 0 0 1 0.5249999,0.4749999 1.4341664,1.4341664 0 0 1 0.175,0.7416666 c 0,0.358333 -0.083333,0.65 -0.2333333,0.85 z" />
  <path fill="#31a8ff" d="M 13.591666,12.533333 A 5.0683325,5.0683325 0 0 0 12.441667,11.925 C 12.258333,11.841667 12.083333,11.75 11.908333,11.65 a 0.80999987,0.80999987 0 0 1 -0.25,-0.225 0.48083326,0.48083326 0 0 1 -0.075,-0.216666 0.4166666,0.4166666 0 0 1 0.05833,-0.225 0.42249993,0.42249993 0 0 1 0.233333,-0.166667 1.3933331,1.3933331 0 0 1 0.45,-0.05833 3.1958328,3.1958328 0 0 1 0.841666,0.108333 2.2849996,2.2849996 0 0 1 0.691667,0.283333 0.07583332,0.07583332 0 0 0 0.08333,0 0.08333332,0.08333332 0 0 0 0.03333,-0.08333 V 9.7083337 a 0.40583327,0.40583327 0 0 0 -0.0083,-0.1 0.13249998,0.13249998 0 0 0 -0.075,-0.075 1.7299997,1.7299997 0 0 0 -0.608333,-0.1916667 5.7958324,5.7958324 0 0 0 -0.933333,-0.075 c -0.533333,0 -0.975,0.1 -1.325,0.2916667 A 1.9274997,1.9274997 0 0 0 10.241667,10.325 a 2.033333,2.033333 0 0 0 -0.25,1.008333 2.1266663,2.1266663 0 0 0 0.175,0.85 1.9324997,1.9324997 0 0 0 0.566667,0.7 4.0833327,4.0833327 0 0 0 1.066666,0.6 c 0.366667,0.15 0.616667,0.283333 0.733333,0.391667 a 0.45249993,0.45249993 0 0 1 0.183334,0.333333 0.3916666,0.3916666 0 0 1 -0.2,0.35 C 12.383333,14.641666 12.175,14.675 11.891667,14.675 a 3.961666,3.961666 0 0 1 -0.883334,-0.125 2.9166662,2.9166662 0 0 1 -0.899999,-0.4 0.07666665,0.07666665 0 0 0 -0.08333,0.0083 0.08333332,0.08333332 0 0 0 -0.033333,0.075 v 1.45 a 0.15333331,0.15333331 0 0 0 0.1,0.141666 2.9016662,2.9016662 0 0 0 0.741667,0.258334 4.6316659,4.6316659 0 0 0 1.016666,0.108333 c 0.541667,0 0.991667,-0.09167 1.358333,-0.266667 A 1.9166664,1.9166664 0 0 0 14.05,15.183333 2.0641663,2.0641663 0 0 0 14.341666,14.075 a 2.030833,2.030833 0 0 0 -0.175,-0.858333 1.7499997,1.7499997 0 0 0 -0.575,-0.683334 z" />
  <path fill="#31a8ff" d="m 19.899999,8.133334 a 2.1141663,2.1141663 0 0 0 -0.558334,-0.1416667 7.2683322,7.2683322 0 0 0 -0.849999,-0.05 c -0.816667,0 -1.533333,0.1749999 -2.125,0.5166665 A 3.5874994,3.5874994 0 0 0 14.983333,9.916667 c -0.325,0.616667 -0.483333,1.35 -0.483333,2.166666 a 5.4866658,5.4866658 0 0 0 0.183333,1.466667 3.8624994,3.8624994 0 0 0 0.533333,1.141666 3.3408328,3.3408328 0 0 0 0.816667,0.825 3.2499995,3.2499995 0 0 0 1.058333,0.5 4.6074993,4.6074993 0 0 0 1.216666,0.166667 5.8633324,5.8633324 0 0 0 0.858334,-0.05833 2.6666662,2.6666662 0 0 0 0.674999,-0.166666 0.22416663,0.22416663 0 0 0 0.125,-0.225 V 14.49167 a 0.14499998,0.14499998 0 0 0 -0.04167,-0.125 0.09999998,0.09999998 0 0 0 -0.133334,0.0083 2.7116662,2.7116662 0 0 1 -0.583333,0.141666 7.0349989,7.0349989 0 0 1 -0.725,0.03333 2.4483329,2.4483329 0 0 1 -0.65,-0.09167 2.4924996,2.4924996 0 0 1 -0.633333,-0.266667 1.8199997,1.8199997 0 0 1 -0.525,-0.483333 2.5349996,2.5349996 0 0 1 -0.366666,-0.716666 3.2041662,3.2041662 0 0 1 -0.133334,-0.975 3.0624995,3.0624995 0 0 1 0.275,-1.333333 2.0924997,2.0924997 0 0 1 0.783333,-0.8750003 2.3099996,2.3099996 0 0 1 1.216667,-0.3166666 4.144166,4.144166 0 0 1 0.783333,0.066667 1.9591664,1.9591664 0 0 1 0.6,0.1999999 0.12333331,0.12333331 0 0 0 0.108333,0 0.14333331,0.14333331 0 0 0 0.05,-0.1249999 V 8.333334 a 0.24166663,0.24166663 0 0 0 -0.09167,-0.2 z" />
</svg>
