<svg xmlns="http://www.w3.org/2000/svg" viewBox="0 0 24 24" aria-hidden="true">
  <path fill="#49021f" d="M 5.5416677,2.2500016 H 18.458332 a 3.5383328,3.5383328 0 0 1 3.541666,3.5416661 V 18.208332 a 3.5383328,3.5383328 0 0 1 -3.541666,3.541666 H 5.5416677 A 3.5383328,3.5383328 0 0 1 2.0000016,18.208332 V 5.7916677 A 3.5383328,3.5383328 0 0 1 5.5416677,2.2500016 Z"/>
  <path fill="#f36" d="m 10.041667,7.3500008 v 8.5499982 c 0,0.09167 -0.04167,0.133334 -0.1166667,0.133334 H 8.3000006 c -0.075,0 -0.1083333,-0.04167 -0.1083333,-0.133334 V 7.3500008 c 0,-0.075 0.041667,-0.1083333 0.1166666,-0.1083333 h 1.6249998 a 0.09416665,0.09416665 0 0 1 0.1083333,0.083333 z"/>
  <path fill="#f36" d="m 16.441666,14.458333 v 1.383333 a 0.12416665,0.12416665 0 0 1 -0.06667,0.116667 2.5691663,2.5691663 0 0 1 -0.708333,0.158333 c -0.266667,0.025 -0.525,0.04167 -0.775,0.04167 A 3.9633327,3.9633327 0 0 1 13.4,15.899999 3.1908328,3.1908328 0 0 1 12.283333,15.175 3.4166661,3.4166661 0 0 1 11.575,14.075 a 3.7733327,3.7733327 0 0 1 -0.25,-1.358333 3.5283328,3.5283328 0 0 1 0.466667,-1.808333 3.3333328,3.3333328 0 0 1 1.324999,-1.2416669 4.206666,4.206666 0 0 1 1.991667,-0.4583333 4.166666,4.166666 0 0 1 0.791666,0.05 4.5074993,4.5074993 0 0 1 0.458334,0.1 0.15333331,0.15333331 0 0 1 0.06667,0.15 l -0.01667,1.3833332 c 0,0.08333 -0.03333,0.108333 -0.108334,0.09167 a 2.8416662,2.8416662 0 0 0 -0.458333,-0.116667 4.5733326,4.5733326 0 0 0 -0.666667,-0.05 2.3724996,2.3724996 0 0 0 -0.991666,0.2 1.6324997,1.6324997 0 0 0 -0.7,0.6 1.895833,1.895833 0 0 0 -0.258333,1.016666 q 0,0.7 0.3,1.1 A 1.6299997,1.6299997 0 0 0 14.291666,14.3 a 2.7549996,2.7549996 0 0 0 0.933333,0.166666 5.4224991,5.4224991 0 0 0 0.641667,-0.03333 2.7774996,2.7774996 0 0 0 0.458333,-0.08333 c 0.08333,0.01667 0.116667,0.04167 0.116667,0.108333 z"/>
</svg>
