<svg xmlns="http://www.w3.org/2000/svg" aria-hidden="true" viewBox="0 0 24 24">
  <path fill="#00005b" d="m5.5417 2.25h12.917a3.5383 3.5383 0 0 1 3.5417 3.5417v12.417a3.5383 3.5383 0 0 1-3.5417 3.5417h-12.917a3.5383 3.5383 0 0 1-3.5417-3.5417v-12.417a3.5383 3.5383 0 0 1 3.5417-3.5417z"/>
  <path fill="#99f" d="m11.567 14.358v1.3833a0.18417 0.18417 0 0 1-0.10833 0.19167 3.6442 3.6442 0 0 1-0.79167 0.18333 8.8683 8.8683 0 0 1-1.05 0.05833 5.9283 5.9283 0 0 1-1.4833-0.18333 4.595 4.595 0 0 1-1.2833-0.55 3.8167 3.8167 0 0 1-0.99167-0.90833 3.9558 3.9558 0 0 1-0.64167-1.25 5.2842 5.2842 0 0 1-0.225-1.6083c0-0.9 0.2-1.7 0.59167-2.3833a4.0767 4.0767 0 0 1 1.675-1.6 5.485 5.485 0 0 1 2.5917-0.6c0.35 0 0.69167 0.016667 1.0417 0.05a3.4792 3.4792 0 0 1 0.70833 0.15833 0.17417 0.17417 0 0 1 0.06667 0.15833v1.5083c0 0.083333-0.03333 0.10833-0.09167 0.083333a2.9608 2.9608 0 0 0-0.8-0.24167 6.4308 6.4308 0 0 0-0.98333-0.075 3.0833 3.0833 0 0 0-1.5417 0.375 2.49 2.49 0 0 0-0.99167 1 3.1617 3.1617 0 0 0-0.35 1.5083 3.2958 3.2958 0 0 0 0.16667 1.1 2.4167 2.4167 0 0 0 0.46667 0.81667 2.3533 2.3533 0 0 0 0.66667 0.55 3.2967 3.2967 0 0 0 0.8 0.3 3.4683 3.4683 0 0 0 0.825 0.125 8.2833 8.2833 0 0 0 0.90833-0.04167 3.0833 3.0833 0 0 0 0.725-0.18333c0.033333-0.024997 0.058333-0.03333 0.083333-0.016664a0.11583 0.11583 0 0 1 0.01667 0.09167z"/>
  <path fill="#99f" d="m14.65 11.192v4.7c0 0.075-0.03333 0.10833-0.09167 0.10833h-1.675a0.10333 0.10333 0 0 1-0.11667-0.09167v-9.2917c0-0.058333 0.03333-0.091667 0.10833-0.091667h1.6917a0.078333 0.078333 0 0 1 0.09167 0.066667v0.025l0.0083 3.1667a3.7583 3.7583 0 0 1 0.775-0.39167c0.28333-0.1 0.60833-0.125 0.98333-0.125a2.7425 2.7425 0 0 1 0.78333 0.11667 1.9567 1.9567 0 0 1 0.73333 0.39167c0.225 0.2 0.38333 0.475 0.51667 0.81667 0.13333 0.34167 0.2 0.79167 0.2 1.3333v3.95c0 0.08333-0.03333 0.11667-0.10833 0.11667h-1.575a0.115 0.115 0 0 1-0.13333-0.1v-3.7833a1.72 1.72 0 0 0-0.125-0.70833 1.015 1.015 0 0 0-0.35-0.425 1.13 1.13 0 0 0-0.61667-0.15 2.0308 2.0308 0 0 0-0.59167 0.08333 2.155 2.155 0 0 0-0.5083 0.28334z"/>
</svg>
