<svg xmlns="http://www.w3.org/2000/svg" aria-hidden="true" viewBox="0 0 24 24">
  <path fill="#b30b00" d="m5.5417 2.25h12.917a3.5383 3.5383 0 0 1 3.5417 3.5417v12.417a3.5383 3.5383 0 0 1-3.5417 3.5417h-12.917a3.5383 3.5383 0 0 1-3.5417-3.5417v-12.417a3.5383 3.5383 0 0 1 3.5417-3.5417z"/>
  <path fill="#fff" d="m18.083 13.542c-0.925-0.98333-3.4833-0.58333-4.0833-0.48333a10.417 10.417 0 0 1-1.7083-2.25 10.025 10.025 0 0 0 0.58333-2.95c0-0.9-0.35833-1.8667-1.3583-1.8667a1.0133 1.0133 0 0 0-0.84167 0.49167c-0.425 0.73333-0.25833 2.25 0.425 3.7833-0.4 1.125-0.975 2.75-1.7333 4.0667-1.025 0.40833-3.2 1.4083-3.4083 2.5167a0.93583 0.93583 0 0 0 0.3 0.88333 1.2683 1.2683 0 0 0 0.88333 0.31667c1.3083 0 2.6167-1.8167 3.5-3.375a22.225 22.225 0 0 1 3.1167-0.81667c1.3833 1.2083 2.6167 1.3917 3.2417 1.3917 0.85 0 1.1667-0.36667 1.2833-0.675a1.0408 1.0408 0 0 0-0.2-1.0333zm-0.9 0.63333c-0.04167 0.24167-0.35 0.48333-0.925 0.35833a4.6283 4.6283 0 0 1-1.8167-0.91667c0.45-0.075 1.5-0.175 2.2417-0.03333 0.26667 0.05 0.575 0.2 0.5 0.59167zm-5.9667-7.375a0.33333 0.33333 0 0 1 0.29167-0.18333c0.31667 0 0.38333 0.38333 0.38333 0.7a9.7317 9.7317 0 0 1-0.41667 2.225c-0.53333-1.4167-0.45833-2.4-0.25833-2.7417zm-0.075 6.925a20.932 20.932 0 0 0 0.825-1.9833 10.5 10.5 0 0 0 1.1333 1.4833 18.75 18.75 0 0 0-1.9583 0.5zm-2.0917 1.4333c-0.84167 1.35-1.6667 2.2-2.15 2.2a0.3425 0.3425 0 0 1-0.21667-0.075 0.31083 0.31083 0 0 1-0.10833-0.30833c0.091667-0.48333 1.05-1.1833 2.475-1.8167z"/>
</svg>
