<svg xmlns="http://www.w3.org/2000/svg" aria-hidden="true" viewBox="0 0 24 24">
  <path fill="#00005b" d="m5.5417 2.25h12.917a3.5383 3.5383 0 0 1 3.5417 3.5417v12.417a3.5383 3.5383 0 0 1-3.5417 3.5417h-12.917a3.5383 3.5383 0 0 1-3.5417-3.5408v-12.417a3.5383 3.5383 0 0 1 3.5417-3.5417z"/>
  <path fill="#99f" d="m9.855 13.917h-3.0967l-0.63167 1.9658a0.14417 0.14417 0 0 1-0.15583 0.11667h-1.5683c-0.093333 0-0.11667-0.04667-0.093333-0.14833l2.6833-7.7067a2.6667 2.6667 0 0 1 0.083333-0.27333 2.4117 2.4117 0 0 0 0.07-0.53083 0.083333 0.083333 0 0 1 0.0725-0.09h2.1608c0.055 0 0.10167 0.023333 0.10917 0.07l3.0267 8.5492c0.02333 0.09333 0 0.1325-0.08333 0.1325h-1.7425a0.125 0.125 0 0 1-0.1325-0.09333zm-2.6133-1.6592h2.1142c-0.046667-0.17167-0.11667-0.3825-0.195-0.60083-0.078333-0.21833-0.14833-0.46833-0.22583-0.7175-0.0775-0.24917-0.15583-0.50667-0.24167-0.76417-0.085833-0.2575-0.15583-0.5-0.22583-0.74083s-0.125-0.4525-0.1875-0.6475h-0.015833a10.937 10.937 0 0 1-0.28083 1.0767c-0.125 0.3975-0.25 0.81917-0.3825 1.2325a11.443 11.443 0 0 1-0.35917 1.1625z"/>
  <path fill="#99f" d="m18.903 9.4342v5.1092c0 0.22583 0 0.42083 0.0075 0.60083s0.01583 0.3275 0.02333 0.46c0.0075 0.1325 0.02333 0.21083 0.03083 0.29667 0.0075 0.08583-0.02333 0.10917-0.09333 0.10917h-1.4267a0.14667 0.14667 0 0 1-0.15583-0.09333l-0.04667-0.21083a0.64 0.64 0 0 1-0.01583-0.17167 2.375 2.375 0 0 1-0.94417 0.515 3.3725 3.3725 0 0 1-0.92833 0.125 2.7117 2.7117 0 0 1-0.905-0.14 1.775 1.775 0 0 1-0.71-0.46 2.0692 2.0692 0 0 1-0.46833-0.81083 3.7892 3.7892 0 0 1-0.16667-1.1858v-4.1358a0.095833 0.095833 0 0 1 0.083336-0.10917h1.6208a0.095833 0.095833 0 0 1 0.10833 0.084167v3.9392c0 0.36667 0.08333 0.655 0.24167 0.86583 0.15833 0.21083 0.48333 0.32 0.85833 0.32a1.595 1.595 0 0 0 0.56667-0.1 1.9567 1.9567 0 0 0 0.5225-0.27333v-4.7342c0-0.055 0.03917-0.093333 0.11667-0.093333h1.5917a0.083333 0.083333 0 0 1 0.09333 0.07 0.028333 0.028333 0 0 0-0.0042 0.023333z"/>
</svg>
