<svg xmlns="http://www.w3.org/2000/svg" aria-hidden="true" viewBox="0 0 24 24">
  <path fill="#000b1d" d="m5.5417 2.25h12.917a3.5383 3.5383 0 0 1 3.5417 3.5417v12.417a3.5383 3.5383 0 0 1-3.5417 3.5417h-12.917a3.5383 3.5383 0 0 1-3.5417-3.5417v-12.417a3.5383 3.5383 0 0 1 3.5417-3.5417z"/>
  <path fill="#fff" d="m13.022 10.417c-0.46667 1.565-0.85667 3.0758-1.3233 4.5517-0.265 0.83333-0.555 1.6275-0.92083 2.1325-0.40417 0.5675-1.1608 1.1108-2.0692 1.1108-0.64333 0-1.2742-0.3025-1.2742-0.97167 0-0.41667 0.42917-0.8075 0.77-0.8075a0.38417 0.38417 0 0 1 0.35333 0.20167c0.31583 0.5675 0.61833 0.89583 0.7575 0.89583 0.13917 0 0.25-0.18917 0.47917-1.0092l1.65-6.1042h-1.1858c-0.08833-0.265 0.0375-0.59333 0.18917-0.65583h1.1858c0.2275-0.73167 0.49333-1.4675 0.8725-2.1358 0.5675-1.0225 1.4767-1.8333 2.7258-1.8333 0.94667 0 1.3375 0.45417 1.3375 1.035-0.0125 0.61833-0.555 0.93333-0.8075 0.93333-0.20167 0-0.3025-0.15167-0.36583-0.36583-0.21417-0.8075-0.4925-1.0475-0.65583-1.0475s-0.41667 0.3025-0.69417 0.93333c-0.36583 0.795-0.6075 1.6442-0.83333 2.4767h1.4367c0.08833 0.17667 0.0125 0.555-0.20167 0.65583z"/>
</svg>
