<svg xmlns="http://www.w3.org/2000/svg" viewBox="0 0 24 24" width="24" height="24">
  <path fill="#000b1d" d="M 5.5416677,2.2500016 H 18.458332 a 3.5383328,3.5383328 0 0 1 3.541666,3.5416661 V 18.208332 a 3.5383328,3.5383328 0 0 1 -3.541666,3.541666 H 5.5416677 A 3.5383328,3.5383328 0 0 1 2.0000016,18.208332 V 5.7916677 A 3.5383328,3.5383328 0 0 1 5.5416677,2.2500016 Z" />
  <path fill="#ffffff" d="m 6.5916675,15.933333 -0.00833,-8.5166656 c 0,-0.083333 0.025,-0.1249999 0.083333,-0.1333333 0.15,-0.00833 0.3833333,-0.016667 0.6999999,-0.016667 0.3166666,0 0.6166666,-0.00833 0.9833332,-0.016667 0.3666666,-0.00833 0.6999999,-0.00833 1.0083332,-0.00833 0.7333332,0 1.3333332,0.05 1.7666662,0.2166666 a 2.6233329,2.6233329 0 0 1 1,0.6083332 1.9541664,1.9541664 0 0 1 0.491667,0.7749999 2.4649996,2.4649996 0 0 1 0.116666,0.7416666 A 2.1199997,2.1199997 0 0 1 12.575,10.366667 1.8249997,1.8249997 0 0 1 12.25,10.933334 1.5099998,1.5099998 0 0 1 11.891667,11.266667 2.8883329,2.8883329 0 0 1 12.425,11.633333 2.063333,2.063333 0 0 1 12.925,12.3 2.1666663,2.1666663 0 0 1 13.158333,13.316666 2.4216663,2.4216663 0 0 1 12.691667,14.758333 2.8674995,2.8674995 0 0 1 11.4,15.716666 5.1666658,5.1666658 0 0 1 9.3916671,16.074999 H 8.5083339 c -0.2833333,0 -0.5166666,0 -0.7583332,-0.0083 -0.2416666,-0.0083 -0.4416666,-0.0083 -0.6166666,-0.01667 -0.175,-0.0083 -0.3249999,-0.0083 -0.4499999,-0.0083 -0.066667,0 -0.091667,-0.04167 -0.091667,-0.108333 z m 1.8083331,-7.1083325 0.00833,1.8583335 h 0.8749999 c 0.2416666,0 0.4749999,0.0083 0.7083332,0.01667 a 2.5433329,2.5433329 0 0 1 0.5000003,0.05 1.3433331,1.3433331 0 0 0 0.291667,-0.358333 1.0166665,1.0166665 0 0 0 0.133333,-0.5166666 1.0474998,1.0474998 0 0 0 -0.2,-0.6166666 1.0833332,1.0833332 0 0 0 -0.5,-0.3416666 A 2.6483329,2.6483329 0 0 0 9.3666671,8.8083339 H 8.9750005 c -0.1166667,0 -0.1916667,0 -0.2833333,0.00833 -0.091667,0.00833 -0.1833333,0.00833 -0.2916666,0.00833 z m 0.00833,3.4166665 V 14.475 c 0.15,0.0083 0.2666666,0.01667 0.4249999,0.01667 0.1583333,0 0.3333333,0.0083 0.55,0.0083 a 3.5108328,3.5108328 0 0 0 0.9750005,-0.116667 1.2658331,1.2658331 0 0 0 0.633333,-0.375 A 0.99999984,0.99999984 0 0 0 11.25,13.375 1.1049998,1.1049998 0 0 0 11.025,12.741667 c -0.116666,-0.175 -0.333333,-0.325 -0.641666,-0.408334 a 2.8266662,2.8266662 0 0 0 -0.366667,-0.06667 4.8566659,4.8566659 0 0 0 -0.4916666,-0.025 z" />
  <path fill="#ffffff" d="m 14.35,9.3333338 h 1.458333 a 0.18749997,0.18749997 0 0 1 0.175,0.1333333 0.52583325,0.52583325 0 0 1 0.06667,0.1916666 c 0.01667,0.083333 0.03333,0.175 0.04167,0.2583333 0.0083,0.083333 0.01667,0.225 0.01667,0.333333 a 3.2149995,3.2149995 0 0 1 0.891666,-0.7499996 c 0.358333,-0.1999999 0.741667,-0.2499999 1.208333,-0.2499999 a 0.10333332,0.10333332 0 0 1 0.116667,0.091667 V 10.975 c 0,0.06667 -0.04167,0.09167 -0.133333,0.09167 a 3.2499995,3.2499995 0 0 0 -0.85,0.05833 3.4291661,3.4291661 0 0 0 -0.7,0.225 1.5833331,1.5833331 0 0 0 -0.491667,0.308333 v 4.225 c 0,0.08333 -0.03333,0.116666 -0.108333,0.116666 h -1.583333 a 0.11499998,0.11499998 0 0 1 -0.133333,-0.1 v -4.616666 c 0,-0.199999 0,-0.408333 -0.0083,-0.624999 -0.0083,-0.216667 -0.0083,-0.433334 -0.01667,-0.65 -0.0083,-0.1916669 -0.025,-0.3916669 -0.05,-0.5833335 a 0.07666665,0.07666665 0 0 1 0.05833,-0.091667 z" />
</svg>
