<svg xmlns="http://www.w3.org/2000/svg" viewBox="0 0 24 24" aria-hidden="true">
  <path fill="#00005b" d="M 5.5416677,2.2500016 H 18.458332 a 3.5383328,3.5383328 0 0 1 3.541666,3.5416661 V 18.208332 a 3.5383328,3.5383328 0 0 1 -3.541666,3.541666 H 5.5416677 A 3.5383328,3.5383328 0 0 1 2.0000016,18.208332 V 5.7916677 A 3.5383328,3.5383328 0 0 1 5.5416677,2.2500016 Z"/>
  <path fill="#99f" d="m 18.226666,13.076406 h -2.603333 a 2.0133333,2.0356912 0 0 0 0.269166,0.765069 1.3591666,1.37426 0 0 0 0.600834,0.501339 2.5974999,2.6263449 0 0 0 1.071666,0.230027 3.6108332,3.6509312 0 0 0 0.738334,-0.05898 3.5541665,3.5936353 0 0 0 0.773333,-0.233397 q 0.06583,-0.05308 0.06583,0.06656 v 1.268937 a 0.19583333,0.19800804 0 0 1 -0.02,0.100268 0.18833333,0.19042475 0 0 1 -0.05917,0.05982 3.7041665,3.745301 0 0 1 -0.859167,0.287322 5.3058331,5.364754 0 0 1 -1.07,0.04213 3.7699998,3.8118654 0 0 1 -1.5725,-0.28985 A 2.8033332,2.834464 0 0 1 14.530833,15.026995 3.0549999,3.0889254 0 0 1 13.9625,13.938372 4.2408332,4.2879273 0 0 1 13.790833,12.729259 4.1666665,4.212937 0 0 1 14,11.409768 a 3.3958332,3.4335437 0 0 1 0.614166,-1.135808 2.9508332,2.983602 0 0 1 0.990833,-0.788662 3.0991665,3.1335825 0 0 1 1.374167,-0.2873223 3.3074999,3.3442294 0 0 1 1.343333,0.2679428 2.3049999,2.3305967 0 0 1 0.865834,0.6883935 2.9999999,3.0333146 0 0 1 0.485833,0.942856 3.3208332,3.3577108 0 0 1 0.158333,1.015318 q 0,0.294063 -0.02,0.5342 a 2.2749999,2.3002636 0 0 1 -0.05083,0.283109 0.12,0.12133259 0 0 1 -0.119167,0.107009 c -0.0525,0 -0.143333,0.0067 -0.270833,0.02022 -0.1275,0.01348 -0.355,0.0084 -0.544167,0.01264 -0.189166,0.0042 -0.389166,0.0067 -0.600833,0.0067 z m -2.610833,-1.061661 h 1.730833 q 0.3175,0 0.469167,-0.0067 a 0.9308333,0.94117013 0 0 0 0.191666,-0.02022 v -0.08426 a 2.2266666,2.2513935 0 0 0 -0.0275,-0.477747 1.0833333,1.0953636 0 0 0 -1.07,-0.758329 1.1483333,1.1610854 0 0 0 -1.09,0.627728 2.7741666,2.8049735 0 0 0 -0.204166,0.719569 z"/>
  <path fill="#99f" d="m 4.9649999,7.412533 a 0.08833333,0.08931426 0 0 1 0.096667,-0.084259 h 2.3141666 a 0.12583333,0.1272307 0 0 1 0.1383333,0.093527 c 0.058333,0.2317115 0.13,0.3993864 0.2133334,0.7237825 0.083333,0.3243962 0.1733333,0.6883939 0.2725,1.0801971 l 0.2916666,1.2023714 q 0.1508333,0.614247 0.295,1.195632 0.1441667,0.581385 0.2466667,1.069243 0.1,0.487858 0.1666666,0.808042 h 0.0125 q 0.05,-0.280582 0.1758333,-0.748218 0.1258334,-0.467636 0.2891667,-1.049021 0.1666667,-0.581386 0.3333333,-1.195632 0.1666667,-0.6142456 0.3333326,-1.215853 0.166667,-0.6016074 0.3075,-1.1155857 C 10.548333,7.8338267 10.625,7.6577259 10.684166,7.4260144 A 0.11,0.11122154 0 0 1 10.7975,7.3324872 h 2.25 a 0.1,0.10111049 0 0 1 0.1125,0.084259 c 0,0 0,0.00506 0,0.00758 l 0.301666,8.3694208 a 0.08833333,0.08931426 0 0 1 -0.01833,0.08426 0.10833333,0.10953636 0 0 1 -0.08333,0.0337 h -1.640834 a 0.09833333,0.09942531 0 0 1 -0.0625,-0.02022 0.08833333,0.08931426 0 0 1 -0.025,-0.0733 c 0,-0.454155 0,-0.872921 -0.0067,-1.371732 -0.0067,-0.498812 -0.01083,-1.000152 -0.01917,-1.503176 -0.0083,-0.503025 -0.0083,-0.98667 0,-1.449251 0.0083,-0.46258 0.0125,-0.890615 0.0125,-1.282418 0,-0.3918028 0,-0.7322081 0.0067,-1.0220582 0.0067,-0.28985 0.0058,-0.5055524 0.0067,-0.6479497 h -0.0125 q -0.07583,0.337035 -0.200833,0.8754483 -0.125,0.5384134 -0.295,1.2158536 -0.166667,0.67407 -0.364167,1.396167 -0.1975,0.722098 -0.376666,1.432399 -0.1825,0.708616 -0.351667,1.322862 c -0.1133333,0.409498 -0.2066666,0.712829 -0.2825,1.024586 A 0.13833333,0.13986951 0 0 1 9.6099997,15.915925 H 8.1933331 A 0.13499999,0.13649916 0 0 1 8.0424998,15.808916 c -0.075,-0.311757 -0.1616667,-0.615088 -0.2575,-1.024586 -0.095833,-0.409497 -0.1941667,-0.837532 -0.295,-1.282418 -0.1008333,-0.444886 -0.2075,-0.901568 -0.32,-1.369204 -0.1125,-0.467636 -0.22,-0.920106 -0.32,-1.356566 -0.1,-0.43646 -0.1908333,-0.8425875 -0.27,-1.2293351 C 6.5008332,9.1600593 6.4258332,8.8221817 6.3591665,8.5306465 h -0.025833 v 1.055762 q 0,0.6150885 -0.019167,1.3565655 -0.019167,0.741477 -0.0375,1.549518 -0.018333,0.808884 -0.044167,1.670009 c -0.016667,0.574644 -0.0375,1.08441 -0.0625,1.645573 0,0.07162 -0.033333,0.107008 -0.1,0.107008 H 4.6141666 a 0.15083333,0.15250832 0 0 1 -0.083333,-0.02022 q -0.031667,-0.02022 -0.019167,-0.100268 z"/>
</svg>
