<svg xmlns="http://www.w3.org/2000/svg" aria-hidden="true" viewBox="0 0 24 24">
  <path fill="#00005b" d="m5.5417 2.25h12.917a3.5383 3.5383 0 0 1 3.5417 3.5417v12.417a3.5383 3.5383 0 0 1-3.5417 3.5417h-12.917a3.5383 3.5383 0 0 1-3.5417-3.5417v-12.417a3.5383 3.5383 0 0 1 3.5417-3.5417z"/>
  <path fill="#99f" d="m10.033 13.917h-3.1l-0.63333 1.9667a0.14583 0.14583 0 0 1-0.15833 0.11667h-1.5667c-0.09167 0-0.11667-0.05-0.09167-0.15l2.6833-7.6917c0.025-0.08333 0.05-0.15833 0.08333-0.25833a2.9108 2.9108 0 0 0 0.05-0.54167 0.083333 0.083333 0 0 1 0.06667-0.09167h2.1583c0.05833 0 0.1 0.025 0.10833 0.06667l3.0417 8.5417c0.025 0.09167 0 0.13333-0.08333 0.13333h-1.7417a0.12583 0.12583 0 0 1-0.13333-0.09167zm-2.6167-1.6583h2.1167c-0.05-0.175-0.11667-0.38333-0.19167-0.6-0.075-0.21667-0.15-0.46667-0.225-0.71667s-0.15833-0.50833-0.24167-0.76667c-0.08333-0.25833-0.15833-0.5-0.225-0.74167-0.06667-0.24167-0.125-0.45-0.18333-0.65h-0.01667a10.232 10.232 0 0 1-0.28333 1.075c-0.125 0.4-0.25 0.81667-0.38333 1.2333-0.10833 0.425-0.24167 0.81667-0.36667 1.1667z"/>
  <path fill="#99f" d="m17.617 13.15h-2.6417a1.8333 1.8333 0 0 0 0.25833 0.74167 1.3217 1.3217 0 0 0 0.60833 0.5 2.5917 2.5917 0 0 0 1.0667 0.20833 5.0125 5.0125 0 0 0 0.86667-0.09167 3.1292 3.1292 0 0 0 0.74167-0.19167c0.04167-0.03333 0.06667-0.01667 0.06667 0.06667v1.275a0.41667 0.41667 0 0 1-0.01667 0.1 0.195 0.195 0 0 1-0.05833 0.05833 3.565 3.565 0 0 1-0.83333 0.25 5.6292 5.6292 0 0 1-1.1833 0.1c-0.63333 0-1.1667-0.1-1.6-0.29167a2.8058 2.8058 0 0 1-1.05-0.79167 3.0583 3.0583 0 0 1-0.575-1.0917 4.3175 4.3175 0 0 1 0.03333-2.5417 3.4008 3.4008 0 0 1 0.625-1.1417 3.02 3.02 0 0 1 1.0083-0.79167c0.39167-0.19167 0.85833-0.25833 1.3917-0.25833a3.01 3.01 0 0 1 1.2917 0.25833 2.295 2.295 0 0 1 0.875 0.66667 3.0508 3.0508 0 0 1 0.5 0.95 3.2775 3.2775 0 0 1 0.15833 1.0167c0 0.2-0.0083 0.375-0.01667 0.53333-0.0083 0.15833-0.025 0.275-0.03333 0.35a0.12417 0.12417 0 0 1-0.11667 0.10833c-0.05 0-0.14167 0.0083-0.275 0.01667a3.9442 3.9442 0 0 1-0.48333 0.025c-0.19167-4e-6 -0.39167-0.033337-0.60833-0.033337zm-2.6417-1.2167h1.7583c0.21667 0 0.375 0 0.475-0.0083a0.4075 0.4075 0 0 0 0.19167-0.06667v-0.083363a0.95667 0.95667 0 0 0-0.05-0.30833 1.1033 1.1033 0 0 0-1.0833-0.76667 1.1733 1.1733 0 0 0-1.1083 0.63333 1.7275 1.7275 0 0 0-0.18333 0.6z"/>
</svg>
