<svg xmlns="http://www.w3.org/2000/svg" viewBox="0 0 24 24" width="24" height="24">
  <path fill="#001e36" d="M 5.5416665,2.25 H 18.458333 c 1.958333,0 3.541666,1.5833333 3.541666,3.5416665 V 18.208333 c 0,1.958333 -1.583333,3.541666 -3.541666,3.541666 H 5.5416665 C 3.5833333,21.749999 2,20.166666 2,18.208333 V 5.7916665 C 2,3.8333333 3.5833333,2.25 5.5416665,2.25 Z"/>
  <path fill="#31a8ff" d="M 7.8499998,14.841666 V 8.7749997 c 0,-0.041667 0.016667,-0.066667 0.058333,-0.066667 0.1,0 0.1916667,0 0.3333333,-0.00833 0.1416667,0 0.2916667,-0.00833 0.45,-0.00833 0.1583333,0 0.3333333,-0.00833 0.5166666,-0.00833 0.1833334,0 0.3583334,-0.00833 0.5333334,-0.00833 0.4166669,-0.00833 0.8249999,0.05 1.2166669,0.1833334 0.3,0.1 0.566667,0.2666666 0.791667,0.4833333 0.191666,0.1916666 0.341666,0.4166666 0.433333,0.6666666 0.09167,0.241667 0.133333,0.5 0.133333,0.766667 0,0.508333 -0.116666,0.925 -0.35,1.258333 -0.233333,0.333333 -0.566666,0.583333 -0.95,0.716667 -0.425,0.141666 -0.875,0.216666 -1.3333333,0.2 -0.1416666,0 -0.2416666,0 -0.2916666,-0.0083 -0.058333,0 -0.1416667,-0.0083 -0.2583334,-0.0083 v 1.9 c 0.00833,0.04167 -0.025,0.08333 -0.066667,0.08333 -0.00833,0 -0.016667,0 -0.025,0 h -1.125 c -0.05,0 -0.066667,-0.025 -0.066667,-0.075 z M 9.133333,9.8416664 V 11.825 c 0.083333,0.0083 0.1583334,0.0083 0.225,0.0083 h 0.3166667 c 0.2333333,0 0.4583333,-0.03333 0.6833333,-0.108333 0.191667,-0.05833 0.358333,-0.166667 0.483333,-0.316667 0.125,-0.141667 0.183334,-0.35 0.183334,-0.608333 0.0083,-0.183334 -0.04167,-0.366667 -0.141667,-0.525 -0.1,-0.15 -0.241667,-0.266667 -0.416667,-0.3333336 -0.225,-0.083333 -0.458333,-0.125 -0.6916663,-0.1166667 -0.15,0 -0.2833333,0 -0.4,0.00833 -0.1166667,0 -0.2,0.00833 -0.2416667,0.00833 z"/>
  <path fill="#31a8ff" d="m 15.991666,11.466666 c -0.175,-0.09167 -0.366667,-0.158333 -0.566667,-0.2 -0.216666,-0.05 -0.441666,-0.075 -0.658333,-0.075 -0.116667,0 -0.241667,0.0083 -0.358333,0.04167 -0.075,0.01667 -0.141667,0.05833 -0.183333,0.116667 -0.03333,0.05 -0.05,0.108333 -0.05,0.158333 0,0.05833 0.025,0.108333 0.05833,0.15 0.05833,0.06667 0.125,0.116667 0.2,0.158333 0.133333,0.075 0.275,0.141667 0.416666,0.191667 0.316667,0.108333 0.625,0.25 0.908334,0.433333 0.191666,0.125 0.35,0.291667 0.466666,0.491667 0.09167,0.191667 0.141667,0.4 0.141667,0.608333 0.0083,0.275 -0.075,0.55 -0.225,0.783334 -0.166667,0.233333 -0.391667,0.416666 -0.658333,0.524999 -0.341667,0.133334 -0.7,0.2 -1.066667,0.191667 -0.266666,0 -0.541666,-0.025 -0.8,-0.075 -0.208333,-0.04167 -0.408333,-0.1 -0.6,-0.191667 C 12.975,14.75 12.95,14.708333 12.95,14.658333 v -1.025 c 0,-0.01667 0.0083,-0.04167 0.025,-0.05 0.01667,-0.0083 0.04167,-0.0083 0.05,0.0083 0.225,0.133334 0.475,0.233334 0.733333,0.291667 0.225,0.05833 0.458333,0.08333 0.691667,0.09167 0.166666,0.0083 0.333333,-0.01667 0.491666,-0.08333 0.1,-0.04167 0.158333,-0.141666 0.158333,-0.25 -0.0083,-0.1 -0.05833,-0.183333 -0.141666,-0.241666 -0.183334,-0.116667 -0.375,-0.208334 -0.583333,-0.275 -0.3,-0.1 -0.583334,-0.25 -0.841667,-0.425 -0.183333,-0.133334 -0.341667,-0.3 -0.45,-0.5 -0.09167,-0.183334 -0.141667,-0.391667 -0.141667,-0.6 0,-0.25 0.06667,-0.5 0.2,-0.716667 0.15,-0.233333 0.366667,-0.425 0.616667,-0.541667 0.325,-0.15 0.683333,-0.225 1.041666,-0.208333 0.241667,0 0.491667,0.01667 0.733334,0.05 0.175,0.025 0.35,0.06667 0.508333,0.141667 0.025,0.0083 0.05,0.025 0.05833,0.05 0.0083,0.025 0.0083,0.05 0.0083,0.075 v 0.958333 c 0,0.025 -0.0083,0.04167 -0.025,0.05833 -0.04167,0.0083 -0.06667,0.0083 -0.09167,0 z"/>
  <path fill="#31a8ff60" d="m 12.016666,19.266666 c -4.0166662,0 -7.2666661,-3.25 -7.2666661,-7.266666 0,-4.0166669 3.2499999,-7.2666668 7.2666661,-7.2666668 0,0 0,0 0,0 1.141667,0 2.258334,0.2666667 3.275,0.7833333 0.08333,0.041667 0.116667,0.1416667 0.075,0.225 -0.04167,0.083333 -0.141667,0.1166667 -0.225,0.075 0,0 0,0 0,0 C 14.175,5.3249999 13.1,5.0666666 12.016666,5.0749999 8.1916664,5.0666666 5.0833332,8.1749998 5.0833332,12 c 0,3.824999 3.0999999,6.933333 6.9333328,6.933333 3.833333,0 6.933333,-3.1 6.933333,-6.933333 0,0 0,0 0,0 0,-1.091667 -0.258333,-2.166667 -0.75,-3.1416669 -0.04167,-0.083333 -0.0083,-0.1833334 0.075,-0.225 0.08333,-0.041667 0.183334,-0.00833 0.225,0.075 0.516667,1.0166666 0.791667,2.1499999 0.791667,3.2916669 -0.0083,4.008333 -3.258333,7.258333 -7.275,7.266666 z" />
</svg>
