<svg xmlns="http://www.w3.org/2000/svg" viewBox="0 0 24 24" aria-hidden="true">
  <path fill="#000b1d" d="M 5.5416677,2.2500016 H 18.458332 a 3.5383328,3.5383328 0 0 1 3.541666,3.5416661 V 18.208332 a 3.5383328,3.5383328 0 0 1 -3.541666,3.541666 H 5.5416677 A 3.5383328,3.5383328 0 0 1 2.0000016,18.208332 V 5.7916677 A 3.5383328,3.5383328 0 0 1 5.5416677,2.2500016 Z"/>
  <path fill="#fff" d="m 13.0225,10.416667 c -0.466667,1.565 -0.856667,3.075833 -1.323333,4.551666 -0.265,0.833333 -0.555,1.6275 -0.920833,2.1325 -0.404167,0.567499 -1.1608336,1.110833 -2.0691668,1.110833 -0.6433332,0 -1.2741665,-0.3025 -1.2741665,-0.971667 0,-0.416666 0.4291666,-0.8075 0.7699999,-0.8075 a 0.38416661,0.38416661 0 0 1 0.3533333,0.201667 c 0.3158333,0.5675 0.6183332,0.895833 0.7574999,0.895833 0.1391666,0 0.2499999,-0.189166 0.4791666,-1.009166 L 11.445,10.416667 h -1.185833 c -0.08833,-0.265 0.0375,-0.5933333 0.189167,-0.6558333 h 1.185833 c 0.2275,-0.7316665 0.493333,-1.4674997 0.8725,-2.135833 0.567499,-1.0224998 1.476666,-1.833333 2.725832,-1.833333 0.946667,0 1.3375,0.4541666 1.3375,1.0349998 -0.0125,0.6183333 -0.555,0.9333332 -0.8075,0.9333332 -0.201666,0 -0.3025,-0.1516666 -0.365833,-0.3658333 -0.214167,-0.8074998 -0.4925,-1.0474998 -0.655833,-1.0474998 -0.163333,0 -0.416667,0.3025 -0.694167,0.9333332 -0.365833,0.7949999 -0.6075,1.6441664 -0.833333,2.4766663 H 14.65 c 0.08833,0.1766666 0.0125,0.5549999 -0.201667,0.6558329 z"/>
</svg>
