<svg xmlns="http://www.w3.org/2000/svg" aria-hidden="true" viewBox="0 0 24 24">
  <path fill="#013301" d="m5.5417 2.25h12.917a3.5383 3.5383 0 0 1 3.5417 3.5417v12.417a3.5383 3.5383 0 0 1-3.5417 3.5417h-12.917a3.5383 3.5383 0 0 1-3.5417-3.5417v-12.417a3.5383 3.5383 0 0 1 3.5417-3.5417z"/>
  <path fill="#3f6" d="m11 13.917h-3.1l-0.63333 1.9667a0.14583 0.14583 0 0 1-0.15833 0.11667h-1.5667c-0.091667 0-0.11667-0.05-0.091667-0.15l2.6833-7.7c0.025-0.083333 0.05-0.15833 0.083333-0.25833a2.9108 2.9108 0 0 0 0.05-0.54167 0.083333 0.083333 0 0 1 0.066667-0.091667h2.1583c0.06667 0 0.1 0.025 0.10833 0.066667l3.0417 8.5417c0.025 0.09167 0 0.13333-0.08333 0.13333h-1.7417a0.12583 0.12583 0 0 1-0.13333-0.09167zm-2.6167-1.6583h2.1167c-0.05-0.175-0.11667-0.38333-0.19167-0.6-0.075-0.21667-0.15-0.46667-0.225-0.71667s-0.15833-0.50833-0.24167-0.76667c-0.083333-0.25833-0.15833-0.5-0.225-0.74167-0.066667-0.24167-0.125-0.45-0.18333-0.65h-0.016667a10.232 10.232 0 0 1-0.28333 1.075c-0.125 0.4-0.25 0.81667-0.38333 1.2333-0.11667 0.425-0.24167 0.81667-0.36667 1.1667z"/>
  <path fill="#3f6" d="m14.533 9.3333h1.4583a0.1875 0.1875 0 0 1 0.175 0.13333 0.935 0.935 0 0 1 0.06667 0.21667c0.01667 0.083333 0.03333 0.175 0.04167 0.25833 0.0083 0.083333 0.01667 0.19167 0.01667 0.3a3.1017 3.1017 0 0 1 0.89167-0.71667 2.3058 2.3058 0 0 1 1.1917-0.3 0.10333 0.10333 0 0 1 0.11667 0.091667v1.6583c0 0.06667-0.04167 0.09167-0.13333 0.09167a3.1233 3.1233 0 0 0-0.83333 0.05833 3.4292 3.4292 0 0 0-0.7 0.225c-0.19167 0.09167-0.4 0.19167-0.5 0.30833v4.225c0 0.08333-0.03333 0.11667-0.10833 0.11667h-1.5667a0.115 0.115 0 0 1-0.13333-0.1v-4.6167c0-0.2 0-0.40833-0.0083-0.625-0.0083-0.21667-0.0083-0.43333-0.01667-0.65-0.0083-0.19167-0.025-0.39167-0.05-0.58333a0.076667 0.076667 0 0 1 0.058304-0.091667z"/>
</svg>
