<svg xmlns="http://www.w3.org/2000/svg" aria-hidden="true" viewBox="0 0 24 24">
  <path fill="#49021f" d="m5.5417 2.25h12.917a3.5383 3.5383 0 0 1 3.5417 3.5417v12.417a3.5383 3.5383 0 0 1-3.5417 3.5417h-12.917a3.5383 3.5383 0 0 1-3.5417-3.5417v-12.417a3.5383 3.5383 0 0 1 3.5417-3.5417z"/>
  <path fill="#f36" d="m10.042 7.35v8.55c0 0.09167-0.04167 0.13333-0.11667 0.13333h-1.625c-0.075 0-0.10833-0.04167-0.10833-0.13333v-8.55c0-0.075 0.041667-0.10833 0.11667-0.10833h1.625a0.094167 0.094167 0 0 1 0.10833 0.083333z"/>
  <path fill="#f36" d="m16.442 14.458v1.3833a0.12417 0.12417 0 0 1-0.06667 0.11667 2.5692 2.5692 0 0 1-0.70833 0.15833c-0.26667 0.025-0.525 0.04167-0.775 0.04167a3.9633 3.9633 0 0 1-1.4917-0.25834 3.1908 3.1908 0 0 1-1.1167-0.725 3.4167 3.4167 0 0 1-0.70833-1.1 3.7733 3.7733 0 0 1-0.25-1.3583 3.5283 3.5283 0 0 1 0.46667-1.8083 3.3333 3.3333 0 0 1 1.325-1.2417 4.2067 4.2067 0 0 1 1.9917-0.45833 4.1667 4.1667 0 0 1 0.79167 0.05 4.5075 4.5075 0 0 1 0.45833 0.1 0.15333 0.15333 0 0 1 0.06667 0.15l-0.01667 1.3833c0 0.08333-0.03333 0.10833-0.10833 0.09167a2.8417 2.8417 0 0 0-0.45833-0.11667 4.5733 4.5733 0 0 0-0.66667-0.05 2.3725 2.3725 0 0 0-0.99167 0.2 1.6325 1.6325 0 0 0-0.7 0.6 1.8958 1.8958 0 0 0-0.25833 1.0167q0 0.7 0.3 1.1a1.63 1.63 0 0 0 0.76667 0.56666 2.755 2.755 0 0 0 0.93333 0.16667 5.4225 5.4225 0 0 0 0.64167-0.03333 2.7775 2.7775 0 0 0 0.45833-0.08333c0.08333 0.01667 0.11667 0.04167 0.11667 0.10833z"/>
</svg>
