<svg xmlns="http://www.w3.org/2000/svg" aria-hidden="true" viewBox="0 0 24 24">
  <path fill="#001e36" d="m5.5417 2.25h12.917a3.5383 3.5383 0 0 1 3.5417 3.5417v12.417a3.5383 3.5383 0 0 1-3.5417 3.5417h-12.917a3.5383 3.5383 0 0 1-3.5417-3.5417v-12.417a3.5383 3.5383 0 0 1 3.5417-3.5417z"/>
  <g fill="#31a8ff">
    <path d="m9.0167 16.033h-4.7583c-0.083333 0-0.11667-0.05-0.11667-0.15v-8.5167c0-0.083333 0.033333-0.11667 0.10833-0.11667h1.475c0.058333 0 0.083333 0.033333 0.083333 0.091667v7h3.4667c0.075 0 0.1 0.04167 0.083333 0.11667l-0.21667 1.45a0.1425 0.1425 0 0 1-0.05 0.1 0.13417 0.13417 0 0 1-0.074999 0.025z"/>
    <path d="m10.208 9.3667h1.3167c0.075 0 0.125 0.041667 0.15833 0.13333a0.73167 0.73167 0 0 1 0.05833 0.19167c0.01667 0.083333 0.025 0.175 0.03333 0.25833 0.0083 0.083334 0.0083 0.19167 0.0083 0.3a2.86 2.86 0 0 1 0.8-0.71667 2.1008 2.1008 0 0 1 1.1167-0.3c0.075 0 0.10833 0.041667 0.10833 0.11667v1.625c0 0.06667-0.04167 0.09167-0.11667 0.09167a2.6883 2.6883 0 0 0-1.4166 0.28333 1.4658 1.4658 0 0 0-0.40833 0.30833v4.25c0 0.08333-0.03333 0.11667-0.1 0.11667h-1.45c-0.083333 0-0.11667-0.041666-0.11667-0.13333v-4.6167c0-0.2 0-0.40833-0.0083-0.625-0.0083-0.21667-0.0083-0.43333-0.01667-0.65q-0.01253-0.275-0.05003-0.55a0.12417 0.12417 0 0 1 0.01667-0.075 0.094167 0.094167 0 0 1 0.06667-0.00833z"/>
    <path d="m19.717 8.1333a2.1142 2.1142 0 0 0-0.55833-0.14167 7.2683 7.2683 0 0 0-0.85-0.05c-0.81667 0-1.5333 0.175-2.125 0.51667a3.5875 3.5875 0 0 0-1.3833 1.4583c-0.325 0.61667-0.48333 1.35-0.48333 2.1667a5.4867 5.4867 0 0 0 0.18333 1.4667 3.8625 3.8625 0 0 0 0.53333 1.1417 3.3408 3.3408 0 0 0 0.81667 0.825 3.25 3.25 0 0 0 1.0583 0.5 4.6075 4.6075 0 0 0 1.2167 0.16667 5.8633 5.8633 0 0 0 0.85833-0.05833 2.6667 2.6667 0 0 0 0.675-0.16667 0.22417 0.22417 0 0 0 0.125-0.225v-1.2417a0.145 0.145 0 0 0-0.04167-0.125 0.1 0.1 0 0 0-0.13333 0.0083 2.7117 2.7117 0 0 1-0.58333 0.14167 7.035 7.035 0 0 1-0.725 0.03333 2.4483 2.4483 0 0 1-0.65-0.09167 2.4925 2.4925 0 0 1-0.63333-0.26667 1.82 1.82 0 0 1-0.525-0.48333 2.535 2.535 0 0 1-0.36667-0.71667 3.2042 3.2042 0 0 1-0.13333-0.975 3.0625 3.0625 0 0 1 0.275-1.3333 2.0925 2.0925 0 0 1 0.78333-0.875 2.31 2.31 0 0 1 1.2167-0.31667 4.1442 4.1442 0 0 1 0.78333 0.066667 1.9592 1.9592 0 0 1 0.6 0.2 0.12333 0.12333 0 0 0 0.10833 0 0.14333 0.14333 0 0 0 0.05-0.125v-1.3a0.20417 0.20417 0 0 0-0.09167-0.2z"/>
  </g>
</svg>
