<svg xmlns="http://www.w3.org/2000/svg" aria-hidden="true" viewBox="0 0 24 24">
  <path fill="#000b1d" d="m5.5417 2.25h12.917a3.5383 3.5383 0 0 1 3.5417 3.5417v12.417a3.5383 3.5383 0 0 1-3.5417 3.5417h-12.917a3.5383 3.5383 0 0 1-3.5417-3.5417v-12.417a3.5383 3.5383 0 0 1 3.5417-3.5417z"/>
  <path fill="#fff" d="m6.75 15.875v-8.525c0-0.058333 0.025-0.091667 0.083333-0.091667 0.14167 0 0.31667 0 0.50833-0.00833s0.40833-0.00833 0.63333-0.016667c0.225-0.00833 0.46667-0.00833 0.725-0.016667 0.25833-0.00833 0.50833-0.00833 0.75833-0.00833 0.68333 0 1.25 0.083333 1.7167 0.25833a2.9758 2.9758 0 0 1 1.1167 0.68333 2.6533 2.6533 0 0 1 0.60833 0.95 3.19 3.19 0 0 1 0.19167 1.0833q0 1.075-0.5 1.775a2.855 2.855 0 0 1-1.3417 1.0167 5.3425 5.3425 0 0 1-1.875 0.31667c-0.2 0-0.33333 0-0.41667-0.0083-0.083333-0.008367-0.23333 0.016633-0.39167 0.016633v2.6a0.10333 0.10333 0 0 1-0.091667 0.11667h-0.033333l-1.6-0.025c-0.058333-0.0083-0.091667-0.04167-0.091667-0.11667zm1.8167-6.9833v2.775c0.11667 0.0083 0.25833-0.0083 0.35833-0.0083h0.44167a3.0983 3.0983 0 0 0 0.95833-0.13337 1.4333 1.4333 0 0 0 0.68333-0.44167c0.175-0.20833 0.25833-0.49167 0.25833-0.85833a1.3717 1.3717 0 0 0-0.19167-0.74167 1.2083 1.2083 0 0 0-0.58333-0.475 2.445 2.445 0 0 0-0.98333-0.16667c-0.21667 0-0.40833 0-0.56667 0.00833a1.9167 1.9167 0 0 0-0.375 0.041667z"/>
  <path fill="#fff" d="m14.833 10.908h-0.825c-0.06667-0.0083-0.09167-0.04167-0.09167-0.09167v-1.375a0.083333 0.083333 0 0 1 0.06667-0.091667h0.85v-0.19167a4.7767 4.7767 0 0 1 0.066667-0.84167 2.7742 2.7742 0 0 1 0.21667-0.675 2.3492 2.3492 0 0 1 0.76667-0.9c0.33333-0.23333 0.76667-0.35 1.3167-0.35 0.13333 0 0.25833 0.00833 0.39167 0.016667a0.98333 0.98333 0 0 1 0.30833 0.075 0.135 0.135 0 0 1 0.09167 0.13333v1.325c0 0.066667-0.03333 0.083333-0.10833 0.066667a1.6183 1.6183 0 0 0-0.2-0.016667h-0.2a0.93 0.93 0 0 0-0.425 0.091667 0.55583 0.55583 0 0 0-0.26667 0.31667 1.6533 1.6533 0 0 0-0.13333 0.6v0.34167h1.1333a0.145 0.145 0 0 1 0.1 0.025 0.096667 0.096667 0 0 1 0.01667 0.083333v1.3667c0 0.06667-0.04167 0.09167-0.11667 0.09167h-1.1333v4.9583a0.29583 0.29583 0 0 1-0.01667 0.08333 0.11333 0.11333 0 0 1-0.1 0.04167h-1.5917c-0.075 0-0.10833-0.04167-0.10833-0.11667v-4.9667z"/>
</svg>
