<svg xmlns="http://www.w3.org/2000/svg" viewBox="0 0 24 24" aria-hidden="true">
  <path fill="#000b1d" d="M 5.5416677,2.2500016 H 18.458332 a 3.5383328,3.5383328 0 0 1 3.541666,3.5416661 V 18.208332 a 3.5383328,3.5383328 0 0 1 -3.541666,3.541666 H 5.5416677 A 3.5383328,3.5383328 0 0 1 2.0000016,18.208332 V 5.7916677 A 3.5383328,3.5383328 0 0 1 5.5416677,2.2500016 Z"/>
  <path fill="#fff" d="M 6.7500008,15.874999 V 7.3500008 c 0,-0.058333 0.025,-0.091667 0.083333,-0.091667 0.1416666,0 0.3166666,0 0.5083332,-0.00833 0.1916666,-0.00833 0.4083333,-0.00833 0.6333332,-0.016667 0.225,-0.00833 0.4666666,-0.00833 0.7249999,-0.016667 0.2583333,-0.00833 0.5083333,-0.00833 0.7583332,-0.00833 0.6833337,0 1.2500007,0.083333 1.7166667,0.2583333 A 2.9758329,2.9758329 0 0 1 12.291667,8.1500007 2.6533329,2.6533329 0 0 1 12.9,9.1000005 3.1899995,3.1899995 0 0 1 13.091666,10.183334 q 0,1.074999 -0.499999,1.774999 A 2.8549995,2.8549995 0 0 1 11.25,12.975 5.3424991,5.3424991 0 0 1 9.3750004,13.291667 c -0.1999999,0 -0.3333333,0 -0.4166666,-0.0083 C 8.8750005,13.275 8.7250005,13.3 8.5666672,13.3 v 2.599999 a 0.10333332,0.10333332 0 0 1 -0.091667,0.116667 h -0.033333 l -1.5999997,-0.025 c -0.058333,-0.0083 -0.091667,-0.04167 -0.091667,-0.116667 z M 8.5666672,8.8916672 v 2.7749998 c 0.1166667,0.0083 0.2583333,-0.0083 0.3583333,-0.0083 H 9.3666671 A 3.0983328,3.0983328 0 0 0 10.325,11.525 1.4333331,1.4333331 0 0 0 11.008333,11.083334 C 11.183333,10.875 11.266667,10.591667 11.266667,10.225 A 1.3716664,1.3716664 0 0 0 11.075,9.4833338 1.2083331,1.2083331 0 0 0 10.491667,9.0083339 2.4449996,2.4449996 0 0 0 9.5083337,8.8416672 c -0.2166666,0 -0.4083332,0 -0.5666665,0.00833 a 1.9166664,1.9166664 0 0 0 -0.375,0.041667 z"/>
  <path fill="#fff" d="m 14.833333,10.908334 h -0.825 c -0.06667,-0.0083 -0.09167,-0.04167 -0.09167,-0.09167 V 9.4416671 a 0.08333332,0.08333332 0 0 1 0.06667,-0.091667 h 0.85 V 9.1583338 A 4.7766659,4.7766659 0 0 1 14.9,8.3166673 2.7741662,2.7741662 0 0 1 15.116666,7.6416674 2.3491663,2.3491663 0 0 1 15.883333,6.7416675 c 0.333333,-0.2333332 0.766666,-0.3499999 1.316666,-0.3499999 0.133333,0 0.258333,0.00833 0.391667,0.016667 a 0.98333318,0.98333318 0 0 1 0.308333,0.075 0.13499998,0.13499998 0 0 1 0.09167,0.1333333 v 1.3249998 c 0,0.066667 -0.03333,0.083333 -0.108334,0.066667 a 1.6183331,1.6183331 0 0 0 -0.2,-0.016667 h -0.2 a 0.92999985,0.92999985 0 0 0 -0.424999,0.091667 0.55583324,0.55583324 0 0 0 -0.266667,0.3166666 1.6533331,1.6533331 0 0 0 -0.133333,0.5999999 v 0.3416666 h 1.133333 a 0.14499998,0.14499998 0 0 1 0.1,0.025 0.09666665,0.09666665 0 0 1 0.01667,0.083333 v 1.3666662 c 0,0.06667 -0.04167,0.09167 -0.116666,0.09167 H 16.65834 v 4.958332 a 0.29583329,0.29583329 0 0 1 -0.01667,0.08333 0.11333332,0.11333332 0 0 1 -0.1,0.04167 H 14.95 c -0.075,0 -0.108334,-0.04167 -0.108334,-0.116667 v -4.966665 z"/>
</svg>
