<svg xmlns="http://www.w3.org/2000/svg" aria-hidden="true" viewBox="0 0 24 24">
  <path fill="#300" d="m5.5417 2.25h12.917a3.5383 3.5383 0 0 1 3.5417 3.5417v12.417a3.5383 3.5383 0 0 1-3.5417 3.5417h-12.917a3.5383 3.5383 0 0 1-3.5417-3.5417v-12.417a3.5383 3.5383 0 0 1 3.5417-3.5417z"/>
  <path fill="#ff9a00" d="m11.692 13.95h-3.1l-0.63333 1.9583a0.14583 0.14583 0 0 1-0.15833 0.11667h-1.5667c-0.091667 0-0.11667-0.05-0.091667-0.15l2.6833-7.725c0.025-0.083333 0.05-0.175 0.083333-0.275a2.9108 2.9108 0 0 0 0.05-0.54167 0.083333 0.083333 0 0 1 0.066667-0.091667h2.1583c0.06667 0 0.1 0.025 0.10833 0.066667l3.0417 8.5833c0.025 0.09167 0 0.13333-0.08333 0.13333h-1.7417a0.12583 0.12583 0 0 1-0.13333-0.091666zm-2.6167-1.6917h2.1167c-0.05-0.175-0.11667-0.38333-0.19167-0.6-0.075-0.21667-0.15-0.46667-0.225-0.71667s-0.15833-0.50833-0.24167-0.76667c-0.083334-0.25833-0.15833-0.5-0.225-0.74167-0.066667-0.24167-0.125-0.45-0.18333-0.65h-0.01667a10.232 10.232 0 0 1-0.28333 1.075c-0.125 0.4-0.25 0.81667-0.38333 1.2333-0.11667 0.425-0.24167 0.81667-0.36667 1.1667z"/>
  <path fill="#ff9a00" d="m16.15 8.6667a1.0317 1.0317 0 0 1-0.74167-0.29167 1.0833 1.0833 0 0 1-0.28333-0.76667 0.98083 0.98083 0 0 1 0.3-0.74167 1.0675 1.0675 0 0 1 0.74167-0.29167c0.325 0 0.575 0.1 0.75833 0.29167a1.0525 1.0525 0 0 1 0.275 0.74167 1.0542 1.0542 0 0 1-0.29167 0.76667 0.98 0.98 0 0 1-0.75833 0.29167zm-0.93333 7.2333v-6.4167c0-0.083333 0.03333-0.11667 0.10833-0.11667h1.65c0.075 0 0.10833 0.041667 0.10833 0.11667v6.4167c0 0.09167-0.03333 0.13333-0.10833 0.13333h-1.6333a0.11667 0.11667 0 0 1-0.125-0.13333z"/>
</svg>
