<svg xmlns="http://www.w3.org/2000/svg" viewBox="0 0 24 24" aria-hidden="true">
  <path fill="#013301" d="M 5.5416677,2.2500016 H 18.458332 a 3.5383328,3.5383328 0 0 1 3.541666,3.5416661 V 18.208332 a 3.5383328,3.5383328 0 0 1 -3.541666,3.541666 H 5.5416677 A 3.5383328,3.5383328 0 0 1 2.0000016,18.208332 V 5.7916677 A 3.5383328,3.5383328 0 0 1 5.5416677,2.2500016 Z"/>
  <path fill="#3f6" d="M 4.9166678,15.899999 V 7.3666674 a 0.10083332,0.10083332 0 0 1 0.091667,-0.1083333 h 0.00833 c 0.1333333,-0.00833 0.3333333,-0.016667 0.5916666,-0.016667 0.2583332,0 0.5666665,-0.00833 0.9083331,-0.016667 0.3416667,-0.00833 0.7166666,-0.00833 1.1166665,-0.00833 1.0749999,0 1.9666664,0.1833333 2.666666,0.5499999 A 3.7558327,3.7558327 0 0 1 11.891667,9.2750005 4.5333326,4.5333326 0 0 1 12.425,11.483333 4.9599992,4.9599992 0 0 1 12.15,13.191667 4.0599994,4.0599994 0 0 1 11.4,14.475 a 4.4858326,4.4858326 0 0 1 -1.083333,0.891666 4.7291659,4.7291659 0 0 1 -1.2916665,0.525 5.7191658,5.7191658 0 0 1 -1.3583331,0.166667 H 6.6666675 c -0.3499999,0 -0.6833332,0 -0.9833332,-0.0083 -0.2999999,-0.0083 -0.5333332,-0.0083 -0.6833332,-0.01667 -0.058333,0 -0.083333,-0.05 -0.083333,-0.133334 z M 6.7666675,8.8666672 V 14.425 a 2.5933329,2.5933329 0 0 1 0.2666666,0.0083 c 0.083333,0.0083 0.1666667,0.0083 0.25,0.01667 0.083333,0.0083 0.1833333,0.0083 0.2916666,0.0083 A 3.4033328,3.4033328 0 0 0 8.7666672,14.266666 2.3866663,2.3866663 0 0 0 9.6833337,13.7 2.5158329,2.5158329 0 0 0 10.275,12.775 a 3.5483328,3.5483328 0 0 0 0.208334,-1.25 3.1424995,3.1424995 0 0 0 -0.2,-1.175 A 2.1299997,2.1299997 0 0 0 9.7000004,9.5083338 2.3224996,2.3224996 0 0 0 8.7916672,9.0083339 3.8883327,3.8883327 0 0 0 7.633334,8.8500005 c -0.1749999,0 -0.3249999,0 -0.4499999,0.00833 a 3.5774994,3.5774994 0 0 0 -0.4166666,0.00833 z"/>
  <path fill="#3f6" d="m 13.233333,15.908333 v -4.991666 c 0,-0.15 0,-0.325 -0.0083,-0.508333 -0.0083,-0.183334 -0.0083,-0.366667 -0.01667,-0.5333336 -0.0083,-0.1666667 -0.01667,-0.3 -0.025,-0.4 A 0.08333332,0.08333332 0 0 1 13.2,9.3916671 a 0.14083331,0.14083331 0 0 1 0.08333,-0.025 h 1.383333 a 0.34583328,0.34583328 0 0 1 0.133334,0.025 0.12916665,0.12916665 0 0 1 0.06667,0.091667 c 0.01667,0.05 0.04167,0.1166666 0.05833,0.1833333 a 1.3283331,1.3283331 0 0 1 0.05,0.2499999 2.7683329,2.7683329 0 0 1 0.883333,-0.5166665 3.1974995,3.1974995 0 0 1 1.008333,-0.1666667 2.4858329,2.4858329 0 0 1 0.783333,0.125 1.9999997,1.9999997 0 0 1 1.266667,1.2333329 c 0.133333,0.341667 0.2,0.791666 0.2,1.333333 v 3.983333 c 0,0.08333 -0.03333,0.116666 -0.108334,0.116666 h -1.625 a 0.11499998,0.11499998 0 0 1 -0.133333,-0.1 V 12.083333 A 1.7366664,1.7366664 0 0 0 17.133333,11.4 0.91666652,0.91666652 0 0 0 16.224999,10.833334 1.6424997,1.6424997 0 0 0 15.591666,10.95 a 1.7499997,1.7499997 0 0 0 -0.5,0.316667 v 4.641666 c 0,0.08333 -0.03333,0.116666 -0.108333,0.116666 H 13.35 a 0.10333332,0.10333332 0 0 1 -0.116667,-0.09167 z"/>
</svg>
