<svg xmlns="http://www.w3.org/2000/svg" viewBox="0 0 24 24" aria-hidden="true">
  <path fill="#370000" d="M 5.5416677,2.2500016 H 18.458332 a 3.5383328,3.5383328 0 0 1 3.541666,3.5416661 V 18.208332 a 3.5383328,3.5383328 0 0 1 -3.541666,3.541666 H 5.5416677 A 3.5383328,3.5383328 0 0 1 2.0000016,18.208332 V 5.7916677 A 3.5383328,3.5383328 0 0 1 5.5416677,2.2500016 Z"/>
  <path fill="#fa0f00" d="m 8.3716664,16.166666 a 6.6774997,6.6774997 0 0 1 -1.3616666,-0.1275 4.4316665,4.4316665 0 0 1 -1.0266666,-0.328333 c -0.071667,-0.03583 -0.1075,-0.111667 -0.1075,-0.228334 V 13.885 a 0.08333333,0.08333333 0 0 1 0.033333,-0.07333 0.08833333,0.08833333 0 0 1 0.083333,0.0067 4.6883331,4.6883331 0 0 0 2.4283333,0.6975 q 0.7649999,0 1.0933333,-0.235 a 0.69583331,0.69583331 0 0 0 0.3333339,-0.58337 0.78749997,0.78749997 0 0 0 -0.1075,-0.409167 1.1616666,1.1616666 0 0 0 -0.3758333,-0.355833 4.4083332,4.4083332 0 0 0 -0.7375,-0.361667 l -0.6666666,-0.2825 Q 7.1416665,11.94 6.6783331,11.544166 A 2.1524999,2.1524999 0 0 1 6.0408332,10.6925 2.7308332,2.7308332 0 0 1 5.8666665,9.7124997 2.4091666,2.4091666 0 0 1 7.3024998,7.4624998 Q 8.0133331,7.1216665 9.0733331,7.1208331 a 8.3399997,8.3399997 0 0 1 1.2008329,0.083333 2.8533332,2.8533332 0 0 1 0.8925,0.25 0.18583333,0.18583333 0 0 1 0.09333,0.175 V 9.149166 a 0.08833333,0.08833333 0 0 1 -0.03333,0.06 c -0.0225,0.0225 -0.05167,0.020833 -0.08333,-0.00667 a 3.7608332,3.7608332 0 0 0 -0.93917,-0.3333296 5.0366665,5.0366665 0 0 0 -1.1208329,-0.1191667 2.7408332,2.7408332 0 0 0 -0.6575,0.0675 1.5766666,1.5766666 0 0 0 -0.4358333,0.1666667 0.64416664,0.64416664 0 0 0 -0.25,0.255 0.67499997,0.67499997 0 0 0 -0.083333,0.315 0.63999997,0.63999997 0 0 0 0.12,0.3825 1.3333333,1.3333333 0 0 0 0.4025,0.3333336 8.4349997,8.4349997 0 0 0 0.7825,0.396666 l 0.5,0.188334 q 0.8849992,0.3625 1.3816662,0.770833 a 2.3566666,2.3566666 0 0 1 0.6975,0.885833 2.6116666,2.6116666 0 0 1 0.201667,1.026667 2.3408332,2.3408332 0 0 1 -0.4225,1.388333 2.7024999,2.7024999 0 0 1 -1.174167,0.916667 q -0.7541662,0.323333 -1.7741666,0.323333 z"/>
  <path fill="#fa0f00" d="m 15.416666,9.2299997 a 3.8624998,3.8624998 0 0 1 1.515833,0.27 2.9166666,2.9166666 0 0 1 1.046667,0.7308333 3.1299999,3.1299999 0 0 1 0.623333,1.04 3.5583332,3.5583332 0 0 1 0.208334,1.220833 3.5541665,3.5541665 0 0 1 -0.3425,1.61 3.3158332,3.3158332 0 0 1 -0.93,1.148333 4.0949998,4.0949998 0 0 1 -1.320834,0.691667 5.0574998,5.0574998 0 0 1 -1.51,0.225 0.96249996,0.96249996 0 0 1 -0.106666,-0.0067 c -0.045,0 -0.134167,-0.0067 -0.188333,-0.0067 v 2.28 a 0.10916666,0.10916666 0 0 1 -0.09667,0.12 h -0.01 c -0.134167,0.0092 -0.25,0.0225 -0.436667,0.04 -0.186666,0.0175 -0.36,0.03583 -0.53,0.05417 -0.17,0.01833 -0.3175,0.03083 -0.4425,0.04 a 1.4816666,1.4816666 0 0 0 -0.228333,0.02667 c -0.05333,0 -0.08333,-0.03583 -0.08333,-0.106667 V 10.7325 c 0,-0.0625 0,-0.1525 -0.0067,-0.268334 -0.0067,-0.115833 -0.0092,-0.23 -0.01417,-0.3425 a 2.5999999,2.5999999 0 0 0 -0.02,-0.2616663 0.0725,0.0725 0 0 1 0.05417,-0.083333 Q 12.931666,9.655833 13.369166,9.5349997 C 13.66,9.4516664 13.9775,9.383333 14.3225,9.3199997 a 6.1133331,6.1133331 0 0 1 1.094166,-0.09 z m -0.161667,1.5833333 a 2.8933332,2.8933332 0 0 0 -0.416666,0.0275 c -0.125,0.0175 -0.298334,0 -0.4325,0.03583 v 3.666667 a 1.8841666,1.8841666 0 0 0 0.25,0.06417 c 0.08333,0 0.154166,0.0067 0.208333,0.0067 a 2.4166666,2.4166666 0 0 0 0.950833,-0.1975 1.7608333,1.7608333 0 0 0 0.770834,-0.6367 q 0.309166,-0.444167 0.309166,-1.166667 0,-0.859167 -0.43,-1.328333 -0.43,-0.469167 -1.2075,-0.4725 z"/>
</svg>
