<svg xmlns="http://www.w3.org/2000/svg" aria-hidden="true" viewBox="0 0 24 24">
  <path fill="#370000" d="m5.5417 2.25h12.917a3.5383 3.5383 0 0 1 3.5417 3.5417v12.417a3.5383 3.5383 0 0 1-3.5417 3.5417h-12.917a3.5383 3.5383 0 0 1-3.5417-3.5417v-12.417a3.5383 3.5383 0 0 1 3.5417-3.5417z"/>
  <path fill="#fa0f00" d="m8.3717 16.167a6.6775 6.6775 0 0 1-1.3617-0.1275 4.4317 4.4317 0 0 1-1.0267-0.32833c-0.071667-0.03583-0.1075-0.11167-0.1075-0.22833v-1.5975a0.083333 0.083333 0 0 1 0.033333-0.07333 0.088333 0.088333 0 0 1 0.083333 0.0067 4.6883 4.6883 0 0 0 2.4283 0.6975q0.765 0 1.0933-0.235a0.69583 0.69583 0 0 0 0.33333-0.58337 0.7875 0.7875 0 0 0-0.1075-0.40917 1.1617 1.1617 0 0 0-0.37583-0.35583 4.4083 4.4083 0 0 0-0.7375-0.36167l-0.66667-0.2825q-0.81833-0.34833-1.2817-0.74417a2.1525 2.1525 0 0 1-0.6375-0.85167 2.7308 2.7308 0 0 1-0.17417-0.98 2.4092 2.4092 0 0 1 1.4358-2.25q0.71083-0.34083 1.7708-0.34167a8.34 8.34 0 0 1 1.2008 0.083333 2.8533 2.8533 0 0 1 0.8925 0.25 0.18583 0.18583 0 0 1 0.09333 0.175v1.52a0.088333 0.088333 0 0 1-0.03333 0.06c-0.0225 0.0225-0.05167 0.020833-0.08333-0.00667a3.7608 3.7608 0 0 0-0.93917-0.33333 5.0367 5.0367 0 0 0-1.1208-0.11917 2.7408 2.7408 0 0 0-0.6575 0.0675 1.5767 1.5767 0 0 0-0.43583 0.16667 0.64417 0.64417 0 0 0-0.25 0.255 0.675 0.675 0 0 0-0.083333 0.315 0.64 0.64 0 0 0 0.12 0.3825 1.3333 1.3333 0 0 0 0.4025 0.33333 8.435 8.435 0 0 0 0.7825 0.39667l0.5 0.18833q0.885 0.3625 1.3817 0.77083a2.3567 2.3567 0 0 1 0.6975 0.88583 2.6117 2.6117 0 0 1 0.20167 1.0267 2.3408 2.3408 0 0 1-0.4225 1.3883 2.7025 2.7025 0 0 1-1.1742 0.91667q-0.75417 0.32333-1.7742 0.32333z"/>
  <path fill="#fa0f00" d="m15.417 9.23a3.8625 3.8625 0 0 1 1.5158 0.27 2.9167 2.9167 0 0 1 1.0467 0.73083 3.13 3.13 0 0 1 0.62333 1.04 3.5583 3.5583 0 0 1 0.20833 1.2208 3.5542 3.5542 0 0 1-0.3425 1.61 3.3158 3.3158 0 0 1-0.93 1.1483 4.095 4.095 0 0 1-1.3208 0.69167 5.0575 5.0575 0 0 1-1.51 0.225 0.9625 0.9625 0 0 1-0.10667-0.0067c-0.045 0-0.13417-0.0067-0.18833-0.0067v2.28a0.10917 0.10917 0 0 1-0.09667 0.12h-0.01c-0.13417 0.0092-0.25 0.0225-0.43667 0.04-0.18667 0.0175-0.36 0.03583-0.53 0.05417-0.17 0.01833-0.3175 0.03083-0.4425 0.04a1.4817 1.4817 0 0 0-0.22833 0.02667c-0.05333 0-0.08333-0.03583-0.08333-0.10667v-7.8749c0-0.0625 0-0.1525-0.0067-0.26833-0.0067-0.11583-0.0092-0.23-0.01417-0.3425a2.6 2.6 0 0 0-0.02-0.26167 0.0725 0.0725 0 0 1 0.05417-0.083333q0.33337-0.12083 0.77087-0.24167c0.29083-0.083333 0.60833-0.15167 0.95333-0.215a6.1133 6.1133 0 0 1 1.0942-0.09zm-0.16167 1.5833a2.8933 2.8933 0 0 0-0.41667 0.0275c-0.125 0.0175-0.29833 0-0.4325 0.03583v3.6667a1.8842 1.8842 0 0 0 0.25 0.06417c0.08333 0 0.15417 0.0067 0.20833 0.0067a2.4167 2.4167 0 0 0 0.95083-0.1975 1.7608 1.7608 0 0 0 0.77083-0.6367q0.30917-0.44417 0.30917-1.1667 0-0.85917-0.43-1.3283-0.43-0.46917-1.2075-0.4725z"/>
</svg>
