<svg xmlns="http://www.w3.org/2000/svg" aria-hidden="true" viewBox="0 0 24 24">
  <path fill="#470137" d="m5.5417 2.25h12.917a3.5383 3.5383 0 0 1 3.5417 3.5417v12.417a3.5383 3.5383 0 0 1-3.5417 3.5417h-12.917a3.5383 3.5383 0 0 1-3.5417-3.5417v-12.417a3.5383 3.5383 0 0 1 3.5417-3.5417z"/>
  <path fill="#ff61f6" d="m3.9 15.9v-8.5333a0.1 0.1 0 0 1 0.083333-0.10833h0.00833c0.125-0.00833 0.31667-0.016667 0.55833-0.016667s0.53333-0.00833 0.86667-0.016667c0.33333-0.00833 0.68333-0.00833 1.0583-0.00833 1.0167 0 1.8667 0.18333 2.5333 0.55a3.6542 3.6542 0 0 1 1.5083 1.5083c0.33333 0.64167 0.5 1.375 0.5 2.2083a5.1525 5.1525 0 0 1-0.25833 1.7083 4.06 4.06 0 0 1-0.71667 1.2833 4.3625 4.3625 0 0 1-1.025 0.89167 4.5717 4.5717 0 0 1-1.225 0.525 5.115 5.115 0 0 1-1.2833 0.16667h-0.94166c-0.33333 0-0.65 0-0.93333-0.0083s-0.50833-0.0083-0.65-0.01667c-0.058333 0-0.083333-0.05-0.083333-0.13333zm1.7583-7.0333v5.5583c0.091667 0 0.175 0 0.25833 0.0083 0.083333 0.0083 0.15833 0.0083 0.23333 0.01667 0.075 0.0083 0.175 0.0083 0.275 0.0083a3.1183 3.1183 0 0 0 1.1333-0.1916 2.2367 2.2367 0 0 0 0.875-0.56667 2.5733 2.5733 0 0 0 0.55833-0.925 3.9642 3.9642 0 0 0 0.2-1.25 3.3117 3.3117 0 0 0-0.19167-1.175 2.1733 2.1733 0 0 0-1.425-1.35 3.515 3.515 0 0 0-1.1-0.15833c-0.16667 0-0.30833 0-0.425 0.00833-0.11667 0.00833-0.25 0.00833-0.39167 0.016667z"/>
  <path fill="#ff61f6" d="m18.483 16.033h-1.5583a0.11417 0.11417 0 0 1-0.1-0.03333 0.28167 0.28167 0 0 1-0.05-0.1c-0.15833-0.66667-0.29167-1.2667-0.4-1.775-0.10833-0.50833-0.2-0.95-0.26667-1.3083-0.06667-0.35833-0.125-0.65833-0.175-0.90833s-0.08333-0.45833-0.10833-0.63333h-0.0083c-0.08333 0.36667-0.15833 0.725-0.23333 1.0667-0.075 0.34167-0.15 0.69167-0.23333 1.0417-0.08333 0.35-0.175 0.73333-0.28333 1.15-0.10837 0.41666-0.2167 0.875-0.3417 1.3667-0.01667 0.09167-0.05833 0.13333-0.13333 0.13333h-1.5583a0.18583 0.18583 0 0 1-0.11667-0.025 0.34417 0.34417 0 0 1-0.05833-0.09167l-1.625-6.4417c-0.025-0.075 0.0083-0.10833 0.1-0.10833h1.575c0.075 0 0.11667 0.025 0.125 0.083333 0.16666 0.73334 0.30833 1.3667 0.41666 1.9 0.10833 0.53333 0.2 0.98333 0.25833 1.3583 0.05833 0.375 0.11667 0.68333 0.15833 0.91667 0.04167 0.23333 0.075 0.43333 0.1 0.58333h0.025c0.016667-0.13333 0.033334-0.25833 0.058334-0.39167q0.05-0.2375 0.125-0.625c0.05-0.25833 0.10833-0.55833 0.18333-0.90833s0.15833-0.75 0.25833-1.2167c0.1-0.46667 0.225-0.98333 0.38333-1.575a0.27167 0.27167 0 0 1 0.03333-0.10833c0.0083-0.016667 0.04167-0.025 0.09167-0.025h1.6333c0.05 0 0.075 0.033333 0.08333 0.091667 0.14167 0.60833 0.25833 1.1417 0.35833 1.6s0.175 0.86667 0.25 1.225 0.125 0.65833 0.15833 0.90833c0.03333 0.25 0.075 0.46667 0.10833 0.64167a3.7175 3.7175 0 0 1 0.05833 0.425h0.025c0.04167-0.16667 0.075-0.36667 0.10833-0.59167 0.03333-0.225 0.075-0.475 0.13333-0.75833 0.05833-0.28333 0.10833-0.59167 0.175-0.93333 0.066671-0.34167 0.14167-0.71667 0.23334-1.1417 0.09167-0.425 0.19167-0.875 0.30833-1.3667 0.01667-0.075 0.05-0.10833 0.10833-0.10833h1.4583c0.075 0 0.1 0.041667 0.08333 0.11667l-1.8 6.425a0.19833 0.19833 0 0 1-0.05 0.09167c0 0.04167-0.03333 0.05833-0.075 0.05z"/>
</svg>
