<svg xmlns="http://www.w3.org/2000/svg" viewBox="0 0 24 24" aria-hidden="true">
  <path fill="#470137" d="M 5.5416677,2.2500016 H 18.458332 a 3.5383328,3.5383328 0 0 1 3.541666,3.5416661 V 18.208332 a 3.5383328,3.5383328 0 0 1 -3.541666,3.541666 H 5.5416677 A 3.5383328,3.5383328 0 0 1 2.0000016,18.208332 V 5.7916677 A 3.5383328,3.5383328 0 0 1 5.5416677,2.2500016 Z"/>
  <path fill="#ff61f6" d="M 3.9000013,15.899999 V 7.3666674 a 0.09999998,0.09999998 0 0 1 0.083333,-0.1083333 h 0.00833 c 0.125,-0.00833 0.3166667,-0.016667 0.5583333,-0.016667 0.2416666,0 0.5333332,-0.00833 0.8666665,-0.016667 0.3333333,-0.00833 0.6833332,-0.00833 1.0583332,-0.00833 1.0166665,0 1.8666664,0.1833333 2.5333329,0.5499999 a 3.6541661,3.6541661 0 0 1 1.5083328,1.5083331 c 0.333333,0.6416665 0.5,1.3749999 0.5,2.2083329 a 5.1524992,5.1524992 0 0 1 -0.258333,1.708334 4.0599994,4.0599994 0 0 1 -0.716667,1.283333 4.3624993,4.3624993 0 0 1 -1.0249995,0.891666 4.5716659,4.5716659 0 0 1 -1.2249998,0.525 5.1149992,5.1149992 0 0 1 -1.2833331,0.166667 H 5.5666677 c -0.3333333,0 -0.6499999,0 -0.9333332,-0.0083 -0.2833333,-0.0083 -0.5083332,-0.0083 -0.6499999,-0.01667 -0.058333,0 -0.083333,-0.05 -0.083333,-0.133334 z M 5.6583343,8.8666672 V 14.425 c 0.091667,0 0.175,0 0.2583333,0.0083 0.083333,0.0083 0.1583333,0.0083 0.2333333,0.01667 0.075,0.0083 0.175,0.0083 0.275,0.0083 A 3.1183328,3.1183328 0 0 0 7.558334,14.266666 2.2366663,2.2366663 0 0 0 8.4333339,13.7 a 2.5733329,2.5733329 0 0 0 0.5583332,-0.925 3.964166,3.964166 0 0 0 0.2,-1.25 A 3.3116661,3.3116661 0 0 0 9.0000005,10.35 2.173333,2.173333 0 0 0 7.5750007,9.0000005 3.5149994,3.5149994 0 0 0 6.4750009,8.8416672 c -0.1666667,0 -0.3083333,0 -0.4249999,0.00833 -0.1166667,0.00833 -0.25,0.00833 -0.3916667,0.016667 z"/>
  <path fill="#ff61f6" d="m 18.483332,16.033333 h -1.558333 a 0.11416665,0.11416665 0 0 1 -0.1,-0.03333 0.28166662,0.28166662 0 0 1 -0.05,-0.1 c -0.158333,-0.666666 -0.291666,-1.266666 -0.4,-1.774999 -0.108333,-0.508334 -0.2,-0.95 -0.266666,-1.308333 -0.06667,-0.358334 -0.125,-0.658334 -0.175,-0.908334 -0.05,-0.25 -0.08333,-0.458333 -0.108334,-0.633333 h -0.0083 c -0.08333,0.366667 -0.158333,0.725 -0.233333,1.066667 -0.075,0.341666 -0.15,0.691666 -0.233334,1.041666 -0.08333,0.35 -0.175,0.733333 -0.283333,1.15 C 14.958333,14.95 14.85,15.408333 14.725,15.899999 c -0.01667,0.09167 -0.05833,0.133334 -0.133334,0.133334 h -1.558333 a 0.1858333,0.1858333 0 0 1 -0.116666,-0.025 0.34416661,0.34416661 0 0 1 -0.05833,-0.09167 l -1.625,-6.4416656 c -0.025,-0.075 0.0083,-0.1083333 0.1,-0.1083333 h 1.575 c 0.075,0 0.116667,0.025 0.125,0.083333 C 13.2,10.183334 13.341666,10.816667 13.45,11.35 c 0.108333,0.533333 0.2,0.983333 0.258333,1.358333 0.05833,0.375 0.116667,0.683333 0.158333,0.916667 0.04167,0.233333 0.075,0.433333 0.1,0.583333 h 0.025 C 14.008333,14.075 14.025,13.95 14.05,13.816666 q 0.05,-0.2375 0.125,-0.624999 c 0.05,-0.258334 0.108333,-0.558334 0.183333,-0.908334 0.075,-0.35 0.158333,-0.75 0.258333,-1.216666 0.1,-0.466667 0.225,-0.983333 0.383334,-1.5749999 a 0.27166662,0.27166662 0 0 1 0.03333,-0.1083333 c 0.0083,-0.016667 0.04167,-0.025 0.09167,-0.025 h 1.633334 c 0.05,0 0.075,0.033333 0.08333,0.091667 0.141667,0.6083332 0.258333,1.1416662 0.358333,1.5999992 0.1,0.458333 0.175,0.866667 0.25,1.225 0.075,0.358333 0.125,0.658333 0.158333,0.908333 0.03333,0.25 0.075,0.466667 0.108334,0.641667 a 3.7174994,3.7174994 0 0 1 0.05833,0.425 h 0.025 c 0.04167,-0.166667 0.075,-0.366667 0.108333,-0.591667 0.03333,-0.225 0.075,-0.475 0.133334,-0.758333 0.05833,-0.283333 0.108333,-0.591667 0.175,-0.933333 C 18.283332,11.625 18.358332,11.25 18.449999,10.825 c 0.09167,-0.425 0.191667,-0.8749996 0.308333,-1.3666662 0.01667,-0.075 0.05,-0.1083333 0.108334,-0.1083333 h 1.458333 c 0.075,0 0.1,0.041667 0.08333,0.1166666 l -1.8,6.4249989 a 0.1983333,0.1983333 0 0 1 -0.05,0.09167 c 0,0.04167 -0.03333,0.05833 -0.075,0.05 z"/>
</svg>
