<svg xmlns="http://www.w3.org/2000/svg" viewBox="0 0 24 24" aria-hidden="true">
  <path fill="#00005b" d="M 5.5416678,2.2500016 H 18.458333 a 3.5383328,3.5383328 0 0 1 3.541665,3.5416662 V 18.208333 a 3.5383328,3.5383328 0 0 1 -3.541665,3.541666 H 5.5416678 A 3.5383328,3.5383328 0 0 1 2.0000016,18.209166 V 5.7916678 A 3.5383328,3.5383328 0 0 1 5.5416678,2.2500016 Z"/>
  <path fill="#99f" d="M 9.8550004,13.916667 H 6.7583342 L 6.1266676,15.882499 A 0.14416664,0.14416664 0 0 1 5.9708343,15.999166 H 4.4025012 c -0.093333,0 -0.1166666,-0.04667 -0.093333,-0.148333 l 2.683333,-7.7066656 a 2.6666663,2.6666663 0 0 1 0.083333,-0.2733333 2.4116663,2.4116663 0 0 0 0.07,-0.5308332 0.08333332,0.08333332 0 0 1 0.0725,-0.09 h 2.160833 c 0.055,0 0.1016667,0.023333 0.1091667,0.07 L 12.515,15.869166 c 0.02333,0.09333 0,0.1325 -0.08333,0.1325 h -1.742503 a 0.12499998,0.12499998 0 0 1 -0.1325,-0.09333 z M 7.2416674,12.2575 H 9.3558338 C 9.3091671,12.085833 9.2391672,11.875 9.1608339,11.656667 9.0825005,11.438333 9.0125005,11.188333 8.9350005,10.939167 8.8575005,10.69 8.7791672,10.4325 8.693334,10.175 8.6075006,9.9175005 8.5375006,9.6750005 8.4675006,9.4341672 c -0.07,-0.2408333 -0.125,-0.4524999 -0.1875,-0.6474999 H 8.2641673 A 10.937498,10.937498 0 0 1 7.983334,9.8633338 c -0.125,0.3975002 -0.25,0.8191662 -0.3824999,1.2324992 a 11.443332,11.443332 0 0 1 -0.3591667,1.1625 z"/>
  <path fill="#99f" d="m 18.903333,9.4341672 v 5.1091658 c 0,0.225834 0,0.420834 0.0075,0.600834 0.0075,0.18 0.01583,0.3275 0.02333,0.46 0.0075,0.132499 0.02333,0.210832 0.03083,0.296666 0.0075,0.08583 -0.02333,0.109166 -0.09333,0.109166 h -1.426667 a 0.14666664,0.14666664 0 0 1 -0.155833,-0.09333 l -0.04667,-0.210833 a 0.63999991,0.63999991 0 0 1 -0.01583,-0.171666 2.3749997,2.3749997 0 0 1 -0.944167,0.514999 3.3724995,3.3724995 0 0 1 -0.928332,0.125 2.7116663,2.7116663 0 0 1 -0.905,-0.14 1.7749998,1.7749998 0 0 1 -0.71,-0.459999 2.0691664,2.0691664 0 0 1 -0.468334,-0.810834 3.7891661,3.7891661 0 0 1 -0.166666,-1.185833 V 9.4416672 A 0.09583332,0.09583332 0 0 1 13.1875,9.3325006 h 1.620833 a 0.09583332,0.09583332 0 0 1 0.108334,0.084167 v 3.9391654 c 0,0.366667 0.08333,0.655 0.241666,0.865834 0.158334,0.210833 0.483333,0.32 0.858333,0.32 a 1.5949998,1.5949998 0 0 0 0.566667,-0.1 1.9566664,1.9566664 0 0 0 0.5225,-0.273334 V 9.4341672 c 0,-0.055 0.03917,-0.093333 0.116666,-0.093333 h 1.591667 a 0.08333332,0.08333332 0 0 1 0.09333,0.07 0.02833333,0.02833333 0 0 0 -0.0042,0.023333 z"/>
</svg>
